<svg xmlns="http://www.w3.org/2000/svg" viewBox="0 0 96 96"><path d="M52.581 53.777a24.9 24.9 0 0 1-.366 1.278c-.377 1.188-6.307 2.356-6.869 3.472-.028.056-.055.103-.083.157v10.294L88 47.852l-42.277-20.83v10.964c.263.573 5.963 1.152 6.175 1.735l.011.025a24.108 24.108 0 0 1 1.233 5.128c.025.195.045.391.065.584l.012.112c.012.129.022.259.033.391H17.108a4.836 4.836 0 0 0-.86-1.325l-.29-.288a4.839 4.839 0 0 0-1.073-.74 4.78 4.78 0 0 0-3.623-.267c-.215.071-.433.16-.646.267-.39.193-.751.444-1.075.742-.05.048-.101.094-.15.144a4.706 4.706 0 0 0-1.388 3.153c-.001.064-.003.129-.003.195l.004.219c.02.436.099.864.233 1.281.077.233.169.451.268.645a4.612 4.612 0 0 0 .882 1.218l.018.021c.048.047.095.093.138.13.331.305.693.555 1.07.739.196.104.408.19.649.271a4.733 4.733 0 0 0 1.699.232c.437-.019.87-.098 1.285-.234.224-.075.441-.165.644-.267a4.831 4.831 0 0 0 1.075-.743c.05-.048.098-.095.146-.144l.146-.149c.299-.332.549-.693.74-1.072.038-.075.074-.154.112-.242l36.142-.001c-.03.386-.066.745-.109 1.089a23.963 23.963 0 0 1-.561 2.942zm-37.569-5.345a2.313 2.313 0 0 1-1.08 1.428 2.12 2.12 0 0 1-.605.252 2.275 2.275 0 0 1-1.153-.002 2.173 2.173 0 0 1-.611-.254 2.288 2.288 0 0 1-.816-.82 2.34 2.34 0 0 1-.325-1.183c0-.196.026-.393.076-.582.052-.211.137-.417.253-.609.09-.156.21-.313.355-.457a2.299 2.299 0 0 1 1.071-.612 2.313 2.313 0 0 1 1.765.254c.162.092.313.209.461.357.146.146.267.302.359.465.113.188.198.395.251.605.095.373.094.777-.001 1.158z"/></svg>