<svg xmlns="http://www.w3.org/2000/svg" viewBox="0 0 32 32"><path d="M18.631 21.808l1.248 1.268-2.336 2.481L8.628 16.5h4.778l5.225 5.309zm-.015-10.175l.81.86-2.961 3.007h-1.656zM16.465 16.5l2.961 3.007-.81.86-3.807-3.867z"/><path d="M16 0c8.837 0 16 7.163 16 16s-7.163 16-16 16S0 24.837 0 16 7.163 0 16 0zm1.559 26.998l3.709-3.938-1.95-1.981 1.497-1.589L17.377 16l3.438-3.491-1.497-1.589 1.95-1.981-3.709-3.938L6.733 16z"/><path d="M18.631 10.191L13.406 15.5H8.628l8.915-9.057 2.336 2.481-1.248 1.268z"/></svg>