<svg xmlns="http://www.w3.org/2000/svg" viewBox="0 0 100 100"><path d="M72.853 50.925H63.96c.331.748.519 1.572.519 2.441a6.055 6.055 0 0 1-2.979 5.209c.617.949.979 2.078.979 3.291 0 2.84-1.966 5.223-4.606 5.875.385.795.606 1.684.606 2.625a6.065 6.065 0 0 1-6.058 6.059h-9.443c-12.07 0-21.891-9.82-21.891-21.891a21.745 21.745 0 0 1 6.406-15.472l14.749-13.749c2.316-2.316 6.16-2.316 8.523.044 2.146 2.147 2.489 5.275.894 8.164-.017.03-.034.06-.052.088l-3.269 5.199h24.491l.02-.002a6.067 6.067 0 0 1 6.06 6.06 6.066 6.066 0 0 1-6.056 6.059zm-17.99 19.441a2.444 2.444 0 0 0-2.441-2.441h-3.751a2.443 2.443 0 0 0 0 4.884h3.751a2.444 2.444 0 0 0 2.441-2.443zm4.001-8.5a2.445 2.445 0 0 0-2.442-2.441h-6.75a2.443 2.443 0 0 0-2.442 2.441 2.444 2.444 0 0 0 2.442 2.443h6.75a2.444 2.444 0 0 0 2.442-2.443zm-.443-10.941h-7.75a2.444 2.444 0 0 0-2.443 2.441 2.444 2.444 0 0 0 2.443 2.443h7.75a2.445 2.445 0 0 0 2.442-2.443 2.444 2.444 0 0 0-2.442-2.441zm16.872-6.059a2.445 2.445 0 0 0-2.434-2.442l-.009.001H46.066l-4.811 7.653a1.806 1.806 0 0 1-2.492.57 1.807 1.807 0 0 1-.57-2.493l10.323-16.423c.387-.719 1.07-2.44-.309-3.818a2.448 2.448 0 0 0-3.455.001L30.051 41.619a18.156 18.156 0 0 0-5.348 12.915c0 10.076 8.199 18.275 18.275 18.275h.152a6.007 6.007 0 0 1-.52-2.443c0-1.924.906-3.639 2.311-4.75a6.017 6.017 0 0 1-1.311-3.75c0-1.924.906-3.639 2.311-4.75a6.017 6.017 0 0 1-1.311-3.75 6.066 6.066 0 0 1 6.06-6.058h22.179a2.445 2.445 0 0 0 2.444-2.442z"/></svg>