<svg xmlns="http://www.w3.org/2000/svg" viewBox="0 0 100 100"><path d="M99 51.236l-6.616-6.634V49H81.185a6.874 6.874 0 0 0-6.701-5.319A6.873 6.873 0 0 0 67.785 49H53.769a6.873 6.873 0 0 0-6.701-5.319A6.872 6.872 0 0 0 40.37 49H26.353a6.872 6.872 0 0 0-6.701-5.319A6.872 6.872 0 0 0 12.954 49H1.027v4.425h12.401a6.872 6.872 0 0 0 6.223 3.964 6.872 6.872 0 0 0 6.226-3.964h14.966a6.874 6.874 0 0 0 6.224 3.964 6.874 6.874 0 0 0 6.226-3.964H68.26a6.872 6.872 0 0 0 6.224 3.964 6.875 6.875 0 0 0 6.226-3.964h11.675v4.454L99 51.236zm-79.348 3.412c-2.285 0-4.145-1.845-4.145-4.113 0-2.268 1.859-4.112 4.145-4.112 2.287 0 4.147 1.845 4.147 4.112 0 2.269-1.861 4.113-4.147 4.113zm27.415 0c-2.285 0-4.145-1.845-4.145-4.113 0-2.268 1.859-4.112 4.145-4.112 2.286 0 4.147 1.845 4.147 4.112.001 2.269-1.86 4.113-4.147 4.113zm27.416 0c-2.285 0-4.145-1.845-4.145-4.113 0-2.268 1.859-4.112 4.145-4.112s4.146 1.845 4.146 4.112c.001 2.269-1.86 4.113-4.146 4.113z"/></svg>