<svg xmlns="http://www.w3.org/2000/svg" viewBox="0 0 100 100"><path d="M4.999 49.999c-.001 24.853 20.147 45 45 45 24.853.001 45-20.148 45-44.999 0-24.854-20.148-45-45-45-24.853 0-45.001 20.146-45 44.999zM72.586 62.57c.214-.606.945-7.14.842-10.919-.267-9.549-1.598-10.335-1.297-10.926.123-.236.296-.376.524-.413l3.816-.111c3.081.001 3.499 1.332 3.569 11.761.001 10.081-1.575 11.414-2.871 11.414 0 0-2.949-.02-3.532.028-.837.077-1.251-.272-1.051-.834zm-19.531-2.171c1.272-.412 2.101-1.89 2.207-2.384.667-2.658 2.587-3.884 3.57-4.508.978-.634 3.639-.184 4.13-.145.595.052 1.361.559 1.713-.106.076-.136.014-.42-.15-.59-.186-.181-.374-.242-.699-.247-6.925-.233-6.297-.396-8.249-2.526-1.326-1.438-.388-2.697.383-3.079.867-.397.58-.682.211-.8-.457-.032-1.437.594-1.961.875-.488.303-.837.288-1.539.104-.793-.178-.837-.945-.769-1.506.053-.439-.178-.661-.56-.487-.385.177-.569.414-.754.767-.406.783-3.123.805-3.692.599-.753-.277-.7.334-.735.608.027 1.699-2.379 1.769-2.832 2.119-1.054.261-1.911.785-2.962.874-1.047.178-4.245.664-4.005-1.712.044-.472.436.856 1.732.609.486-.092 1.003-.173 1.436-.254.542-.096 1.922-.199 2.292-.85.103-.273.295-.915.129-1.258-.78-1.592-1.286-.772-1.845-1.502.421-.173.593-.317.981-.599.596-.487 1.297-.538 1.47-.944.105-.248.3-.469.977-.904.983-.702 5.017-1.503 8.369-3.854 1.574-1.105 2.51-.625 3.743-.351 3.131.693 6.91.542 12.568 2.975 1.363.702 2.909.688 3.466 2.591.54 1.877.695 7.069.592 10.778-.316 6.753-5.076 7.738-10.15 8.015-6.371.02-6.998-.838-9.047-1.029-.765-.075-.917-.99-.02-1.279zM41.189 46.782c0 .319-.14.558-.491.706-.836.273-3.218 1.15-4.024.133-.805-1.011.945-1.329 1.438-1.536.271-.118.627-.42 1.085-.387 1.783 0 1.992.77 1.992 1.084zm8.211.528c1.14-.406 1.568-.081 1.941.562.31.535-.79 1.539-1.277 2.078-.664.719-.842.556-1.314.364-1.54-1.502-.115-2.737.65-3.004zm3.78 5.479c-.511.768-.86.641-1.173.469-1.331-1.227.19-3.062.646-3.164.858-.2 1.174-.2 1.275.019.861 1.133.16 1.515-.748 2.676zm1.623.468c1.131.086 1.167.352 1.227.594.037.166-.845 2.734-1.398 2.556-.107-.029-1.081-.347-1.155-1.086-.109-1.08.821-2.064 1.326-2.064zM44.29 59.396c.013-.071.033-.17.227-.208 1.013-.14 1.59-.412 2.169-.542.755-.165 2.87-1.017 3.852-1.469 2.274-1.119 2.031-2.063 2.17-2.099.191-.018.008.892.138 1.013.305.285.846.779 1.436.845.666.066 0 1.427-.453 1.957-.806.946-2.858 1.294-5.218 2.695-1.471.871-5.112 1.12-4.321-2.192zm-4.767-4.866c.09-.211.198-.365.352-.365 2.502-.137 3.504.011 4.117.037 3.08.313 4.445-.867 5.11-1.739.63-.592.804-1.081 1.294-1.479.396-.317.824-1.001.562.052-.129.516-.547.838-.209 1.702.312.521.382.837 1.328 1.396.107.036.23.051.14.104-.279.234-.565 1.852-3.148 2.523-3.426.885-4.942 1.731-5.664 1.86a1.687 1.687 0 0 1-.477 0c-1.056-.052-1.44-.229-1.771-.498-.332-.267-2.086-1.75-1.634-3.593zm-4.284-6.137c.107-.17.351.033.388.313-.177 3.919 7.622 2.06 10.078.316.643-.457.679-.479 1.276-.737.698-.295-.085.458.51 1.579.453.857.787.949 1.311 1.152.528.215-.262.812-.614 1.189-.694.749-1.709 1.025-3.008 1.052-.882.019-2.624-.141-4.796-.033-1.263-.046-1.95.288-3.218-.178-2.583-.944-2.17-4.653-1.927-4.653zm-13.122-9.554c3.498-.141 3.461.172 3.991.07 1.921.033 6.366-.982 8.713-.521 2.87-.532 7.838.034 9.484-.111 1.399 0 4.552-.31 6.722 0-.598.248-2.873 1.961-6.41 2.869-1.223.281-2.202.841-3.182 2.175-2.468.402-6.063.571-6.229.225-.081-.167-.126-.358-.581-.263-.401.089-.191.193-.944.226-3.884.107-5.947.036-5.947.036-.861-.052-.574-.372-.879-.453-.27-.07-.068.214-.979.313-.476.052-1.712.23-5.164.178-3.044.066-3.749-4.54 1.405-4.744z"/></svg>