<svg xmlns="http://www.w3.org/2000/svg" viewBox="0 0 64 64"><path d="M53.7 27.7l-1.4-1.4 2.3-2.3-2.3-2.3 1.4-1.4 3.7 3.7z"/><path d="M55 17c-3.5 0-6.4 2.6-6.9 6H46v2h2.1c.5 3.4 3.4 6 6.9 6 3.9 0 7-3.1 7-7s-3.1-7-7-7zm0 12c-2.8 0-5-2.2-5-5s2.2-5 5-5 5 2.2 5 5-2.2 5-5 5zm-37-6h-2.1c-.5-3.4-3.4-6-6.9-6-3.9 0-7 3.1-7 7s3.1 7 7 7c3.5 0 6.4-2.6 6.9-6H18v-2zm-9 6c-2.8 0-5-2.2-5-5s2.2-5 5-5 5 2.2 5 5-2.2 5-5 5z"/><path d="M8 27.4l-2.7-2.7 1.4-1.4L8 24.6l3.3-3.3 1.4 1.4zm21.8-2.7l-1.6-1.4 6.5-7.3-6.5-7.3 1.6-1.4 7.5 8.7z"/><path d="M33.1 30l-.1-2c2.5-.2 4.8-1.1 6.7-2.7 5.1-4.2 5.8-11.8 1.6-16.9S29.5 2.6 24.4 6.8s-5.8 11.8-1.6 16.9L21.3 25c-4.9-6-4.1-14.8 1.9-19.7S38 1.2 42.9 7.2c2.4 2.9 3.5 6.5 3.1 10.2s-2.1 7.1-5 9.5c-2.3 1.8-5 2.9-7.9 3.1z"/><path d="M43 33H31v-6h-2v13h2v-5h3v5h2v-5h3v5h2v-5h2c.6 0 1 .4 1 1v13.8l-3 7V60H27v-2h11v-2H26.6L21 45.7V39c0-.6.4-1 1-1h1v-2h-1c-1.7 0-3 1.3-3 3v7.3l6 11V62h18v-4.8l3-7V36c0-1.7-1.3-3-3-3z"/><path d="M26 23c0-.6.4-1 1-1h1v-2h-1c-1.7 0-3 1.3-3 3v19h2V23zm12.8 31.6l-1.6-1.2 1.8-2.7V47h2v4.3z"/></svg>