<svg xmlns="http://www.w3.org/2000/svg" data-name="Layer 1" viewBox="0 0 24 24"><path d="M19.488 11.64l-4.576-1.892a.428.428 0 0 1-.265-.4V7H18.8a.6.6 0 0 0 0-1.2h-4.153v-.742a2.637 2.637 0 0 0-.778-1.881 2.684 2.684 0 0 0-2.518-.7A2.756 2.756 0 0 0 9.33 5.172V5.8H5.523l1.323-1.326A.6.6 0 0 0 6 3.625L3.654 5.968l-.007.011a.591.591 0 0 0 .027.856L6 9.132a.6.6 0 0 0 .843-.854L5.544 7H9.33v6.38l-1.522-1.526a2.71 2.71 0 0 0-3.869.1 2.759 2.759 0 0 0 .215 3.753l5.411 5.411a1.618 1.618 0 0 0 1.152.477H18.1a1.625 1.625 0 0 0 1.583-1.243l1.375-5.629a2.645 2.645 0 0 0-1.57-3.083zm.4 2.8l-1.375 5.63a.427.427 0 0 1-.417.327h-7.38a.425.425 0 0 1-.3-.125L5 14.863a1.577 1.577 0 0 1-.162-2.113 1.449 1.449 0 0 1 2.116-.05l2.552 2.55a.6.6 0 0 0 1.024-.424V5.172a1.546 1.546 0 0 1 1.1-1.529 1.466 1.466 0 0 1 1.391.388 1.44 1.44 0 0 1 .421 1.026v4.295a1.624 1.624 0 0 0 1.006 1.505l4.582 1.893a1.449 1.449 0 0 1 .859 1.693z"/></svg>