<svg xmlns="http://www.w3.org/2000/svg" viewBox="0 0 64 64"><path d="M11.7 26.3L9.4 24l2.3-2.3-1.4-1.4L6.6 24l3.7 3.7z"/><path d="M9 17c3.5 0 6.4 2.6 6.9 6H18v2h-2.1c-.5 3.4-3.4 6-6.9 6-3.9 0-7-3.1-7-7s3.1-7 7-7zm0 12c2.8 0 5-2.2 5-5s-2.2-5-5-5-5 2.2-5 5 2.2 5 5 5zm37-6h2.1c.5-3.4 3.4-6 6.9-6 3.9 0 7 3.1 7 7s-3.1 7-7 7c-3.5 0-6.4-2.6-6.9-6H46zm9 6c2.8 0 5-2.2 5-5s-2.2-5-5-5-5 2.2-5 5 2.2 5 5 5z"/><path d="M58.7 24.7l-1.4-1.4-1.3 1.3-3.3-3.3-1.4 1.4 4.7 4.7zm-22.9-1.4L29.3 16l6.5-7.3-1.6-1.4-7.5 8.7 7.5 8.7z"/><path d="M30.9 30l.1-2c-2.5-.2-4.8-1.1-6.7-2.7-5.1-4.2-5.8-11.8-1.6-16.9 4.2-5.1 11.8-5.8 16.9-1.6 5.1 4.2 5.8 11.8 1.6 16.9l1.5 1.3c4.9-6 4.1-14.8-1.9-19.7C34.8.4 26 1.2 21.1 7.2c-2.4 2.9-3.5 6.5-3.1 10.2.4 3.7 2.1 7.1 5 9.5 2.3 1.8 5 2.9 7.9 3.1z"/><path d="M21 33h12v-6h2v13h-2v-5h-3v5h-2v-5h-3v5h-2v-5h-2c-.6 0-1 .4-1 1v13.8l3 7V60h14v-2H26v-2h11.4L43 45.7V39c0-.6-.4-1-1-1h-1v-2h1c1.7 0 3 1.3 3 3v7.3l-6 11V62H21v-4.8l-3-7V36c0-1.7 1.3-3 3-3z"/><path d="M38 23c0-.6-.4-1-1-1h-1v-2h1c1.7 0 3 1.3 3 3v19h-2zM26.8 53.4L25 50.7V47h-2v4.3l2.2 3.3z"/></svg>