<svg xmlns="http://www.w3.org/2000/svg" viewBox="0 0 64 64"><path d="M46.958 15.57h8.527l-9.226 29.629H10.644L.084 15.57h15.37l8.888-9.007h15.167l-8.902 9.007h12.142L47.989 0h15.927v3.99H50.853zM25.177 8.562l-13.834 14.02 13.834 14.02h9.543L22.253 23.988l-1.39-1.406 1.39-1.406L34.72 8.562zm-1.502 14.021l15.834 16.02H24.341L8.534 22.583l4.946-5.013H2.92l9.135 25.629h32.733l7.98-25.629H28.63zM9.178 56.318a7.682 7.682 0 1 1 15.364 0 7.682 7.682 0 0 1-15.364 0zm13.365 0a5.689 5.689 0 0 0-5.682-5.682 5.689 5.689 0 0 0-5.682 5.682A5.689 5.689 0 0 0 16.861 62a5.689 5.689 0 0 0 5.682-5.682zm9.807 0a7.682 7.682 0 1 1 15.364 0 7.682 7.682 0 0 1-15.364 0zm13.365 0a5.689 5.689 0 0 0-5.682-5.682 5.689 5.689 0 0 0-5.682 5.682A5.689 5.689 0 0 0 40.033 62a5.689 5.689 0 0 0 5.682-5.682z"/></svg>