<svg xmlns="http://www.w3.org/2000/svg" viewBox="0 0 96 96"><path d="M73.308 46.144a5.894 5.894 0 0 0-1.622-2.507 5.978 5.978 0 0 0-2.145-1.262 6.03 6.03 0 0 0-1.859-.297h-.002a6.03 6.03 0 0 0-1.859.297 5.932 5.932 0 0 0-2.509 1.627c-.366.4-.68.847-.924 1.337a5.689 5.689 0 0 0-.335.805l-26.397 1.237-.249.013a32.315 32.315 0 0 1 1.62-9.531 32.042 32.042 0 0 1 2.852-6.271 32.556 32.556 0 0 1 2.291-3.369L40.696 29.7l-2.585 2.585-2.454 2.454-2.411 2.41-2.585 2.586-3.727 3.725-4.541 4.542 3.764 3.765 3.522 3.523 3.318 3.32 2.659 2.658 2.242 2.241 2.079 2.081 2.19 2.188a32.11 32.11 0 0 1-6.761-19.165l.249.009 26.396 1.239a5.955 5.955 0 0 0 1.625 2.51c.399.366.849.676 1.337.925.261.13.526.243.807.332a5.763 5.763 0 0 0 1.859.298h.002c.087 0 .172 0 .259-.005a5.763 5.763 0 0 0 1.6-.293 5.69 5.69 0 0 0 .808-.332 6.074 6.074 0 0 0 1.703-1.292c.365-.398.677-.85.925-1.337.13-.261.24-.528.333-.806a5.828 5.828 0 0 0 .291-2.12 5.775 5.775 0 0 0-.292-1.597zm-3.317 3.224a2.65 2.65 0 0 1-.942.945c-.216.13-.45.229-.7.29a2.608 2.608 0 0 1-.666.083h-.002c-.23 0-.453-.027-.666-.083a2.64 2.64 0 0 1-1.64-1.235 2.453 2.453 0 0 1-.29-.699 2.675 2.675 0 0 1 .29-2.033c.228-.388.552-.714.939-.941a2.66 2.66 0 0 1 1.367-.373h.002a2.653 2.653 0 0 1 1.366.373 2.662 2.662 0 0 1 1.233 1.643c.054.214.083.438.083.665 0 .23-.029.455-.085.666a2.492 2.492 0 0 1-.289.699z"/></svg>