<svg xmlns="http://www.w3.org/2000/svg" viewBox="0 0 100 100"><path d="M32.8 5H83v90H17V20.8zM22 90h56V10H35.8v14.8H22zm3.3-70.2h5.5v-5.9z"/><path d="M67.5 49.8c0-1.2-1-2.2-2.2-2.2H50.7s-.6-.3-.3-1.9c.2-.9 2.4-7-1.6-8.1-2-.4-.6 2.8-1.6 4.3s-5.5 7.6-5.5 7.9v11.6c0 .4.3.7.7.7h12.5c1.1 0 1.9-.9 1.9-1.9 0-.4-.1-.7-.3-1 .9-.2 1.6-1 1.6-1.9 0-.6-.3-1.2-.8-1.6 1-.1 1.8-.9 1.8-1.9 0-1.1-.9-1.9-1.9-1.9h8.1c1.3.1 2.2-.9 2.2-2.1zm-27.2.7v11.1c0 .4-.3.7-.7.7h-6.5c-.4 0-.7-.3-.7-.7V50.5c0-.4.3-.7.7-.7h6.5c.4 0 .7.3.7.7zm-3.1.8c0-.4-.3-.7-.7-.7-.4 0-.7.3-.7.7 0 .4.3.7.7.7.3 0 .7-.3.7-.7zm2 0c0-.4-.3-.7-.7-.7-.4 0-.7.3-.7.7 0 .4.3.7.7.7.4 0 .7-.3.7-.7z"/></svg>