<svg xmlns="http://www.w3.org/2000/svg" viewBox="0 0 32 32"><path d="M0 3.714A3.714 3.714 0 0 1 3.714 0a3.7 3.7 0 0 1 3.524 2.597h17.524C25.239 1.095 26.627 0 28.286 0A3.714 3.714 0 0 1 32 3.714a3.7 3.7 0 0 1-2.597 3.524v17.524A3.7 3.7 0 0 1 32 28.286a3.709 3.709 0 1 1-7.093 1.526H7.092A3.706 3.706 0 0 1 3.714 32a3.709 3.709 0 1 1-1.526-7.093V7.092A3.707 3.707 0 0 1 0 3.714zm3.188 20.911c.173-.025.346-.053.526-.053a3.714 3.714 0 0 1 3.714 3.714c0 .18-.028.352-.053.525h17.25c-.025-.173-.053-.345-.053-.525a3.714 3.714 0 0 1 3.714-3.714c.04 0 .077.01.117.012V7.416c-.04.001-.077.012-.117.012a3.714 3.714 0 0 1-3.714-3.714c0-.04.011-.077.012-.117H7.416c.001.04.012.077.012.117a3.714 3.714 0 0 1-3.714 3.714c-.18 0-.352-.028-.526-.053v17.25z"/><path d="M24.362 15.989l-7.48 7.479.01-6.468H7.638v-2h9.257l.01-6.468z"/></svg>