<svg xmlns="http://www.w3.org/2000/svg" viewBox="0 0 100 100"><path clip-rule="evenodd" d="M34.256 12.499c.84 2.385-.26 5.965.193 8.735 2.232.4 4.828-.464 6.988-.776 11.221.039 19.771 2.746 27.76 6.017 1.221 1.303 2.625 2.421 4.078 3.495 3.973 5.279 7.139 11.363 8.928 18.83.584 5.055 1.885 9.238 1.359 14.754.154.623.572.98.582 1.746-3.912 3.336-4.416 10.08-8.152 13.59-8.291 1.277-16.902-.09-25.041.775-2.699-.379-5.322.268-6.795-1.164-.768-9.891 2.041-21.965 0-30.674-1.316-2.176-3.123-3.867-5.047-5.436-1.869-.008-2.674-1.078-4.66-.969-1.605 5.018-.309 10.875-.193 15.92-3.191-1.6-5.242-4.338-8.154-6.213-2.727-2.062-5.67-3.906-8.539-5.826-1.291-1.879-3.412-2.932-4.855-4.656-.439-2.648-1.541-5.513-1.357-8.153 4.783-5.894 11.285-10.068 15.916-16.112 1.867-.529 2.639-2.152 3.885-3.301.891-.081 1.613-.326 2.135-.776.547-.159.502.274.969.194zM13.873 32.103c4.395 5.703 11.082 9.109 17.082 13.201.303-3.516.279-7.357.389-11.064.512-.2.654-.768 1.166-.973 4.496.096 9.375-.563 13.004.781 9.938 4.859 12.045 20.016 9.318 32.223 3.414.383 7.799-1.477 12.035-1.551 5.188.008 10.195-.16 14.754-.777-.676-13.174-4.422-24.955-11.064-32.807-6.09-6.208-17.328-7.264-28.146-8.737-2.201.322-4.539.51-6.795.776-1.105.125-1.285 1.176-2.523 1.163-.615-.984-.309-2.942-.582-4.075-.305-1.506.66-4.283-.584-4.854h-.389c-5.895 5.559-11.544 11.364-17.665 16.694zM52.697 67.63c-.199-7.848 1.334-17.001-1.359-23.49-2.723-4.525-5.125-9.369-12.229-9.513a16.241 16.241 0 0 1-4.66 0c-.229.095-.439.206-.582.388-.201.945.547 2.693 0 4.076 5.953 1.23 10.607 3.76 13.006 8.545.143.762.406 1.404.584 2.133.648 3.496-.227 6.623-.584 9.322-.684 5.176.145 10.877-1.164 16.693 2.34-2.707 4.68-5.414 6.988-8.154zM14.26 40.063c5.391 5.287 12.641 8.715 18.443 13.59-.264-1.611-.975-2.78-.971-4.662-5.518-5.221-13.125-8.357-18.248-13.977-.693 1.245.393 3.635.776 5.049zm40.183 28.149c-3.195 2.369-5.676 5.455-7.764 8.932 3.281 1.248 7.113.055 10.871 0 5.338-.08 10.824.328 16.887.191 2.631-2.803 3.729-7.143 5.631-10.676-7.459.237-18.416-.105-25.625 1.553z"/></svg>