<svg xmlns="http://www.w3.org/2000/svg" viewBox="0 0 100 100"><path d="M83.43 31.915l-.834-2.475c-.284-.824-.69-1.598-1.034-2.401l-.54-1.194c-.194-.391-.425-.762-.637-1.144-.439-.755-.857-1.526-1.32-2.268a41.347 41.347 0 0 0-6.863-7.958c-.668-.574-1.375-1.103-2.064-1.655-.35-.269-.689-.555-1.05-.809l-1.114-.72c-.752-.464-1.472-.991-2.258-1.4l-2.369-1.217c-.199-.099-.394-.206-.596-.298l-.619-.247-1.241-.492c-.829-.325-1.651-.677-2.518-.89l-2.578-.73c-.872-.187-1.755-.328-2.635-.489l-1.323-.231L50.5 5.19c-.893-.065-1.784-.143-2.684-.19l-2.757.07c-.919.04-1.831.205-2.749.309-7.308 1.117-14.259 4.868-19.208 10.531a32.7 32.7 0 0 0-5.838 9.631 33.512 33.512 0 0 0-2.258 11.132l5.739-6.702 4.31 6.702c-.146-5.325 1.558-10.705 4.914-15.011 3.347-4.308 8.289-7.379 13.72-8.539.685-.109 1.364-.288 2.058-.355l2.092-.175 2.166.038 1.088.017 1.077.133c.717.094 1.442.16 2.159.269l2.125.479c.721.125 1.402.383 2.094.61l1.039.342.521.17c.17.066.334.147.501.22l2.006.89c.671.296 1.281.708 1.928 1.053l.961.541c.312.193.603.419.907.626.597.429 1.217.832 1.803 1.279a35.489 35.489 0 0 1 6.156 6.376c.426.608.813 1.244 1.226 1.865.199.315.419.619.602.943l.513.993c.328.669.725 1.311 1.004 2.003l.835 2.085c.957 2.828 1.72 5.779 1.846 8.809.479 6.099-.656 12.345-2.908 18.119-2.393 5.722-5.968 11.048-10.665 15.255-3.324 3.104-7.211 5.581-11.394 7.448l2.134-10.393c-4.459 5.196-12.085 10.598-18.366 14.028 6.998 1.495 15.848 4.5 21.602 8.209l-5.403-10.09c4.686-1.704 9.131-4.152 13.001-7.376 5.203-4.163 9.358-9.614 12.296-15.671 2.796-6.122 4.432-12.857 4.292-19.711.04-3.457-.62-6.896-1.555-10.237z"/></svg>