<svg xmlns="http://www.w3.org/2000/svg" viewBox="0 0 100 100"><path fill="none" d="M100.333 0h-100v100h100z"/><path d="M30.103 51.162c.369 0 .738-.141 1.02-.422l29.554-29.553a1.442 1.442 0 0 0-2.039-2.039L29.084 48.701a1.442 1.442 0 0 0 1.019 2.461z"/><path d="M59.657 81.275a1.441 1.441 0 0 0 1.02-2.461L31.123 49.259a1.442 1.442 0 1 0-2.039 2.04l29.554 29.555c.281.281.65.421 1.019.421zM41.01 51.162c.369 0 .738-.141 1.02-.422l29.553-29.553a1.442 1.442 0 1 0-2.04-2.039L39.99 48.701a1.442 1.442 0 0 0 1.02 2.461z"/><path d="M70.562 81.275a1.442 1.442 0 0 0 1.021-2.461L42.029 49.259a1.442 1.442 0 1 0-2.039 2.04l29.553 29.555c.282.281.65.421 1.019.421zM54.099 51.289c.369 0 .738-.141 1.02-.422l16.134-16.133a1.442 1.442 0 1 0-2.04-2.039L53.08 48.827a1.442 1.442 0 0 0 1.019 2.462z"/><path d="M70.232 67.729a1.444 1.444 0 0 0 1.021-2.463L55.119 49.133a1.442 1.442 0 1 0-2.039 2.04l16.133 16.134a1.44 1.44 0 0 0 1.019.422z"/></svg>