<svg xmlns="http://www.w3.org/2000/svg" viewBox="0 0 100 100"><path d="M73.59 31.192H39.162c-10.371 0-18.809 8.438-18.809 18.809 0 10.369 8.438 18.807 18.809 18.807h15a6.064 6.064 0 0 0 6.058-6.059 6.018 6.018 0 0 0-.979-3.291 6.055 6.055 0 0 0 2.979-5.209 6.006 6.006 0 0 0-.979-3.289 6.06 6.06 0 0 0 2.979-5.209c0-.869-.188-1.693-.519-2.441h9.889a6.065 6.065 0 0 0 6.058-6.058 6.066 6.066 0 0 0-6.058-6.06zm0 8.5H47.412c-.998 0-1.809.811-1.809 1.809s.811 1.809 1.809 1.809h10.75c1.347 0 2.442 1.095 2.442 2.441s-1.096 2.441-2.442 2.441h-10.75c-.998 0-1.809.811-1.809 1.809s.811 1.809 1.809 1.809h8.75a2.443 2.443 0 0 1 2.442 2.439 2.445 2.445 0 0 1-2.442 2.443h-8.75a1.809 1.809 0 1 0 0 3.616h6.75a2.445 2.445 0 0 1 2.442 2.441 2.445 2.445 0 0 1-2.442 2.443h-15c-8.377 0-15.191-6.814-15.191-15.191S30.785 34.81 39.162 34.81H73.59c1.347 0 2.442 1.096 2.442 2.442s-1.095 2.44-2.442 2.44z"/></svg>