<svg xmlns="http://www.w3.org/2000/svg" viewBox="0 0 100 100"><path d="M25.2 77.8c2.3-3 3.6-6.8 3.6-10.6V50.1c-4.9-5.6-7.6-13.1-7-21.3 1.1-14 12.5-25.3 26.5-26.4 16.4-1.3 30.1 11 31.2 26.9v.7c0 2.6 1 6.7 2.2 9 1.3 2.4 2.6 4.8 3.7 6.5 1.1 1.7-.1 3.9-2.1 3.9h-3.8v13.9c0 2.8-2.3 5.1-5.1 5.1H63.9v5.3c0 3.6 1.4 7.1 4 9.6l8 8.1c2.3 2.4.7 6.4-2.6 6.4H18.2c-3.3 0-5.2-3.8-3.2-6.5zm25.4-29.1c9.6 0 17.4-7.8 17.4-17.4 0-9.6-7.8-17.4-17.4-17.4-9.6 0-17.4 7.8-17.4 17.4 0 9.6 7.8 17.4 17.4 17.4zm-9.9-17.4l.8.8 2.3 2.3 3.3 3.3 2.8 2.8 3.1-3.1-2.8-2.8-1.1-1.1h11.5v-4.4H49.2l3.8-3.9-3.1-3.1-6.4 6.5z"/></svg>