<svg xmlns="http://www.w3.org/2000/svg" viewBox="0 0 100 100"><path fill="none" d="M22.033 38.063c.359.056.558.009.553-.344-.23-.011-.419.039-.553.344z"/><path d="M93.103 76.362c-.704.139-1.409.274-2.118.385-2.554.4-4.989.293-7.273-1.198-1.824-1.19-3.478-2.495-4.705-4.319-1.531-2.275-2.521-4.813-3.656-7.283-.588-1.28-.845-2.649-1.126-4.02-.317-1.551-.622-3.108-1.097-4.625-.632-2.022-1.413-3.981-2.252-5.926-1.297-3.008-3.021-5.738-5.056-8.288a9.85 9.85 0 0 0-1.336-1.381c-1.904-1.614-3.936-3.052-5.982-4.476-1.521-1.058-3.103-2.017-4.77-2.806-1.464-.693-3.018-1.187-4.505-1.849-1.857-.826-3.914-.954-5.866-1.448-1.582-.401-3.161-.135-4.734-.334-.839-.106-1.724-.267-2.588-.128-2.32.374-4.683.249-7.004.612-.278.044-.596.171-.851-.13.025-.361.336-.464.58-.616 1.172-.73 2.468-1.217 3.575-2.099 1.327-1.058 2.038-2.249 1.72-3.972-.159-.862-.539-1.183-1.398-.999-.515.11-1 .309-1.447.62-.837.582-1.675 1.174-2.565 1.666-2.478 1.37-4.989 2.681-7.475 4.037-1.586.865-3.26 1.576-4.755 2.596-2.263 1.544-4.733 2.656-7.263 3.667-1.188.475-2.401.921-3.455 1.674-.323.23-.799.415-.683.937.108.486.545.565.973.632.489.076.977.065 1.469.065 1.425.002 2.877-.175 4.207.579.215.122.517.148.773.129 1.529-.113 2.977.479 4.491.502.326.005.658.161.97.288.321.13.644.249.987.219.369-.032.636.113.931.314.776.529 1.619 1.025 2.47 1.324.871.306 1.797.532 2.7.797 1.992.585 4.016 1.061 5.921 1.922.627.283 1.304.065 1.695-.476.404-.558.708-1.187.716-1.876.007-.585.14-1.117.338-1.651.146-.395.277-.816.025-1.203-.52-.797-1.07-1.579-2.063-1.849-.744-.203-1.367-.641-2.026-1.009-.212-.119-.496-.249-.276-.731.652 0 1.366-.023 2.077.006.868.036 1.77-.168 2.599.103 1.474.483 3.005.759 4.471 1.238 3.663 1.198 7.237 2.574 10.596 4.554 3.071 1.811 5.69 4.102 8.207 6.551 2.856 2.779 5.216 5.982 7.415 9.28 1.315 1.971 2.745 3.865 3.951 5.919 1.183 2.015 2.665 3.849 4.184 5.635 3.027 3.559 6.371 6.762 10.388 9.201.578.351 1.182.72 1.825.893 2.061.555 4.153.765 6.286.371.736-.136 1.472-.371 2.234-.306.697.059 1.145-.25 1.446-.832-.675-1.044-.808-1.1-1.895-.886zm-71.07-38.299c.134-.305.323-.355.553-.344.005.353-.194.401-.553.344z"/></svg>