<svg xmlns="http://www.w3.org/2000/svg" viewBox="0 0 100 100"><path d="M31.1 61.8L51.5 50 31.1 38.2z"/><path d="M50 5.8C25.6 5.8 5.8 25.6 5.8 50S25.6 94.3 50 94.3 94.3 74.4 94.3 50 74.4 5.8 50 5.8zM23.3 74c0 1.1-.9 2-2 2s-2-.9-2-2V26c0-1.1.9-2 2-2s2 .9 2 2v48zm33.2-22.3L30.1 67c-.3.2-.7.3-1 .3s-.7-.1-1-.3c-.6-.4-1-1-1-1.7V34.7c0-.7.4-1.4 1-1.7.6-.4 1.4-.4 2 0l26.5 15.3c.6.4 1 1 1 1.7s-.4 1.4-1.1 1.7zm31.2 0L61.2 67c-.3.2-.7.3-1 .3s-.7-.1-1-.3c-.6-.4-1-1-1-1.7V34.7c0-.7.4-1.4 1-1.7.6-.4 1.4-.4 2 0l26.5 15.3c.6.4 1 1 1 1.7s-.4 1.4-1 1.7z"/><path d="M62.2 61.8L82.7 50 62.2 38.2z"/></svg>