<svg xmlns="http://www.w3.org/2000/svg" viewBox="0 0 100 100"><path d="M23.964 53.986c-2.205 0-3.673 1.76-3.202 3.919 0 0-.328-1.176.039.144C24.318 70.71 35.928 80 49.709 80c16.568 0 30-13.431 30-30 0-16.569-13.432-30-30-30-13.805 0-25.432 9.324-28.927 22.018-.357 1.299-.02.078-.02.078-.437 2.164 1 3.919 3.202 3.919h25.078c.552 0 .684-.315.29-.708 0 0-3.243-3.233-4.422-4.394-3.809-3.795 1.848-9.431 5.62-5.674l12.154 12.21a3.548 3.548 0 0 1 .014 4.974L50.53 64.761c-3.77 3.757-9.428-1.88-5.657-5.637 1.213-1.194 4.458-4.428 4.458-4.428.393-.392.264-.71-.288-.71H23.964z"/></svg>