<svg xmlns="http://www.w3.org/2000/svg" viewBox="0 0 50 50"><path d="M41.8 24.2c2.3-.8 4.2-2.2 3.5-4.5-1.3-4.3-6.4-.9-9.2 1.5-1.5-3.5-4.8-6.2-8.9-6.7-8.1-1-17 6.7-22.9 11.3-.1.1-.2.2 0 .3 4.6 3.7 10.5 8.6 16.6 10.3.1.1.3.2.6.2 1 .2 1.9.4 2.9.5h.2c4.4-.3 8.6-2.2 10.9-5.9 1.8 2.8 5.1 7 8 4.5 1.9-1.6 1-3.5-.7-5.2 1.3-.1 2.4-.6 3-2.1 1-2.6-1.3-3.7-4-4.2zm1.4-3.4c.2 2.5-3.6 3.1-5.9 3.2h-.4c-.1-.4-.2-.9-.3-1.3 1.5-1.5 6.3-5.9 6.6-1.9zM25.7 36.3c-1-.1-1.9-.3-2.9-.5v-4c0-.9-2.2-.5-2.2.3V35c-.5-.2-1-.4-1.4-.7 0-.1.1-.1.1-.2v-3.3c0-.7-2.2-.3-2.2.6v1.7c-2.2-1.4-4.3-2.9-6.2-4.2-.7-.5-4.2-2.4-4.3-3.2 0-.1.8-.7 1.5-1.3 3-2.3 7.2-5.7 11.5-7.6v4.8c0 .5 2.2.1 2.2-.6v-5c1.7-.5 3.5-.7 5.1-.3 10.6 2.4 10.8 19.7-1.2 20.6zm14.9-2.2c-.7-.6-1.3-1.4-1.9-2.2-.7-.9-1.4-1.9-2-3 0 0 0-.1-.1-.1 0-.1.1-.2.1-.4.6.4 1.4.7 2.1 1.1 1.9 1.3 3.7 2.9 3.5 4.7-.2 1.5-.9.6-1.7-.1zm-1.2-6.2c-.9-.6-1.8-1-2.4-1.3 0-.5.1-1 0-1.4 2.4-.1 6 0 6.7 2.2.8 2.6-2 1.7-4.3.5z"/></svg>