<svg xmlns="http://www.w3.org/2000/svg" viewBox="0 0 64 64"><path d="M44.816 53.008l-10.83-10.992v4.717H19.184v12.549h14.801V64l10.831-10.992zm-23.632 4.275v-8.549h14.801v-1.838l6.022 6.112-6.022 6.112v-1.838H21.184zM13.644 0L9.086 6.905v6.923c0 2.759 1.75 5.114 4.199 6.036v16.862h-3.178v2h43.8v-2h-3.192V19.864c2.449-.922 4.199-3.276 4.199-6.036V6.901L50.304 0h-36.66zm22.877 36.726h-9.043V26.057h9.043v10.669zm12.194 0H38.521V24.057H25.479v12.669H15.285V20.27c.093.004.185.014.279.014a6.481 6.481 0 0 0 5.479-3.026c1.148 1.814 3.172 3.026 5.479 3.026s4.33-1.212 5.479-3.026c1.148 1.814 3.172 3.026 5.479 3.026s4.33-1.212 5.479-3.026a6.48 6.48 0 0 0 5.479 3.026c.094 0 .186-.01.279-.014v16.456zm4.199-22.898c0 2.457-2.009 4.456-4.479 4.456s-4.479-1.999-4.479-4.456h-2c0 2.457-2.009 4.456-4.479 4.456S33 16.285 33 13.828h-2c0 2.457-2.009 4.456-4.479 4.456s-4.479-1.999-4.479-4.456h-2c0 2.457-2.009 4.456-4.479 4.456s-4.479-1.999-4.479-4.456V8.395h41.828v5.433zM11.818 6.395L14.72 2h34.516l2.935 4.396H11.818z"/></svg>