<svg xmlns="http://www.w3.org/2000/svg" viewBox="0 0 100 100"><path d="M41.707 58.551c-4.523-1.508-4.523-7.539 3.016-6.031 9.047 3.016 21.109 1.508 19.601 7.539-1.508 4.523-4.523 3.016-6.031 3.016-6.031-1.508-6.031-1.508-16.586-4.524zm10.555-27.139h30.155c6.031 0 10.554 0 10.554 4.523s-4.523 4.523-10.554 4.523H58.293l-6.031-9.046zM59.8 52.52c-10.554-1.508-15.078-1.508-18.093-3.016-3.016-1.508-3.016-4.523 0-6.031 6.031 9.047 18.093 7.539 16.585 0 4.523 0 9.047 0 9.047 4.523 0 6.032-4.523 4.524-7.539 4.524z"/><path d="M16.075 32.919c6.031-1.508 7.539-4.523 15.078-4.523 10.554 0 15.078 0 19.601 6.031 3.016 4.523 7.539 9.047 4.523 12.062-4.523 3.016-12.062-3.016-13.57-7.539H40.2c-3.016 3.016-9.047 7.539-19.601 4.523v3.016c10.554 1.508 13.57 0 19.601-4.523 0 0-6.031 4.523 0 9.047-4.523 0-4.523 6.031-1.508 7.539-4.523 3.016-4.523 9.047 7.539 12.062-4.523 0-7.539-1.508-13.57-3.016-9.047-1.508-13.57-3.016-16.585-4.523-4.523-3.016-6.031-3.016-9.047-3.016V34.427c3.015 0 4.523 0 9.046-1.508z"/><path d="M38.692 63.075c1.508-4.523 4.523-1.508 10.554 0 4.523 1.508 10.554 1.508 9.047 6.031-1.508 3.016-4.523 3.016-7.539 1.508s-13.57-4.524-12.062-7.539z"/></svg>