<svg xmlns="http://www.w3.org/2000/svg" viewBox="0 0 96 96"><path d="M50.928 41.999a18.03 18.03 0 0 1 9.571-10.387 17.889 17.889 0 0 0-7.354-1.585l-11.97 11.971H37.41c1.928-9.175 8.191-16.741 16.542-20.496a28.93 28.93 0 0 0-11.893-2.563h-.002l.002.001L13 48l29.06 29.058-.002.002h.002c4.241 0 8.258-.93 11.893-2.563-8.351-3.754-14.614-11.318-16.542-20.494h3.766l11.97 11.97c2.623 0 5.108-.573 7.354-1.585a18.015 18.015 0 0 1-9.571-10.385h31.445C82.779 52.065 83 50.059 83 48a29.22 29.22 0 0 0-.627-6.001H50.928z"/></svg>