<svg xmlns="http://www.w3.org/2000/svg" viewBox="0 0 100 39.182"><path d="M99.841 12.875c-.432 1.345-1.872 2.949-6.273 2.949-2.869 0-8.894-.207-17.925-.613 1.576 1.176 2.67 2.217 3.255 3.111.84 1.281-.233 3.277-3.579 6.602.803.695 1.565 1.712 1.89 2.792.34 1.143.163 2.201-.515 3.064-.36.458-1.074 1.366-10.45 2.013a247.855 247.855 0 0 1-6.07 4.681l-.182.137a2.125 2.125 0 0 1-1.289.439c-1.432 0-2.677-1.408-3.308-2.615a5.612 5.612 0 0 1-.16-.337c-1.224.771-2.385 1.438-3.297 1.53-.058.006-.115.01-.176.01-1.4 0-2.959-1.633-3.786-3.315a190.02 190.02 0 0 0-2.154-.015c-1.339 0-2.288.021-2.824.062-.509.04-1.362.231-2.35.451-1.78.399-3.997.893-5.924.893-.74 0-1.375-.07-1.938-.216-3.372-.884-5.372-1.653-5.885-1.859l-.39-.033c-.865 1.692-4.114 6.576-12.814 6.576-2.42 0-5.098-.391-7.96-1.158l-.129-.045C3.261 36.932-.152 27.587.005 20.897.181 13.472 3.137 6.499 5.017 5.144c2.435-1.754 5.335-1.855 8.408-1.962a83.345 83.345 0 0 0 1.837-.078c.188-.011.38-.016.58-.016 3.71 0 9.756 2.076 10.858 7.587.151-.004.235-.014.275-.019.58-.111 3.515-1.79 6.102-3.271C40.14 3.344 46.194 0 48.79 0c2.214 0 14.877 2.096 25.99 4.059 6.897 1.218 23.03 4.117 23.893 4.733.842.599 1.693 2.445 1.17 4.083zM6.731 36.491c.768.194 1.522.361 2.26.497l-5.788-6.902c.45 1.423.951 2.698 1.431 3.727zm3.984.762c.621.079 1.23.132 1.821.166L1.862 23.811c.127 1.226.342 2.444.612 3.618zm11.93-2.846l.12.121c.155-.136.306-.27.444-.405l-.09-.09a5.041 5.041 0 0 1-.475.374zm-2.013.851l.45.449c.268-.153.522-.313.76-.473l-.258-.258c-.292.117-.61.21-.952.282zm-2.81-.002l1.113 1.406c.374-.128.728-.265 1.062-.411l-.858-.861a8.237 8.237 0 0 1-1.318-.134zm6.761-2.772l-.24-.021a5.067 5.067 0 0 1-.445.722l.1.097a9.98 9.98 0 0 0 .585-.798zm-11.89-1.119l-.014-.002-.168-.33a12.827 12.827 0 0 1-.304-.622 13.784 13.784 0 0 1-.28-.682 13.98 13.98 0 0 1-.21-.585l-.013-.036c-.693-2.105-.967-4.504-.906-6.895l.003-.094c.006-.196.013-.396.021-.591.005-.076.011-.148.015-.225l.03-.449c.008-.122.021-.241.03-.361.008-.102.02-.201.028-.303a19.946 19.946 0 0 1 .074-.649c.025-.212.055-.42.087-.63 0-.003 0-.005.002-.009.441-2.963 1.357-5.706 2.587-7.608l.045-.064a9.035 9.035 0 0 1 .54-.746c.235-.29.475-.558.717-.811l.157-.17.01.003c1.456-1.444 3.035-2.177 4.7-2.177 1.89 0 3.535.989 4.615 2.067-1.654-3.3-5.884-4.583-8.617-4.583-.164 0-.325.004-.48.013-.634.036-1.264.058-1.877.08-2.802.098-5.45.189-7.458 1.636-1.034.745-4.117 6.853-4.296 14.391-.006.281-.004.566 0 .851l12.292 15.664c.461-.009.905-.029 1.334-.065L7.377 27.01l.914-.702 8.393 10.91c.366-.062.716-.132 1.053-.211l-1.956-2.477c-1.242-.676-2.28-1.74-3.088-3.165zm41.901 2.094c.095-.062.18-.115.26-.165-1.737.045-3.054.066-3.65.074h-.084l-.264.004-.029-.002-.844-.017c.674.988 1.482 1.557 1.782 1.557.66-.065 2.127-1.001 2.83-1.451zm8.633-.483a9.458 9.458 0 0 1-.346.021 282.39 282.39 0 0 1-6.232.249l.036.064a.874.874 0 0 1 .018.788c.124.603 1.22 2.226 2.003 2.226.06 0 .142-.011.254-.094l.184-.139c.61-.457 2.15-1.605 4.083-3.115zm9.16-17.913c-2.155-.102-4.224-.2-6.075-.29l-5.625 5.624c.665.394 1.198.7 1.48.84a.917.917 0 0 0 .084.036l4.763-4.761.812.814-4.318 4.318c.556.145 1.235.309 1.961.48l3.972-3.973.814.812-3.464 3.467c.927.212 1.865.42 2.675.603.293.063.573.127.84.188.054.014.104.023.158.036l.191.043c.08.018.157.034.236.054l.107.023c.088.021.176.038.26.059l.066.015.267.062.03.005c.378.088.72.166 1.016.236a.59.59 0 0 1 .045.013l.157.037.08.019c.048.013.093.022.14.034.025.007.053.015.08.021.04.01.08.021.118.028.026.01.054.015.08.022l.104.026a.849.849 0 0 1 .072.02c.032.008.064.017.093.022a.774.774 0 0 0 .07.021c.024.008.051.014.076.021a.01.01 0 0 1 .005.002c3.707-3.621 3.701-4.671 3.686-4.789-.694-1.046-2.485-2.529-5.057-4.188zm-17.123 1.435l1.99-1.989c-1.137.346-1.71 1.276-1.99 1.989zm.656.969c.375.237.792.498 1.23.769l3.735-3.733-1.9-.099zm2.234 1.393c.513.315 1.028.631 1.514.926l5.091-5.09-2.324-.115zm39.562-8.626c-2.358-.796-44.44-8.509-48.926-8.509-2.346 0-9.87 4.306-14.852 7.154-3.95 2.263-5.888 3.355-6.698 3.479-.406.064-1.104.057-2.199-.018l-.752.017-.026-.075c-2.438-.199-5.825-.611-8.462-.953-.069.081-.135.16-.199.24-2.61 3.215-3.934 11.081-2.397 16.507v-1.708h1.15v3.411l1.728.153v-5.024h1.15v5.128l1.726.155V23.45h1.15v6.845l1.727.152v-8.839h1.15v8.943l1.726.153v-10.09h1.15V30.81l1.458.131.124.053c.002.002.055.022.146.058V20.616h1.15v10.858a45.96 45.96 0 0 0 1.726.565v-10.14h1.15v10.484c.496.142 1.03.289 1.61.44.037.01.078.019.114.024v-9.955h1.152V32.98c.077.004.151.006.232.006.504 0 1.042-.043 1.59-.108v-8.39h1.15v8.223c.585-.1 1.167-.218 1.728-.339v-6.577h1.15v6.326a42.64 42.64 0 0 1 1.727-.363v-5.964h1.15v5.833a45.014 45.014 0 0 1 1.726-.041v-4.929h1.15v4.925c.388.001.78.004 1.166.008l-.002-.006.562.01v-4.361h1.151v4.378a127.343 127.343 0 0 1 1.151.021l.575.011V27.81h1.152v3.822l1.726-.034v-3.213h1.15v3.186l1.726-.046v-2.997h1.15v2.959c.557-.019 1.137-.038 1.727-.062v-2.608h1.15v2.563c.568-.023 1.145-.053 1.726-.078v-1.765h1.15v1.706c.578-.033 1.153-.067 1.726-.103v-2.038h1.151v1.962l.554-.038c.402-.028.79-.06 1.171-.091v-1.4h1.15v1.299a109.69 109.69 0 0 0 1.727-.178v-1.699h1.15v1.556a29.07 29.07 0 0 0 1.726-.28v-.916h1.151v.617c.22-.077.387-.156.483-.237.314-.409.38-.896.204-1.485-.337-1.121-1.39-2.117-1.974-2.407a.331.331 0 0 0-.063-.028.579.579 0 0 0-.077-.03c-.478-.161-2.36-.583-4.353-1.027-4.176-.935-6.967-1.572-7.697-1.938-1.234-.616-6.479-3.88-7.717-4.704l-.384-.259v-.46c0-.282.087-.757.288-1.299v-4.456h1.15v2.543a4.504 4.504 0 0 1 1.726-1.189V10.45h1.15v2.226a5.37 5.37 0 0 1 1.073-.016l.653.033V9.302h1.15v3.45c.492.024 1.072.055 1.727.088V8.723h1.15v4.174l.171.008.212.012.35.018c.064.002.128.006.196.01l.271.014.352.018.174.009V9.014h1.151v4.027l.111.006.276.013c.087.006.174.008.261.014.157.008.317.017.477.022l.02.001c.192.01.385.02.581.028V9.877h1.15v3.303l1.726.082V10.74h1.153v2.576l.707.033.232.011c.132.005.266.013.398.019.131.005.262.011.392.018V11.46h1.151v1.989l1.726.078V11.46h1.15v2.119c.588.023 1.165.051 1.726.074v-1.186h1.151V13.7l1.726.07v-1.449h1.151v1.494c.597.021 1.174.044 1.725.064v-1.703h1.152v1.745c.603.022 1.18.042 1.725.058v-1.802h1.152v1.837c.62.019 1.196.033 1.726.046v-1.235h1.16v1.259c.546.008 1.03.013 1.437.013 2.614 0 4.256-.617 4.625-1.738.287-.876-.216-1.863-.478-2.125z"/></svg>