<svg xmlns="http://www.w3.org/2000/svg" viewBox="0 0 90 18.669"><switch><g><path d="M87.666 7.001c-.898 0-1.669.513-2.059 1.257h-2.146c-.478-1.805-2.105-3.142-4.061-3.142s-3.584 1.337-4.063 3.142h-2.381a5.697 5.697 0 0 0-11.188 0h-2.561C58.674 3.61 54.732 0 49.941 0c-4.789 0-8.732 3.61-9.268 8.258h-1.846l-5.143-5.144L0 9.335l33.686 6.22 5.142-5.143h1.847c.535 4.647 4.479 8.257 9.268 8.257 4.791 0 8.732-3.609 9.268-8.257h2.561a5.698 5.698 0 0 0 11.188 0h2.381c.479 1.805 2.107 3.141 4.063 3.141s3.583-1.336 4.061-3.141h2.146a2.325 2.325 0 0 0 2.059 1.256 2.334 2.334 0 0 0 2.334-2.333 2.34 2.34 0 0 0-2.338-2.334zm-37.725 8.976c-3.301 0-6.031-2.41-6.547-5.564a6.486 6.486 0 0 1-.096-1.077c0-.367.037-.726.096-1.077.516-3.155 3.246-5.564 6.547-5.564s6.031 2.409 6.547 5.564c.059.352.096.71.096 1.077 0 .368-.037.726-.096 1.077a6.638 6.638 0 0 1-6.547 5.564zm17.422-2.962c-1.656 0-3.039-1.101-3.502-2.604a4.307 4.307 0 0 1-.118-.483 3.723 3.723 0 0 1-.06-.592c0-.202.028-.397.06-.591.03-.165.07-.327.119-.486.462-1.503 1.845-2.603 3.501-2.603s3.039 1.1 3.501 2.603c.049.158.089.321.119.486.031.193.06.389.06.591 0 .203-.028.397-.06.592-.03.164-.07.326-.118.484-.463 1.502-1.845 2.603-3.502 2.603zm12.037-.808a2.87 2.87 0 0 1-2.673-1.836 2.856 2.856 0 0 1-.201-1.037 2.846 2.846 0 0 1 .205-1.05 2.869 2.869 0 0 1 2.668-1.822c1.205 0 2.232.743 2.658 1.795a2.92 2.92 0 0 1 .213 1.078 2.854 2.854 0 0 1-.21 1.069 2.866 2.866 0 0 1-2.66 1.803z"/></g></switch></svg>