<svg xmlns="http://www.w3.org/2000/svg" viewBox="0 0 64 64"><path d="M19.184 53.008l10.83-10.992v4.717h14.802v12.549H30.015V64zm23.632 4.275v-8.549H28.015v-1.838l-6.022 6.112 6.022 6.112v-1.838h14.801zM50.356 0l4.558 6.905v6.923c0 2.759-1.75 5.114-4.199 6.036v16.862h3.178v2h-43.8v-2h3.192V19.864c-2.449-.922-4.199-3.276-4.199-6.036V6.901L13.696 0zM27.479 36.726h9.043V26.057h-9.043zm-12.194 0h10.194V24.057h13.042v12.669h10.194V20.27c-.093.004-.185.014-.279.014a6.481 6.481 0 0 1-5.479-3.026 6.48 6.48 0 0 1-5.479 3.026 6.481 6.481 0 0 1-5.479-3.026 6.48 6.48 0 0 1-5.479 3.026 6.481 6.481 0 0 1-5.479-3.026 6.48 6.48 0 0 1-5.479 3.026c-.094 0-.186-.01-.279-.014v16.456zm-4.199-22.898c0 2.457 2.009 4.456 4.479 4.456s4.479-1.999 4.479-4.456h2c0 2.457 2.009 4.456 4.479 4.456S31 16.285 31 13.828h2c0 2.457 2.009 4.456 4.479 4.456s4.479-1.999 4.479-4.456h2c0 2.457 2.009 4.456 4.479 4.456s4.479-1.999 4.479-4.456V8.395H11.088v5.433zm41.096-7.433L49.28 2H14.764l-2.935 4.396h40.353z"/></svg>