<svg xmlns="http://www.w3.org/2000/svg" viewBox="0 0 100 100"><path d="M13.923 48.612c-.001 20.3 16.455 36.756 36.755 36.756s36.756-16.456 36.756-36.756-16.456-36.756-36.756-36.756-36.755 16.456-36.755 36.756zm73.011 0c0 19.991-16.265 36.256-36.256 36.256S14.422 68.604 14.423 48.612c0-19.991 16.264-36.256 36.255-36.256s36.256 16.265 36.256 36.256z"/><path d="M14.923 48.612c-.001 19.716 16.039 35.756 35.755 35.756s35.756-16.04 35.756-35.756-16.04-35.756-35.756-35.756-35.755 16.04-35.755 35.756zm61.04.06l-25.634 17.97-.052-10.177H25.393l.001-15.704h24.92l-.036-10.18 25.685 18.091z"/><path d="M26.131 40.761h.781v15.704h-.781zm1.471 0h.781v15.704h-.781zm1.519 0h.781v15.704h-.781z"/></svg>