<svg xmlns="http://www.w3.org/2000/svg" viewBox="0 0 100 100"><path d="M94.886 52.282l-2.563-1.444c-.539-.304-1.151-.768-1.762-1.002.394-.178.766-.432 1.136-.641l3.13-1.764c.091-.051.255-.24.071-.302-1.475-.499-3.044-.782-4.568-1.075-3.664-.704-7.378-1.293-11.112-1.42-3.187-.109-12.823-.273-12.252 4.988H22.41v-4.97L5 50.026 22.411 55.4v-5.183h44.565c-.757 5.437 9.003 5.193 12.244 5.07a55.36 55.36 0 0 0 5.203-.469l.02-.002c1.918-.257 3.828-.586 5.724-.951 1.5-.288 3.044-.562 4.496-1.052.172-.06.516-.366.223-.531z"/></svg>