<svg xmlns="http://www.w3.org/2000/svg" viewBox="0 0 100 100"><path d="M63.107 69.52a.75.75 0 0 0-.529 1.282l7.799 7.781a.75.75 0 1 0 1.06-1.06L64.92 71.02h13.787a.75.75 0 1 0 0-1.5h-15.6z"/><path d="M70.893 61.732a.75.75 0 0 0-.516.226l-7.799 7.781a.75.75 0 1 0 1.059 1.063l7.8-7.783a.75.75 0 0 0-.544-1.287z"/><path d="M70.908 49.177c-11.64 0-21.09 9.453-21.09 21.094 0 11.64 9.45 21.093 21.09 21.093S92 81.911 92 70.271s-9.452-21.094-21.092-21.094zm0 1.5c10.829 0 19.592 8.764 19.592 19.594 0 10.83-8.763 19.593-19.592 19.593-10.828 0-19.59-8.764-19.59-19.593 0-10.83 8.762-19.594 19.59-19.594z"/><path d="M40.697 8.644a31.97 31.97 0 0 0-23.885 9.927c-10.2 10.72-11.714 27.052-3.658 39.465 8.056 12.414 23.585 17.68 37.53 12.729a.75.75 0 1 0-.502-1.414c-13.298 4.722-28.088-.293-35.77-12.131C6.73 45.382 8.172 29.828 17.9 19.605 27.628 9.38 43.088 7.17 55.291 14.259c12.203 7.087 17.944 21.612 13.887 35.129a.75.75 0 0 0 1.437.431c4.255-14.173-1.774-29.425-14.57-36.857a31.901 31.901 0 0 0-15.348-4.318z"/><path d="M32.667 29.46a5.308 5.309 0 0 1-5.308 5.31 5.308 5.309 0 0 1-5.309-5.31 5.308 5.309 0 0 1 5.309-5.308 5.308 5.309 0 0 1 5.308 5.309zm25.251 0a5.308 5.309 0 0 1-5.308 5.31 5.308 5.309 0 0 1-5.308-5.31 5.308 5.309 0 0 1 5.308-5.308 5.308 5.309 0 0 1 5.308 5.309zM22.5 46.206a.75.75 0 0 0-.684 1.094 20.128 20.128 0 0 0 18.006 11.154c7.63 0 14.61-4.311 18.018-11.138a.75.75 0 1 0-1.342-.67 18.622 18.622 0 0 1-16.674 10.308c-7.064 0-13.515-4-16.664-10.324a.75.75 0 0 0-.66-.424z"/></svg>