<svg xmlns="http://www.w3.org/2000/svg" viewBox="0 0 96 96"><path d="M55.99 60.019H40.009l.006 9.724-10.275-.003L48 88l18.259-18.26-10.273.002.004-9.723zm3.391 12.571L48 83.972 36.619 72.59l6.246.001-.006-9.724H53.14l-.006 9.724 6.247-.001zM35.983 55.994V40.011l-9.724.003.001-10.274L8.001 48 26.26 66.26l-.002-10.278zM87.999 48L69.74 29.74l.002 10.273-9.725-.003v15.984l9.725-.013-.001 10.276L87.999 48zm-25.133 5.143V42.859l9.724.003v-6.243L83.971 48l-11.38 11.38.001-6.25-9.726.013zM40.005 35.982h15.99l-.012-9.725h10.274L48 8 29.742 26.258h10.274l-.011 9.724zM36.62 23.408L48 12.028l11.38 11.38h-6.249l.012 9.725H42.857l.013-9.725h-6.25z"/></svg>