<svg xmlns="http://www.w3.org/2000/svg" viewBox="0 0 100 39.182"><path d="M.161 12.875c.432 1.345 1.872 2.949 6.273 2.949 2.869 0 8.894-.207 17.925-.613-1.576 1.176-2.669 2.217-3.255 3.111-.84 1.281.233 3.277 3.579 6.602-.803.695-1.565 1.712-1.889 2.792-.341 1.143-.164 2.201.514 3.064.361.458 1.074 1.366 10.45 2.013a247.855 247.855 0 0 0 6.07 4.681l.182.137c.389.289.822.439 1.289.439 1.432 0 2.677-1.408 3.308-2.615.06-.116.114-.229.161-.337 1.223.771 2.384 1.438 3.296 1.53.058.006.115.01.176.01 1.4 0 2.959-1.633 3.786-3.315a190.02 190.02 0 0 1 2.154-.015c1.339 0 2.288.021 2.824.062.509.04 1.362.231 2.35.451 1.781.399 3.997.893 5.924.893.741 0 1.375-.07 1.938-.216 3.372-.884 5.372-1.653 5.885-1.859l.39-.033c.865 1.692 4.114 6.576 12.814 6.576 2.42 0 5.098-.391 7.961-1.158l.128-.045c2.347-1.047 5.761-10.392 5.603-17.082-.176-7.425-3.132-14.398-5.012-15.753-2.435-1.754-5.335-1.855-8.408-1.962a83.345 83.345 0 0 1-1.837-.078 9.897 9.897 0 0 0-.579-.016c-3.711 0-9.757 2.076-10.859 7.587a2.665 2.665 0 0 1-.275-.019c-.58-.111-3.515-1.79-6.102-3.271C59.862 3.344 53.808 0 51.213 0c-2.214 0-14.877 2.096-25.989 4.059C18.326 5.277 2.194 8.176 1.33 8.792c-.842.599-1.693 2.445-1.169 4.083zm93.111 23.616c-.769.194-1.523.361-2.261.497l5.788-6.902a31.284 31.284 0 0 1-1.431 3.727l-2.096 2.678zm-3.985.762c-.621.079-1.229.132-1.821.166L98.14 23.811a30.014 30.014 0 0 1-.612 3.618l-8.241 9.824zm-11.929-2.846l-.121.121c-.155-.136-.306-.27-.444-.405l.091-.09c.147.129.302.256.474.374zm2.012.851l-.449.449a11.689 11.689 0 0 1-.76-.473l.257-.258c.292.117.61.21.952.282zm2.811-.002l-1.114 1.406a13.844 13.844 0 0 1-1.062-.411l.858-.861a8.237 8.237 0 0 0 1.318-.134zm-6.762-2.772l.24-.021c.117.233.265.477.445.722l-.099.097a9.98 9.98 0 0 1-.586-.798zm11.89-1.119l.014-.002.168-.33c.106-.201.206-.409.304-.622a13.784 13.784 0 0 0 .28-.682c.074-.192.145-.388.211-.585l.012-.036c.693-2.105.967-4.504.906-6.895l-.003-.094a57.306 57.306 0 0 0-.021-.591c-.005-.076-.011-.148-.015-.225-.009-.15-.02-.3-.03-.449-.008-.122-.021-.241-.029-.361l-.029-.303a19.946 19.946 0 0 0-.074-.649c-.025-.212-.055-.42-.087-.63 0-.003 0-.005-.002-.009-.441-2.963-1.357-5.706-2.587-7.608a6.137 6.137 0 0 0-.045-.064 9.035 9.035 0 0 0-.539-.746c-.236-.29-.476-.558-.718-.811l-.157-.17-.009.003c-1.457-1.444-3.036-2.177-4.701-2.177-1.89 0-3.535.989-4.615 2.067 1.654-3.3 5.884-4.583 8.617-4.583.164 0 .325.004.481.013.633.036 1.263.058 1.876.08 2.802.098 5.45.189 7.458 1.636 1.034.745 4.117 6.853 4.296 14.391.006.281.004.566 0 .851L85.979 37.448a20.844 20.844 0 0 1-1.334-.065l7.98-10.373-.914-.702-8.393 10.91a17.187 17.187 0 0 1-1.053-.211l1.956-2.477c1.242-.676 2.281-1.74 3.088-3.165zm-41.901 2.094c-.095-.062-.18-.115-.26-.165 1.737.045 3.054.066 3.65.074h.085l.264.004.029-.002.844-.017c-.674.988-1.482 1.557-1.782 1.557-.659-.065-2.127-1.001-2.83-1.451zm-8.633-.483c.114.009.228.016.346.021 2.184.113 4.351.194 6.232.249l-.036.064a.874.874 0 0 0-.018.788c-.124.603-1.22 2.226-2.003 2.226a.402.402 0 0 1-.254-.094l-.184-.139c-.609-.457-2.149-1.605-4.083-3.115zm-9.159-17.913c2.154-.102 4.223-.2 6.074-.29l5.625 5.624c-.665.394-1.198.7-1.479.84a1.092 1.092 0 0 1-.085.036l-4.763-4.761-.812.814 4.318 4.318c-.556.145-1.235.309-1.961.48l-3.972-3.973-.814.812 3.464 3.467c-.927.212-1.865.42-2.675.603-.293.063-.573.127-.84.188-.054.014-.104.023-.158.036l-.191.043c-.08.018-.157.034-.236.054l-.107.023c-.088.021-.176.038-.26.059l-.066.015-.267.062-.03.005-1.016.236a.59.59 0 0 0-.045.013l-.157.037a1.518 1.518 0 0 1-.08.019c-.048.013-.093.022-.139.034l-.081.021c-.039.01-.079.021-.118.028-.026.01-.054.015-.079.022l-.105.026a.849.849 0 0 0-.072.02c-.032.008-.064.017-.093.022a.774.774 0 0 1-.07.021c-.024.008-.051.014-.076.021a.01.01 0 0 0-.005.002c-3.707-3.621-3.701-4.671-3.686-4.789.694-1.046 2.485-2.529 5.057-4.188zm17.122 1.435l-1.989-1.989c1.136.346 1.709 1.276 1.989 1.989zm-.656.969c-.375.237-.792.498-1.23.769l-3.735-3.733 1.9-.099 3.065 3.063zm-2.234 1.393c-.513.315-1.028.631-1.514.926l-5.091-5.09 2.324-.115 4.281 4.279zM2.286 10.234c2.358-.796 44.441-8.509 48.926-8.509 2.346 0 9.87 4.306 14.852 7.154 3.951 2.263 5.888 3.355 6.698 3.479.406.064 1.104.057 2.199-.018l.752.017.026-.075c2.438-.199 5.825-.611 8.462-.953.069.081.135.16.199.24 2.61 3.215 3.934 11.081 2.397 16.507v-1.708h-1.149v3.411l-1.729.153v-5.024h-1.15v5.128l-1.726.155V23.45h-1.15v6.845l-1.727.152v-8.839h-1.15v8.943l-1.726.153v-10.09h-1.15V30.81l-1.458.131-.124.053c-.002.002-.055.022-.146.058V20.616h-1.149v10.858c-.458.159-1.035.354-1.727.565v-10.14h-1.149v10.484c-.497.142-1.03.289-1.61.44-.038.01-.079.019-.115.024v-9.955H65.51V32.98a4.377 4.377 0 0 1-.232.006c-.504 0-1.042-.043-1.589-.108v-8.39h-1.151v8.223c-.585-.1-1.167-.218-1.728-.339v-6.577h-1.15v6.326a42.64 42.64 0 0 0-1.727-.363v-5.964h-1.15v5.833a45.014 45.014 0 0 0-1.726-.041v-4.929h-1.15v4.925c-.388.001-.78.004-1.166.008l.002-.006-.562.01v-4.361H51.03v4.378c-.383.005-.727.012-1.015.018l-.115.001c-.006.002-.013.002-.021.002l-.575.011V27.81h-1.152v3.822l-1.726-.034v-3.213h-1.149v3.186l-1.727-.046v-2.997h-1.149v2.959c-.558-.019-1.138-.038-1.728-.062v-2.608h-1.149v2.563c-.569-.023-1.146-.053-1.727-.078v-1.765h-1.15v1.706c-.578-.033-1.153-.067-1.726-.103v-2.038H33.77v1.962l-.554-.038c-.402-.028-.79-.06-1.171-.091v-1.4h-1.149v1.299a109.69 109.69 0 0 1-1.728-.178v-1.699h-1.149v1.556a29.07 29.07 0 0 1-1.727-.28v-.916h-1.151v.617c-.219-.077-.387-.156-.483-.237-.314-.409-.379-.896-.204-1.485.337-1.121 1.391-2.117 1.974-2.407a.331.331 0 0 1 .063-.028.579.579 0 0 1 .077-.03c.478-.161 2.36-.583 4.353-1.027 4.176-.935 6.967-1.572 7.697-1.938 1.234-.616 6.479-3.88 7.717-4.704l.384-.259v-.46c0-.282-.087-.757-.288-1.299v-4.456h-1.149v2.543a4.504 4.504 0 0 0-1.727-1.189V10.45h-1.149v2.226a5.37 5.37 0 0 0-1.074-.016l-.653.033V9.302h-1.15v3.45c-.492.024-1.072.055-1.727.088V8.723h-1.15v4.174l-.171.008-.212.012-.35.018c-.064.002-.128.006-.196.01l-.271.014-.352.018-.174.009V9.014h-1.151v4.027l-.111.006-.276.013c-.087.006-.174.008-.261.014-.157.008-.317.017-.477.022l-.019.001c-.193.01-.386.02-.582.028V9.877H30.9v3.303l-1.727.082V10.74H28.02v2.576l-.707.033-.232.011c-.132.005-.266.013-.398.019-.131.005-.262.011-.392.018V11.46H25.14v1.989l-1.726.078V11.46h-1.15v2.119c-.588.023-1.165.051-1.726.074v-1.186h-1.151V13.7l-1.726.07v-1.449H16.51v1.494c-.597.021-1.174.044-1.725.064v-1.703h-1.152v1.745c-.603.022-1.18.042-1.725.058v-1.802h-1.152v1.837c-.62.019-1.196.033-1.726.046v-1.235H7.871v1.259c-.547.008-1.03.013-1.438.013-2.614 0-4.256-.617-4.625-1.738-.287-.876.216-1.863.478-2.125z"/></svg>