<svg xmlns="http://www.w3.org/2000/svg" viewBox="0 0 100 100"><path d="M29.195 94.776l.026-8.8 4.1.012-.026 8.8zm-16.155-.054l.027-8.8 4.1.013-.027 8.8zm8.077.027l.027-8.8 4.1.012-.027 8.8zm40.486.135l.027-8.8 4.1.012-.027 8.8zm16.254.054l.027-8.8 4.1.013-.027 8.8zm8.076.027l.03-8.8 4.1.013-.03 8.8zm-48.661-.163l.027-8.8 4.1.013-.027 8.8zm32.408.108l.028-8.8 4.1.013-.027 8.8zm-16.154-.053l.027-8.8 4.1.013-.027 8.8zm-8.078-.027l.027-8.8 4.1.013-.027 8.8zM89.5 43.8c0-2.3-1.3-4.4-3.3-5.3l-2-.9-1.3 3.2-.9-2.3-2 .9 1.7 4.4-1.7 4.5 2 .9.9-2.3 1.3 3.2 2-.9c1.9-.9 3.3-3 3.3-5.4zM19.8 8.7L16.1 7l-4.2 10.7 3.8 1.7zm48.9 34.5l4.1-10.7-3.8-1.7-4.1 10.7zm-15.2-6.8l4.2-10.7-3.8-1.7-4.2 10.7zm7.6 3.4l4.1-10.7-3.7-1.7-4.2 10.7zm11.7 4.7v-.2z"/><path d="M77.3 43.8l3.1-7.9-3.8-1.7-3.8 10.2 3.8 9 3.8-1.7zM38.4 29.6l4.1-10.7-3.7-1.7-4.2 10.7zM46 33l4.1-10.7-3.8-1.7-4.1 10.7zm-15.2-6.8L35 15.5l-3.8-1.7L27 24.5zm-7.5-3.4l4.1-10.7-3.8-1.7-4.1 10.7zm18.9 33.6L46.3 67l3.8-1.7L46 54.7zm18.9-8.5l-3.8 1.7 4.2 10.6 3.7-1.7zM49.7 53l4.2 10.6 3.8-1.7-4.2-10.6zm19-8.5l-3.8 1.7L69 56.8l3.8-1.7zM27 63.2l4.2 10.6 3.8-1.7-4.2-10.6zm7.6-3.4l4.2 10.6 3.7-1.7-4.1-10.6zm-15.1 6.8l4.1 10.6 3.8-1.7-4.1-10.6zM11.9 70l4.2 10.6 3.7-1.7-4.1-10.6z"/></svg>