<svg xmlns="http://www.w3.org/2000/svg" viewBox="0 0 90 30.355"><switch><g><path d="M74.822 0c-4.598 0-8.71 2.053-11.493 5.281 3.88 1.611 6.61 5.434 6.61 9.896s-2.73 8.285-6.61 9.896c2.783 3.229 6.896 5.281 11.493 5.281C83.204 30.355 90 23.562 90 15.178 90 6.795 83.204 0 74.822 0z"/><path d="M59.256 6.695A8.463 8.463 0 0 0 52.73 9.76c1.538 1.311 2.538 3.237 2.538 5.417s-1 4.106-2.538 5.416a8.482 8.482 0 0 0 15.009-5.416 8.482 8.482 0 0 0-8.483-8.482z"/><circle cx="47.487" cy="15.178" r="6.249"/><path d="M40.31 15.178l-6.284 6.283L0 15.178l34.026-6.285z"/></g></switch></svg>