<svg xmlns="http://www.w3.org/2000/svg" data-name="Layer 1" viewBox="0 0 90 90"><path d="M56.703 58.815a.5.5 0 0 0 .219-.05l25.335-12.347a.5.5 0 0 0-.021-.909L49.196 31.29a.5.5 0 0 0-.677.6l7.7 26.566a.5.5 0 0 0 .48.361zM80.839 46L57.017 57.606l-7.242-24.979z"/><path d="M44.792 38.465l3.19 6.264 2.893.303 1.25 5.5-1.281.481 8.53 16.073 22.664-21.117-25.335 12.346-7.661-26.633z"/><path d="M9.625 51.032h42.5a.5.5 0 0 0 .487-.611l-1.25-5.5a.5.5 0 0 0-.487-.389H9.625a.5.5 0 0 0-.5.5v5.5a.5.5 0 0 0 .5.5zm41.874-1H10.125v-4.5h40.35z"/><path d="M5.25 50.532l2.875 5 45.062-.59-1.062-4.41h-42.5v-5.5z"/></svg>