<svg xmlns="http://www.w3.org/2000/svg" viewBox="0 0 100 100"><path d="M50 10c-22.092 0-40 17.908-40 40s17.908 40 40 40 40-17.908 40-40-17.908-40-40-40zm17.555 49.662c0-4.577-3.597-8.319-8.111-8.573 2.604 1.959 4.294 5.071 4.294 8.573H61.61c0-4.741-3.857-8.598-8.598-8.598H36.715c2.623 1.957 4.328 5.081 4.328 8.598h-2.128c0-4.741-3.857-8.598-8.598-8.598v-2.128c4.741 0 8.598-3.857 8.598-8.597h2.128c0 3.517-1.705 6.64-4.328 8.597h16.297c4.741 0 8.598-3.857 8.598-8.597h2.127c0 3.501-1.69 6.613-4.294 8.572 4.514-.254 8.111-3.996 8.111-8.572h2.128c0 4.247-2.481 7.925-6.069 9.661 3.588 1.736 6.07 5.415 6.07 9.662h-2.128z"/></svg>