<svg xmlns="http://www.w3.org/2000/svg" viewBox="0 0 32 32"><path d="M11.046 0L7.087 3.959 3.128 0 .247 2.881 4.206 6.84.247 10.799l2.881 2.881 3.959-3.959 3.959 3.959 2.881-2.881L9.968 6.84l3.959-3.959L11.046 0zM9.261 7.547l3.252 3.252-1.467 1.467-3.252-3.252-.707-.707-.707.707-3.252 3.252-1.467-1.467 3.252-3.252.707-.707-.707-.707-3.252-3.252 1.467-1.467L6.38 4.666l.707.707.707-.707 3.252-3.252 1.467 1.467-3.252 3.252-.707.707.707.707zm1.785 10.773l-3.959 3.959-3.959-3.959L.247 21.2l3.959 3.959-3.959 3.959L3.128 32l3.959-3.959L11.046 32l2.881-2.881-3.959-3.959 3.959-3.959-2.881-2.881zm-1.785 7.547l3.252 3.252-1.467 1.467-3.252-3.252-.707-.707-.707.707-3.252 3.252-1.467-1.467 3.252-3.252.707-.707-.707-.707L1.661 21.2l1.467-1.467 3.252 3.252.707.707.707-.707 3.252-3.252 1.467 1.467-3.252 3.252-.707.708.707.707zM15.777 32l15.976-15.976L15.729 0l.048 32zm14.562-15.976L16.773 29.589l-.04-27.171 13.606 13.606z"/><path d="M20.581 10.083h1v11.833h-1z"/></svg>