<svg xmlns="http://www.w3.org/2000/svg" viewBox="0 0 90 74.604"><switch><g><path d="M57.4 37.303l-7.24-7.241-6.316 4.629-4.63-4.629L0 37.303l39.214 7.24 4.63-4.629 6.316 4.629zM74.445 0c-7.041.002-12.75 5.709-12.75 12.751 0 5.803 4.704 10.507 10.508 10.507a8.703 8.703 0 0 0 7.703-4.652c2.025-.279 3.59-2 3.59-4.102a4.158 4.158 0 1 0-8.318 0c0 1.344.648 2.526 1.637 3.287a5.643 5.643 0 0 1-4.611 2.402 7.454 7.454 0 0 1-7.443-7.442 9.7 9.7 0 0 1 9.686-9.685c6.898.012 12.477 5.592 12.49 12.489a15.95 15.95 0 0 1-4.685 11.31 15.947 15.947 0 0 1-11.311 4.686 20.31 20.31 0 0 1-14.409-5.969 20.321 20.321 0 0 1-5.64-10.861 4.153 4.153 0 0 0 2.467-3.792 4.16 4.16 0 1 0-8.319 0 4.148 4.148 0 0 0 2.744 3.896c1.755 11.212 11.453 19.789 23.157 19.791 10.528-.002 19.058-8.533 19.06-19.06C89.998 6.965 83.037.002 74.445 0zM70.94 39.989c-11.704.002-21.402 8.579-23.157 19.791a4.148 4.148 0 0 0-2.744 3.896 4.16 4.16 0 1 0 8.319 0 4.154 4.154 0 0 0-2.467-3.793 20.315 20.315 0 0 1 5.64-10.86 20.313 20.313 0 0 1 14.409-5.969 15.944 15.944 0 0 1 11.311 4.686 15.948 15.948 0 0 1 4.685 11.31c-.014 6.897-5.592 12.478-12.49 12.489a9.7 9.7 0 0 1-9.686-9.684 7.453 7.453 0 0 1 7.443-7.442 5.643 5.643 0 0 1 4.611 2.402 4.138 4.138 0 0 0-1.637 3.286 4.158 4.158 0 1 0 8.318 0c0-2.102-1.564-3.821-3.59-4.102a8.7 8.7 0 0 0-7.703-4.651c-5.804 0-10.508 4.703-10.508 10.507 0 7.041 5.709 12.748 12.75 12.75C83.037 74.603 89.998 67.64 90 59.049c-.002-10.527-8.531-19.058-19.06-19.06z"/></g></switch></svg>