<svg xmlns="http://www.w3.org/2000/svg" viewBox="0 0 64 64"><path d="M17.042 15.57H8.515l9.226 29.629h35.615l10.56-29.629h-15.37l-8.888-9.007H24.491l8.902 9.007H21.251L16.011 0H.084v3.99h13.063l3.895 11.58zm21.781-7.008l13.834 14.02-13.834 14.02H29.28l12.467-12.614 1.39-1.406-1.39-1.406L29.28 8.562h9.543zm1.502 14.021l-15.834 16.02h15.168l15.807-16.02-4.946-5.013h10.56l-9.135 25.629H19.212l-7.98-25.629H35.37l4.955 5.013zm14.497 33.735a7.682 7.682 0 1 0-15.364 0 7.682 7.682 0 0 0 15.364 0zm-13.365 0c0-3.133 2.549-5.682 5.682-5.682s5.682 2.549 5.682 5.682c0 3.133-2.549 5.682-5.682 5.682s-5.682-2.549-5.682-5.682zm-9.807 0a7.682 7.682 0 1 0-15.364 0 7.682 7.682 0 0 0 15.364 0zm-13.365 0a5.689 5.689 0 0 1 5.682-5.682 5.689 5.689 0 0 1 5.682 5.682A5.689 5.689 0 0 1 23.967 62a5.689 5.689 0 0 1-5.682-5.682z"/></svg>