<svg xmlns="http://www.w3.org/2000/svg" viewBox="0 0 97.8 97.8"><path d="M9.798 44.065c0 .334.155.65.42.853l26.403 20.3a1.078 1.078 0 0 0 1.658-1.25l-2.933-6.559L18.8 44.067c-.341-.288-.404-.576.005-.864L36.85 29.416l1.43-5.254a1.077 1.077 0 0 0-1.66-1.25l-26.402 20.3c-.265.203-.42.518-.42.853zm14.28-.04c0 .334.156.649.42.853l26.404 20.3a1.078 1.078 0 0 0 1.658-1.25l-5.309-13.44c20.75-.535 30.209 2.36 42.627 22.297C86.489 55.574 79.745 39.84 47.25 37.562l5.31-13.44a1.077 1.077 0 0 0-1.66-1.25l-26.4 20.3c-.265.202-.42.518-.42.852z"/></svg>