<svg xmlns="http://www.w3.org/2000/svg" viewBox="0 0 96 96"><path d="M4.772 51.957c0-12.485 9.654-31.739 22.482-31.739 7.97 0 10.646-4.532 13.006-8.531 1.115-1.892 2.169-3.677 3.68-4.764.718-.517 1.729-.802 2.848-.802 3.692 0 7.629 2.857 8.01 8.317.673 9.72-9.961 16.424-15.443 19.217h41.972c.1 0 9.923.113 9.923 9.923 0 8.07-8.53 8.313-9.6 8.313H54.668c1.11 4.821 5.593 26.354-.894 34.662-1.72 2.202-4.067 3.318-6.99 3.318l-9.241.006c-15.825 0-24.284-.201-28.591-4.522-4.268-4.281-4.242-12.116-4.19-27.727.006-1.787.01-3.675.01-5.671zm5.242 32.34c3.887 3.899 12.112 4.081 27.528 4.081l8.04-.006h1.21c2.462 0 4.359-.896 5.799-2.741 6.72-8.607.463-34.052.399-34.308l-.233-.932 28.966.001c.82 0 8.027-.191 8.027-6.814 0-8.298-8.08-8.422-8.423-8.423H32.032l3.636-1.447c.185-.073 18.442-7.478 17.634-19.166-.382-5.474-4.428-6.921-6.514-6.921-.807 0-1.507.185-1.971.519-1.256.903-2.187 2.481-3.266 4.309-2.437 4.13-5.47 9.27-14.297 9.27-11.582 0-20.982 18.298-20.982 30.239 0 1.997-.006 3.888-.012 5.677-.05 15.194-.074 22.822 3.754 26.662z"/></svg>