<svg xmlns="http://www.w3.org/2000/svg" data-name="Layer 1" viewBox="0 0 90 90"><path d="M31.085 58.815a.5.5 0 0 1-.219-.05L5.531 46.418a.5.5 0 0 1 .021-.909L38.591 31.29a.5.5 0 0 1 .678.6l-7.7 26.566a.5.5 0 0 1-.48.361zM6.949 46l23.822 11.606 7.242-24.979z"/><path d="M38.746 31.682l4.25 6.783-3.191 6.264-2.892.303-1.25 5.5 1.281.481-8.531 16.073L5.75 45.969l25.335 12.346 7.661-26.633z"/><path d="M78.163 51.032h-42.5a.5.5 0 0 1-.487-.611l1.25-5.5a.5.5 0 0 1 .487-.389h41.25a.5.5 0 0 1 .5.5v5.5a.5.5 0 0 1-.5.5zm-41.874-1h41.374v-4.5h-40.35z"/><path d="M78.163 45.032l4.375 5.5-2.875 5-45.062-.59 1.062-4.41h42.5v-5.5z"/></svg>