<svg xmlns="http://www.w3.org/2000/svg" viewBox="0 0 100 100"><path d="M1.027 51.236l6.616-6.634V49h11.199a6.874 6.874 0 0 1 6.701-5.319A6.873 6.873 0 0 1 32.242 49h14.016a6.873 6.873 0 0 1 6.701-5.319A6.872 6.872 0 0 1 59.657 49h14.017a6.872 6.872 0 0 1 6.701-5.319A6.872 6.872 0 0 1 87.073 49H99v4.425H86.599a6.872 6.872 0 0 1-6.223 3.964 6.872 6.872 0 0 1-6.226-3.964H59.184a6.874 6.874 0 0 1-6.224 3.964 6.874 6.874 0 0 1-6.226-3.964H31.767a6.872 6.872 0 0 1-6.224 3.964 6.875 6.875 0 0 1-6.226-3.964H7.642v4.454zm79.348 3.412c2.285 0 4.145-1.845 4.145-4.113 0-2.268-1.859-4.112-4.145-4.112-2.287 0-4.147 1.845-4.147 4.112 0 2.269 1.861 4.113 4.147 4.113zm-27.415 0c2.285 0 4.145-1.845 4.145-4.113 0-2.268-1.859-4.112-4.145-4.112-2.286 0-4.147 1.845-4.147 4.112-.001 2.269 1.86 4.113 4.147 4.113zm-27.416 0c2.285 0 4.145-1.845 4.145-4.113 0-2.268-1.859-4.112-4.145-4.112-2.286 0-4.146 1.845-4.146 4.112-.001 2.269 1.86 4.113 4.146 4.113z"/></svg>