<svg xmlns="http://www.w3.org/2000/svg" viewBox="0 0 100 100"><path d="M40.75 13.2c.7-.7 1.8-.9 2.7-.5 1 .4 1.6 1.3 1.6 2.3v15h47.5c1.4 0 2.5 1.1 2.5 2.5v35c0 1.4-1.1 2.5-2.5 2.5h-47.5v15c0 1-.6 1.9-1.5 2.3-.3.1-.6.2-1 .2-.7 0-1.3-.3-1.8-.7l-35-35c-1-1-1-2.6 0-3.5zm-.7 65.8V67.5c0-1.4 1.1-2.5 2.5-2.5h47.5V35h-47.5c-1.4 0-2.5-1.1-2.5-2.5V21l-29 29z"/><path d="M50.05 47.5h27.5c1.4 0 2.5 1.1 2.5 2.5s-1.1 2.5-2.5 2.5h-2.5V55c0 1.4-1.1 2.5-2.5 2.5s-2.5-1.1-2.5-2.5v-2.5h-20c0 4.1-3.4 7.5-7.5 7.5s-7.5-3.4-7.5-7.5v-5c0-4.1 3.4-7.5 7.5-7.5s7.5 3.4 7.5 7.5zm-10 0v5c0 1.4 1.1 2.5 2.5 2.5s2.5-1.1 2.5-2.5v-5c0-1.4-1.1-2.5-2.5-2.5s-2.5 1.1-2.5 2.5z"/></svg>