<svg xmlns="http://www.w3.org/2000/svg" viewBox="0 0 32 32"><path d="M32 3.714A3.714 3.714 0 0 0 28.286 0a3.7 3.7 0 0 0-3.524 2.597H7.238C6.761 1.095 5.373 0 3.714 0A3.714 3.714 0 0 0 0 3.714a3.7 3.7 0 0 0 2.597 3.524v17.524A3.7 3.7 0 0 0 0 28.286a3.709 3.709 0 1 0 7.093 1.526h17.815A3.706 3.706 0 0 0 28.286 32a3.709 3.709 0 1 0 1.526-7.093V7.092A3.707 3.707 0 0 0 32 3.714zm-3.188 20.911c-.173-.025-.346-.053-.526-.053a3.714 3.714 0 0 0-3.714 3.714c0 .18.028.352.053.525H7.375c.025-.173.053-.345.053-.525a3.714 3.714 0 0 0-3.714-3.714c-.04 0-.077.01-.117.012V7.416c.04.001.077.012.117.012a3.714 3.714 0 0 0 3.714-3.714c0-.04-.011-.077-.012-.117h17.168c-.001.04-.012.077-.012.117a3.714 3.714 0 0 0 3.714 3.714c.18 0 .352-.028.526-.053v17.25z"/><path d="M15.095 8.532l-7.457 7.457 7.48 7.479-.01-6.468h9.254v-2h-9.257z"/></svg>