<svg xmlns="http://www.w3.org/2000/svg" viewBox="0 0 100 100"><path d="M24.607 47.674c.182-1.874.448-3.742.934-5.56.582 1.63 1.04 3.308 1.564 4.953-.853.125-1.704.264-2.498.607zm-.173 1.397a.36.36 0 0 0 .064-.176c.01-.128.022-.256.033-.383.866-.481 1.822-.654 2.787-.798.684 2.05 1.52 4.028 2.881 5.774a45.264 45.264 0 0 1-5.765-4.417zm-4.472-13.487c-.402 2.185-1.252 4.219-2.024 6.29a50.724 50.724 0 0 1-.715-.988c.437-1.513.763-3.065 1.252-4.562.127-.678.427-1.27.9-1.776.208.303.431.595.648.891a.332.332 0 0 0-.06.145zm1.373 6.3c.413 1.722.79 3.451 1.036 5.206a48.467 48.467 0 0 1-3.847-4.437c.918-.324 1.864-.547 2.811-.769zM83.3 60.137a.671.671 0 0 0-.308-.08.658.658 0 0 0-.668-.014c-1.467-.088-3.184-.642-3.42-2.318-.21-1.489.703-3.185 2.076-3.843 1.79-.858 3.955-.732 5.891-.8 1.678-.059 3.61-.061 5.27-.605-1.052 2.243-1.683 4.685-2.028 7.139-.328 2.334-1.265 6.037-4.537 5.645-2.223-.266-2.087-2.915-1.915-4.489.037-.335-.13-.545-.36-.635zM27.807 46.96c-.484-1.52-.903-3.071-1.414-4.577 1.315 1.057 3.171 2.525 3.98 3.767-.796.472-1.673.667-2.566.81zm-5.781-5.242a20.56 20.56 0 0 0 1.791-.514c-.303 1.395-.702 2.768-1.007 4.16a73.195 73.195 0 0 0-.784-3.646zm5.994 5.891c.926-.143 1.842-.333 2.674-.815.064.195.101.382.078.553-.23 1.736-.505 3.424-.43 5.143-1.05-1.496-1.746-3.16-2.323-4.881zm-16.124-1.74a37.065 37.065 0 0 1-1.559 2.309l-.017-.019c-1.448-1.685-2.867-3.4-4.2-5.178 1.822 1.054 3.758 2.104 5.776 2.888zm6.822-4.039c.55-1.462 1.127-2.909 1.548-4.408.284 1.262.596 2.518.902 3.776-.822.19-1.646.378-2.45.632zm5.266-1.458c0 .005-.002.009-.003.013-.689.272-1.4.474-2.119.648-.346-1.432-.703-2.861-1.016-4.301-.042-.192-.19-.263-.34-.252.022-.099.041-.199.062-.298 1.065 1.415 2.25 2.758 3.487 4.036a.329.329 0 0 0-.07.154zm-.137 7.743a.35.35 0 0 0-.028.324l-.005.063c-.246-.23-.49-.463-.73-.698a.287.287 0 0 0 .074-.249c.236-2.269 1.01-4.429 1.452-6.659l.084-.035c.12.12.238.243.36.362-.678 2.238-.998 4.566-1.207 6.892zm1.484 6.162c.432.327.868.648 1.311.961-1.99 1.185-4.16 2.752-6.525 2.492a.294.294 0 0 0-.225.062c-.394-.363-.77-.736-1.125-1.066 2.401-.076 4.718-.888 6.564-2.449zm-5.747-1.772c.153-1.053.27-2.106.233-3.172a42.19 42.19 0 0 0 4.163 3.884 116.618 116.618 0 0 1-4.396-.712z" fill="none"/><path d="M19.16 55.982c.051-.932.181-1.852.32-2.769 1.672.307 3.357.561 5.047.803-1.552 1.194-3.422 1.83-5.368 1.966zm-6.188-10.481a33.847 33.847 0 0 0 1.668-3.211 34.912 34.912 0 0 0 2.705 4.118c-1.49-.081-2.952-.417-4.373-.907zm14.323 10.187c.5.34 1.003.674 1.515.997-1.544.742-3.136 1.445-4.56 2.393-1.236.822-2.452.274-3.563-.601 2.394-.003 4.591-1.627 6.608-2.789zm-8.5-2.601c-.152.97-.3 1.943-.355 2.922-.153.001-.306.004-.46-.002a82.875 82.875 0 0 1-4.31-4.177c1.688.518 3.4.923 5.125 1.257zm-.554-5.549c.245.297.494.59.748.879-2.115 1.102-4.4 1.869-6.805 1.841-.243-.266-.477-.539-.717-.808 2.37-.019 4.764-.653 6.774-1.912zM7.936 43.183c1.798.048 4.277-.349 5.852-.764a33.722 33.722 0 0 1-1.506 2.832c-1.499-.572-2.95-1.299-4.346-2.068zm4.647 2.941c1.593.562 3.233.939 4.908 1.009-2.01 1.147-4.35 1.686-6.665 1.594l-.006-.007c.01-.01.021-.015.03-.027a37.274 37.274 0 0 0 1.733-2.569zm6.525 3.042c.067 1.077-.047 2.146-.204 3.213-1.91-.372-3.803-.83-5.666-1.436 2.054-.161 4.027-.842 5.87-1.777z" fill="none"/><path d="M38.745 58.579c-9.15-3.438-16.613-9.398-22.195-17.404a.298.298 0 0 1-.048-.278.353.353 0 0 1 .012-.142c.724-2.487 1.255-5 2.335-7.365.12-.262.485-.203.62 0 1.771 2.674 3.863 5.065 6.11 7.32a.336.336 0 0 1 .26.262 94.99 94.99 0 0 0 2.772 2.644c.484.444 3.041 2.135 2.975 2.789-.249 2.468-.838 4.893-.396 7.375a.361.361 0 0 1-.07.293 45.786 45.786 0 0 0 7.816 3.814c.43.161.243.856-.19.692zm-7.973-11.232c.023-.171-.014-.359-.078-.553-.832.482-1.748.672-2.675.815.577 1.721 1.273 3.385 2.323 4.881-.075-1.718.2-3.406.43-5.143zm-6.079-6.486l-.084.035c-.442 2.23-1.216 4.39-1.452 6.659a.287.287 0 0 1-.075.249c.241.236.485.468.731.698l.005-.063a.35.35 0 0 1 .028-.324c.21-2.326.53-4.654 1.205-6.892l-.358-.362zm-5.975.969c.804-.255 1.628-.442 2.451-.632-.306-1.258-.619-2.514-.902-3.776-.422 1.499-.999 2.947-1.549 4.408zm1.787-5.349c.15-.011.3.06.341.252.313 1.44.67 2.869 1.016 4.301.72-.175 1.43-.377 2.12-.648l.002-.013a.32.32 0 0 1 .071-.153c-1.237-1.278-2.422-2.62-3.487-4.036-.02.098-.04.198-.063.297zm1.521 5.237c.288 1.21.558 2.423.783 3.646.305-1.393.704-2.765 1.007-4.16-.587.202-1.186.366-1.79.514zm2.581 5.956c.794-.343 1.645-.482 2.5-.608-.525-1.645-.983-3.323-1.565-4.953-.487 1.819-.753 3.687-.935 5.561zm-.076.838c-.01.128-.023.256-.033.383a.36.36 0 0 1-.064.176 45.406 45.406 0 0 0 5.765 4.417c-1.36-1.746-2.197-3.724-2.88-5.774-.966.144-1.922.317-2.788.798zm-2.16-1.422c-.246-1.755-.623-3.484-1.036-5.206-.946.222-1.893.445-2.81.769a48.202 48.202 0 0 0 3.846 4.437zm-2.996-12.542a3.492 3.492 0 0 0-.9 1.776c-.489 1.496-.814 3.049-1.252 4.562.234.334.474.661.715.988.772-2.071 1.622-4.105 2.024-6.29a.355.355 0 0 1 .061-.145c-.217-.296-.44-.588-.648-.891zm7.018 7.835c.511 1.506.931 3.057 1.414 4.577.893-.142 1.77-.338 2.566-.81-.809-1.243-2.665-2.71-3.98-3.767zm20.971 19.213c-1.776-.58-3.593-1.034-5.258-1.903-.41-.214-.048-.834.363-.621 1.61.84 3.37 1.271 5.086 1.832.438.143.251.837-.19.692z"/><path d="M5.367 42.215c.228.002.457.008.685.012a.316.316 0 0 1 .164.003c2.696.057 5.395.178 7.984-.687.016-.037.035-.071.051-.108.074-.171.22-.209.354-.171.297-.33.875-.416 1.151.086a33.844 33.844 0 0 0 3.264 4.874c.143.026.251.166.271.328 6.597 8.038 16.6 13.108 26.457 15.91 11.064 3.145 24.05 3.701 34.636-1.41a5.119 5.119 0 0 1-.795-.407.356.356 0 0 1-.112.085c-8.504 4.047-20.279 4.615-29.096 1.297-.429-.161-.243-.856.191-.692 8.552 3.217 20.094 2.73 28.39-1.158-1.772-1.574-2.019-4.293.177-6.669 1.451-1.57 3.777-1.679 5.764-1.792 2.54-.146 7 .505 8.721-1.842.298-.428.827-.382 1.133-.123.241.195.35.518.107.848-1.956 2.812-2.822 6.056-3.365 9.398-.439 2.704-.945 4.542-3.417 6.044-3.72 2.261-5.827-1.051-5.898-4.292-11.185 5.924-24.909 5.34-36.819 2.098-5.413-1.474-10.879-3.7-15.83-6.714-2.203 1.084-4.365 2.122-6.365 3.566-.096.07-.265.066-.363 0-4.054-2.744-7.754-6.113-11.113-9.784a.324.324 0 0 1-.108-.119c-2.343-2.57-4.52-5.285-6.53-8.041-.163-.225.06-.543.311-.54zm80.21 23.044c3.272.392 4.21-3.311 4.537-5.645.345-2.453.976-4.896 2.028-7.139-1.66.544-3.592.546-5.27.605-1.936.068-4.102-.058-5.89.8-1.375.659-2.288 2.355-2.078 3.843.236 1.676 1.953 2.23 3.421 2.318a.66.66 0 0 1 .668.014.684.684 0 0 1 .308.08c.231.091.398.3.361.634-.172 1.575-.308 4.225 1.915 4.49zm-75.257-17.1l.017.019a37.065 37.065 0 0 0 1.56-2.309c-2.019-.783-3.955-1.834-5.777-2.888 1.333 1.778 2.752 3.493 4.2 5.178zm.506.569c2.313.092 4.655-.447 6.665-1.594-1.674-.07-3.315-.447-4.908-1.009a36.819 36.819 0 0 1-1.734 2.569c-.009.012-.02.017-.03.027l.007.007zm1.357 1.53c2.404.029 4.69-.739 6.805-1.841a36.887 36.887 0 0 1-.748-.879c-2.01 1.259-4.405 1.893-6.775 1.912.241.269.475.542.718.808zm6.925-1.092c-1.843.935-3.816 1.616-5.87 1.777 1.863.606 3.755 1.064 5.666 1.436.157-1.067.27-2.136.204-3.213zM7.936 43.183c1.395.769 2.847 1.496 4.346 2.068a33.722 33.722 0 0 0 1.506-2.832c-1.575.415-4.054.812-5.852.764zm6.703-.893a33.389 33.389 0 0 1-1.668 3.211c1.422.489 2.882.825 4.373.907a34.912 34.912 0 0 1-2.705-4.118zm5.178 7.043c.036 1.066-.08 2.12-.233 3.172 1.458.269 2.924.498 4.396.712a42.423 42.423 0 0 1-4.163-3.884zm.074 8.46a.294.294 0 0 1 .225-.062c2.364.259 4.534-1.307 6.525-2.492a49.499 49.499 0 0 1-1.31-.961c-1.846 1.561-4.163 2.373-6.566 2.45.355.329.732.701 1.126 1.065zm-.732-1.811c1.946-.136 3.816-.773 5.37-1.965-1.69-.242-3.376-.497-5.049-.803-.139.916-.269 1.836-.32 2.768zm5.09 3.096c1.425-.948 3.016-1.651 4.56-2.393a49.43 49.43 0 0 1-1.515-.997c-2.017 1.163-4.213 2.786-6.609 2.789 1.113.874 2.328 1.423 3.563.601zm-6.269-3.071c.154.005.307.003.46.002.055-.979.204-1.952.355-2.922a49.507 49.507 0 0 1-5.127-1.257 83.295 83.295 0 0 0 4.312 4.177z"/></svg>