<svg xmlns="http://www.w3.org/2000/svg" viewBox="0 0 96 96"><path d="M45.072 41.999a18.03 18.03 0 0 0-9.571-10.387 17.889 17.889 0 0 1 7.354-1.585l11.97 11.971h3.765c-1.928-9.175-8.191-16.741-16.542-20.496a28.93 28.93 0 0 1 11.893-2.563h.002l-.002.001L83 48 53.94 77.058l.002.002h-.002c-4.241 0-8.258-.93-11.893-2.563 8.351-3.754 14.614-11.318 16.542-20.494h-3.766l-11.97 11.97c-2.623 0-5.108-.573-7.354-1.585a18.015 18.015 0 0 0 9.571-10.385H13.625A29.379 29.379 0 0 1 13 48c0-2.058.221-4.064.627-6.001z"/></svg>