<svg xmlns="http://www.w3.org/2000/svg" viewBox="0 0 100 100"><path d="M26.411 31.192h34.428c10.371 0 18.809 8.438 18.809 18.809 0 10.369-8.438 18.807-18.809 18.807h-15a6.064 6.064 0 0 1-6.058-6.059c0-1.213.362-2.342.979-3.291a6.055 6.055 0 0 1-2.979-5.209c0-1.213.362-2.342.979-3.289a6.06 6.06 0 0 1-2.979-5.209c0-.869.188-1.693.519-2.441h-9.889a6.065 6.065 0 0 1-6.058-6.058 6.066 6.066 0 0 1 6.058-6.06zm0 8.5h26.178a1.81 1.81 0 0 1 1.809 1.809 1.81 1.81 0 0 1-1.809 1.809h-10.75a2.444 2.444 0 0 0-2.442 2.441 2.445 2.445 0 0 0 2.442 2.441h10.75a1.81 1.81 0 0 1 1.809 1.809 1.81 1.81 0 0 1-1.809 1.809h-8.75a2.443 2.443 0 0 0-2.442 2.439 2.445 2.445 0 0 0 2.442 2.443h8.75a1.809 1.809 0 1 1 0 3.616h-6.75a2.445 2.445 0 0 0-2.442 2.441 2.445 2.445 0 0 0 2.442 2.443h15c8.377 0 15.191-6.814 15.191-15.191S69.216 34.81 60.839 34.81H26.411a2.445 2.445 0 0 0-2.442 2.442 2.443 2.443 0 0 0 2.442 2.44z"/></svg>