<svg xmlns="http://www.w3.org/2000/svg" viewBox="0 0 100 100"><g stroke-miterlimit="10" fill="none" stroke="#000" stroke-width="2"><path d="M87.666 57.3l7.8-8.2-8.1-7.9 3.8-10.7-10.6-4-.9-11.3-11.3.7-5.4-9.9-10 5.2-9-6.9-7.1 8.9-11-2.7-2.8 11-11.2 2 1.9 11.2-9.3 6.4 6.2 9.5-5.9 9.6 9.6 6.1-1.5 11.3 11.2 1.6 3.2 10.9 10.9-3 7.4 8.6 8.7-7.2 10.2 4.9 5.1-10.2 11.3.3.5-11.3 10.5-4.3z"/><path d="M83.766 50h-67.6m0 0l20.3 20.3M16.166 50l20.3-20.3" stroke-linecap="round" stroke-linejoin="bevel"/></g></svg>