<svg xmlns="http://www.w3.org/2000/svg" viewBox="0 0 512 512"><path d="M224.095 291.5c-1.1.6-2.3.9-3.5.9-1.3 0-2.6-.3-3.7-1l-50.7-29.2c-2.3-1.3-3.6-3.7-3.6-6.3 0-2.6 1.4-5 3.6-6.3l50.7-29.2c2.3-1.3 5-1.4 7.3 0 2.3 1.3 3.6 3.7 3.6 6.3v58.6c-.1 2.5-1.5 4.8-3.7 6.2z"/><path d="M263.695 6.1c131.9 4 238.1 110.2 242.1 242.1 4.5 143.5-114 262-257.6 257.6-131.9-4-238.1-110.2-242.1-242.1-4.4-143.6 114.1-262 257.6-257.6zm-50.2 208.6l-50.7 29.2c-4.3 2.5-6.8 6.9-6.8 11.9s2.6 9.4 6.8 11.9l50.7 29.2c4.3 2.5 9.4 2.6 13.7.1 4.3-2.5 6.9-6.9 6.9-11.9V259l118.6-.1c1.8 0 3.2-1.4 3.2-3.2 0-1.7-1.4-3.2-3.2-3.2l-118.6.1v-26.1c0-5-2.6-9.4-6.8-11.9-2.1-1.3-4.5-1.9-6.8-1.9-2.4.1-4.8.8-7 2z"/></svg>