<svg xmlns="http://www.w3.org/2000/svg" viewBox="0 0 100 100"><path d="M22.167 50.926c-.325-.773-.956-1.411-1.703-1.937.515-.365 1.048-.764 1.598-1.153.393 1.103.393 2.151.105 3.09zm-9.555-.495a4.511 4.511 0 0 0 2.064.677c-.031 1.395-.708 2.551-1.976 3.247a37.191 37.191 0 0 1-2.935-1.204c1.257-.581 2.268-1.447 2.847-2.72zm-3.536 2.277a.368.368 0 0 0-.12.076 76.75 76.75 0 0 0-1.946-.865c1.309-1.068 2.643-2.094 3.785-3.343.393.585.81 1.07 1.255 1.442-.542 1.332-1.646 2.177-2.974 2.69zm48.584 3.057c-.372 1.067-2.491 3.088-3.62 1.779-.566-.659-.841-1.526-.96-2.378-.223-1.592-.284-3.743.586-5.182 2.467 1.552 4.717 3.707 3.994 5.781zm-2.823-4.484c-.38-.229-.723.364-.346.592 1.226.741 2.618 3.015 1.096 4.158-.348.262-.007.858.346.593 1.959-1.473.636-4.295-1.096-5.343zm-39.477-.162c.794-.041 1.613-.255 2.443-.605.843 1.223 1.449 2.888.625 4.114-1.211.457-2.562.59-3.841.292a15.837 15.837 0 0 1-1.042-.284c1.152-.826 1.79-2.084 1.815-3.517zm3.07-.895c.475-.236.95-.512 1.423-.822.969.623 1.8 1.441 1.858 2.558-.538.924-1.368 1.691-2.348 2.234.37-1.28-.117-2.764-.932-3.97z" fill="none"/><path d="M41.864 46.757c-3.878 1.967-8.351.368-11.674-2.009-.356-.255-.015-.849.346-.592 3.1 2.219 7.327 3.864 10.983 2.01.392-.201.739.391.345.591zm8.059-.366c-1.652-.76-3.714-.826-5.4-.148-.41.165-.586-.498-.182-.661 1.86-.748 4.117-.616 5.928.217.4.186.052.776-.346.592zm6.01 10.233c-.353.265-.694-.33-.346-.593 1.52-1.143.13-3.417-1.096-4.158-.378-.228-.033-.821.346-.592 1.732 1.048 3.055 3.87 1.096 5.343zm.02-8.449c5.885-3.358 10.944-.557 16.243 2.558.38.224.036.816-.346.592-5.02-2.952-9.891-5.788-15.55-2.558-.386.219-.731-.373-.347-.592zm21.872 4.155c2.78 1.19 6.64.813 9.343-.45.397-.186.745.406.345.593-2.951 1.378-7.001 1.747-10.034.449-.406-.174-.056-.764.346-.592zm-3.427-.73h.182c.44 0 .44.685 0 .685h-.182c-.443 0-.443-.685 0-.685z"/><path d="M5.21 51.64c1.674-1.431 3.48-2.685 4.919-4.368.085-1.924-.13-3.823-.184-5.746-.016-.569.778-.946 1.169-.484 3.222 3.8 7.747.502 11.576-.359.283-.063.638.032.773.315.286.599.503 1.147.617 1.808a.715.715 0 0 1 .004.211c1.256-.249 2.555-.01 3.81.371.423.128.243.79-.181.661-3.982-1.208-6.24 1.067-9.237 3.255-1.8 1.314-3.09 1.876-5.097.731-.383-.219-.038-.811.346-.592 3.123 1.783 6.547-2.624 9.018-3.951.04-.021.08-.034.12-.054a.658.658 0 0 1-.105-.268c-.286-1.663-1.541-.662-2.774-.213-1.288.47-2.56.917-3.906 1.187-1.781.357-3.361 0-4.688-.965.08 1.38.172 2.755.107 4.143a.68.68 0 0 1 .27.254c2.402 3.923 5.806 1.777 8.712-.255 2.18-1.525 4.179-2.971 6.969-2.643 2.394.281 4.533 1.983 6.644 3.006 3.898 1.891 7.4-.164 11.203-1.064 2.893-.684 5.614.13 8.024 1.592 1.13-1.454 2.758-2.562 4.759-3.218 4.484-1.47 8.217.309 12.08 2.287 6.162 3.155 12.747 4.835 19.204 1.424 1.067-.563 2.045-1.317 2.979-2.07.08-.19.158-.381.23-.571-3.56 3.481-10.032 4.82-14.336 3.432-.838-.27-.48-1.593.364-1.322 5.048 1.628 13.809-.942 15.054-6.647.09-.413.438-.542.757-.473.325.018.62.234.588.655-.134 1.728-.641 3.642-1.438 5.525a.518.518 0 0 1-.082.19c-1.978 4.554-5.655 8.888-9.946 9.928-.858.208-1.223-1.113-.364-1.321 3.114-.755 5.933-3.549 7.863-6.805-3.564 2.222-7.493 3.216-11.873 2.65-4.165-.539-7.958-2.511-11.635-4.416-4.243-2.198-9.868-2.339-13.1 1.482a23.056 23.056 0 0 1 2.084 1.681c2.685 2.43 3.69 5.853.292 8.081-3.278 2.149-4.934-1.682-5.178-4.33-.175-1.89.182-3.586.958-5.028-1.324-.728-2.594-1.255-3.39-1.474-2.595-.717-5.464.618-7.894 1.403-2.394.774-4.682.803-7.054-.048-2.221-.797-4.084-2.327-6.337-3.058-1.695-.55-3.273.041-4.736.933a.7.7 0 0 1 .18.272c1.264 3.344-.757 7.245-4.107 8.488-4.903 1.818-9.304-1.408-13.728-3.077-.44-.165-.73-.779-.302-1.145zm47.869 3.527c.12.851.394 1.718.96 2.378 1.129 1.309 3.248-.712 3.62-1.779.723-2.075-1.527-4.23-3.995-5.78-.868 1.439-.808 3.589-.585 5.181zm-42.285-6.59c-1.141 1.249-2.476 2.275-3.785 3.343.654.276 1.3.57 1.946.865a.357.357 0 0 1 .12-.076c1.328-.513 2.43-1.358 2.973-2.689-.443-.373-.861-.858-1.254-1.443zm1.906 5.778c1.268-.696 1.945-1.852 1.976-3.247a4.504 4.504 0 0 1-2.064-.677c-.578 1.273-1.59 2.139-2.846 2.72.965.436 1.937.853 2.934 1.204zm7.763-5.365c.747.525 1.379 1.164 1.703 1.937.289-.939.288-1.987-.106-3.09-.55.388-1.082.788-1.597 1.153zm1.248 2.97c-.057-1.117-.888-1.934-1.858-2.558-.473.31-.948.586-1.422.822.815 1.206 1.302 2.69.932 3.97.98-.543 1.81-1.31 2.348-2.234zm-3.284 2.668c.824-1.226.218-2.892-.625-4.114-.83.35-1.65.564-2.443.605-.024 1.433-.663 2.691-1.816 3.518.344.104.69.201 1.042.284 1.28.298 2.63.164 3.842-.293z"/></svg>