<svg xmlns="http://www.w3.org/2000/svg" viewBox="0 0 96 96"><path d="M43.419 53.777c.117.452.237.87.366 1.278.377 1.188 6.307 2.356 6.869 3.472.028.056.055.103.083.157v10.294L8 47.852l42.277-20.83v10.964c-.263.573-5.963 1.152-6.175 1.735l-.011.025a24.108 24.108 0 0 0-1.233 5.128c-.025.195-.045.391-.065.584l-.012.112c-.012.129-.022.259-.033.391h36.144a4.836 4.836 0 0 1 .86-1.325l.29-.288a4.839 4.839 0 0 1 1.073-.74 4.78 4.78 0 0 1 3.623-.267c.215.071.433.16.646.267.39.193.751.444 1.075.742.05.048.101.094.15.144a4.706 4.706 0 0 1 1.388 3.153c.001.064.003.129.003.195l-.004.219c-.02.436-.099.864-.233 1.281a4.612 4.612 0 0 1-.268.645 4.612 4.612 0 0 1-.882 1.218l-.018.021a3.107 3.107 0 0 1-.138.13 4.506 4.506 0 0 1-1.07.739c-.196.104-.408.19-.649.271a4.733 4.733 0 0 1-1.699.232 4.799 4.799 0 0 1-1.285-.234 4.917 4.917 0 0 1-.644-.267 4.831 4.831 0 0 1-1.075-.743 6.624 6.624 0 0 1-.146-.144l-.146-.149a4.914 4.914 0 0 1-.74-1.072 4.337 4.337 0 0 1-.112-.242l-36.142-.001c.03.386.066.745.109 1.089.125.988.314 1.981.561 2.942zm37.569-5.345a2.313 2.313 0 0 0 1.08 1.428c.188.115.394.201.605.252.375.098.778.098 1.153-.002.213-.052.42-.138.611-.254a2.288 2.288 0 0 0 .816-.82 2.34 2.34 0 0 0 .325-1.183c0-.196-.026-.393-.076-.582a2.196 2.196 0 0 0-.253-.609 2.205 2.205 0 0 0-.355-.457 2.299 2.299 0 0 0-1.071-.612 2.313 2.313 0 0 0-1.765.254 2.152 2.152 0 0 0-.461.357 2.174 2.174 0 0 0-.359.465 2.252 2.252 0 0 0-.251.605c-.095.373-.094.777.001 1.158z"/></svg>