<svg xmlns="http://www.w3.org/2000/svg" viewBox="0 0 512 512"><path d="M256 506c66.8 0 129.6-26 176.8-73.2C480 385.6 506 322.8 506 256c0-66.8-26-129.6-73.2-176.8C385.6 32 322.8 6 256 6 189.2 6 126.4 32 79.2 79.2 32 126.4 6 189.2 6 256c0 66.8 26 129.6 73.2 176.8C126.4 480 189.2 506 256 506zm0-490c132.3 0 240 107.7 240 240S388.3 496 256 496 16 388.3 16 256 123.7 16 256 16z"/><path d="M378.2 256c0 67.5-54.7 122.2-122.2 122.2S133.8 323.5 133.8 256 188.5 133.8 256 133.8 378.4 188.6 378.2 256zm-59.7 7.1v-14.8h-89.9v-15.8l-41.3 23.8 41.2 23.7v-16.9h89.9z"/></svg>