<svg xmlns="http://www.w3.org/2000/svg" viewBox="0 0 100 100"><path d="M6.626 74.937c.008-.008.017-.016.022-.025.439-3.916 2.154-7.767 3.766-11.333 1.863-4.113 4.01-8.334 6.757-11.931.101-.132.217-.226.343-.292-.234-1.35-2.542-4.207-3.075-5.262a54.321 54.321 0 0 1-2.47-5.64c-1.421-3.839-3.087-8.614-2.79-12.756a.85.85 0 0 1 .648-.782c.014-.686 1.025-1.216 1.623-.639 6.539 6.332 13.926 10.062 22.957 11.522 5.155.835 10.406.903 15.616.79 2.314-.049 4.624-.164 6.935-.242 1.711-.057 3.51-.361 5.124.147.002-.048 0-.094.008-.145.316-2.008.109-3.957-.456-5.899a.616.616 0 0 1 .09-.531c-.445-.723.472-1.904 1.5-1.46 10.158 4.367 20.287 8.804 30.426 13.216.829.361.556 1.432 0 1.856-9.772 7.468-19.544 15.565-30.178 21.801-.107 1.013-1.571 1.005-1.639-.041-.123-1.943-.142-3.892-.162-5.838-.012-1.262-.201-2.552.103-3.75-9.212 1.94-18.527 3.216-27.597 5.836-4.706 1.36-9.341 2.995-13.772 5.091-4.552 2.153-8.381 5.267-12.755 7.636-.852.461-1.677-.618-1.024-1.329zm7.53-34.629c.008-.033.012-.063.026-.095l2.191-4.693-3.003 2.566c.246.745.508 1.485.786 2.222zm-1.245-3.672l1.075-2.299c-.468.381-.933.762-1.399 1.143.106.386.211.772.324 1.156zm-.846-5.437l.872-.531a24.28 24.28 0 0 1-1.71-1.746c.367 1.565.584 3.185.919 4.766l.923-2.014c-.178.108-.357.217-.533.326-.513.311-.979-.49-.471-.801zm2.019.479l-1.009 2.202 1.862-1.522a26.742 26.742 0 0 1-.853-.68zm1.589 1.238c0 .003 0 .005-.002.007l-1.518 3.259c.934-.799 1.867-1.598 2.802-2.396-.436-.28-.863-.569-1.282-.87zm2.265 1.473l-1.867 4.005 3.344-3.171c-.5-.266-.993-.546-1.477-.834zm2.504 1.356l-1.91 3.786a58.36 58.36 0 0 1 3.085-3.231 44.644 44.644 0 0 1-1.175-.555zm2.353 1.066c-.796 1.748-1.592 3.492-2.39 5.238a50.938 50.938 0 0 1 4.131-4.559 48.564 48.564 0 0 1-1.741-.679zm2.757 1.038l-3.937 8.338c2.031-2.554 4.063-5.107 6.092-7.663a50.989 50.989 0 0 1-2.155-.675zm3.104.935a228.915 228.915 0 0 0-11.977 20.182c4.207-6.842 8.847-13.413 13.86-19.718a49.637 49.637 0 0 1-1.883-.464zm3.758.856a45.83 45.83 0 0 1-.938-.19c-4.004 6.3-7.887 12.677-11.376 19.262a262.82 262.82 0 0 1 12.636-19.017c-.107-.019-.215-.034-.322-.055zm1.302.223a340.07 340.07 0 0 0-10.668 20.425c4.002-6.739 8.004-13.48 11.998-20.223-.444-.063-.887-.13-1.33-.202zm2.238.326l-7.696 15.26c2.993-5.039 5.988-10.076 8.98-15.115a55.386 55.386 0 0 1-1.284-.145zm2.121.236v.004A400.932 400.932 0 0 1 31.018 54.9c2.907-4.684 5.813-9.369 8.708-14.062.257-.415.854-.052.648.379l-6.613 13.811c2.229-3.776 4.451-7.557 6.671-11.339a91.512 91.512 0 0 1 1.748-2.993 79.129 79.129 0 0 1-4.105-.271zm5.048.302c-.49.824-.974 1.653-1.462 2.479a99.965 99.965 0 0 0-7.278 15.812c3.639-6.085 7.28-12.169 10.927-18.25-.73-.006-1.459-.021-2.187-.041zm4.591.037c-.449.006-.896.006-1.346.007-1.76 3.522-3.516 7.044-5.274 10.566a305.391 305.391 0 0 1 6.816-10.578c-.065 0-.131.004-.196.005zm1.411-.037a8378.548 8378.548 0 0 1-6.706 13.838 219.128 219.128 0 0 0 7.937-13.873c-.411.014-.821.024-1.231.035zm2.191-.06a2550.464 2550.464 0 0 1-5.971 14.051l8.818-14.184c-.95.049-1.897.096-2.847.133zm4.488-.218c-.226.015-.453.023-.679.035L49.09 53.766c2.765-4.456 5.53-8.911 8.297-13.366-.541.011-1.074.019-1.583.049zm2.482-.072c-2.26 4.834-4.523 9.667-6.783 14.502a257.816 257.816 0 0 0 9.965-14.941c-1 .306-2.091.403-3.182.439zm.737 6.894c.595-1.025 1.186-2.051 1.782-3.074.952-1.635 1.901-3.263 2.923-4.84a.74.74 0 0 1-.354.188 171.118 171.118 0 0 0-4.351 7.726zm4.262-14.498c.261.618.449 1.251.584 1.894.144-.484.29-.966.433-1.45l-1.017-.444zm.775 3.119c.035.353.049.707.049 1.063.383-.616.773-1.229 1.163-1.843l-1.093.732a.335.335 0 0 1-.119.048zm.917-2.379c-.113.383-.228.767-.343 1.151l1.178-.787-.835-.364zm1.698.742a162.436 162.436 0 0 0-2.658 4.235c-.017.125-.027.25-.047.377a.91.91 0 0 1-.053.195c1.038-1.58 2.16-3.098 3.438-4.512l-.68-.295zm1.555.679c-2.041 4.267-4.09 8.529-6.139 12.792 2.439-4.117 4.974-8.174 7.713-12.104l-1.574-.688zm2.445 1.068l-5.643 12.096 6.644-11.659-1.001-.437zm1.705.745a5914.136 5914.136 0 0 0-6.533 15.618c2.781-4.912 5.567-9.821 8.338-14.738.014-.029.037-.045.055-.067-.619-.269-1.238-.542-1.86-.813zm-8.734 24.705l-.006.488a336.687 336.687 0 0 1 6.472-15.553c-2.174 3.844-4.353 7.687-6.527 11.532.233 1.136.073 2.346.061 3.533zm11.245-23.608a.404.404 0 0 1-.041.171 335.804 335.804 0 0 0-9.341 21.245 232.655 232.655 0 0 0 9.07-17.746c.474-1.062.952-2.122 1.426-3.184l-1.114-.486zm4.321 1.884c-2.342 5.232-4.677 10.468-7.013 15.704 2.852-5.009 5.707-10.018 8.519-15.05l-1.506-.654zm6.009 2.61c-.968 2.458-1.935 4.918-2.9 7.376l3.938-6.926-1.038-.45zm5.782 2.512l-.595-.258a9.567 9.567 0 0 1-.293.918c.295-.221.595-.438.888-.66zm-1.782 1.326c.792-1.386 1.212-2.49-.786.425-.07.103-.131.207-.201.309.33-.243.658-.49.987-.734zm.301-1.969l-1.069-.464-1.015 3.084c.624-.926 1.368-1.806 2.084-2.62zm-3.23 4.131l.308-.931c-.259.441-.536.876-.818 1.306l.51-.375zm1.55-4.861l-.845-.367c-.71 1.885-1.419 3.768-2.131 5.652a74.324 74.324 0 0 0 2.976-5.285zm-4.24 6.827l1.705-4.533a7496.197 7496.197 0 0 1-3.2 5.618l1.495-1.085zm-3.075 2.233l2.09-5.326a156.398 156.398 0 0 1-3.858 6.616c.589-.43 1.178-.861 1.768-1.29zm4.086-10.463l-1.643-.714-4.601 11.852a156.569 156.569 0 0 0 6.244-11.138zm-7.716 13.115c.901-2.322 1.799-4.645 2.7-6.967a165.96 165.96 0 0 1-4.64 8.404c.646-.48 1.29-.96 1.94-1.437zm5.431-14.108l-.937-.407c-2.277 4.867-4.548 9.728-6.507 14.727a165.99 165.99 0 0 0 7.444-14.32zM73.2 57.936c1.319-3.649 2.816-7.224 4.41-10.76-2.439 4.316-4.863 8.64-7.298 12.957.956-.738 1.92-1.468 2.888-2.197zm-4.375 3.368c1.553-3.485 3.107-6.972 4.662-10.457-1.957 3.805-3.914 7.611-5.875 11.413.403-.32.807-.638 1.213-.956zm9.738-21.859l-1.869-.813a227.735 227.735 0 0 1-1.703 3.801l-3.707 8.279c-1.627 3.632-3.504 7.253-4.324 11.159 3.861-7.479 7.734-14.952 11.603-22.426zM65.912 63.639c.288-2.417 1.005-4.687 1.902-6.907a225.059 225.059 0 0 1-4.152 7.264c-.017.025-.037.042-.058.062-.01.509-.021 1.015-.039 1.522.774-.657 1.562-1.298 2.347-1.941zm-3.257-7.627c.343-.034.568.177.663.449 2.033-4.839 4.066-9.677 6.092-14.517-2.675 4.736-5.35 9.475-8.035 14.206.427-.044.854-.097 1.28-.138zm-2.322.253c2.62-5.609 5.237-11.218 7.854-16.828-3.657 5.556-6.976 11.322-10.258 17.111.802-.101 1.602-.195 2.404-.283zm-3.43.42c3.155-6.579 6.312-13.155 9.475-19.729-2.086 2.71-3.744 5.708-5.458 8.683-2.195 3.807-4.402 7.607-6.609 11.407.863-.129 1.727-.246 2.592-.361zm-3.686.532a176.482 176.482 0 0 1 9.333-17.713c-.053.027-.109.045-.162.072A236.026 236.026 0 0 1 50.366 57.69c.95-.165 1.902-.324 2.851-.473zm-3.928.668l5.676-12.153-7.778 12.548c.701-.136 1.4-.268 2.102-.395zm-3.185.609l5.881-12.968-8.373 13.491c.83-.182 1.661-.356 2.492-.523zm-3.539.753c.006-.03.006-.059.021-.089 1.797-4.213 3.596-8.425 5.403-12.635a257.805 257.805 0 0 1-7.953 13.316c.841-.204 1.684-.401 2.529-.592zm-3.772.902c2.5-5.188 5.015-10.369 7.532-15.548a291.274 291.274 0 0 0-9.846 16.151c.77-.207 1.541-.408 2.314-.603zm-3.469.914l5.809-11.668c-2.406 4.024-4.812 8.05-7.222 12.072.47-.136.942-.274 1.413-.404zm-2.814.81a100.715 100.715 0 0 1 3.175-8.532c-1.807 3.077-3.612 6.155-5.417 9.231.747-.24 1.493-.474 2.242-.699zm-3.487 1.109a4634.728 4634.728 0 0 1 7.512-15.554c-3.397 5.498-6.788 10.998-10.18 16.497a96.82 96.82 0 0 1 2.668-.943zm-3.91 1.414a469.835 469.835 0 0 0 8.264-16.01c-3.271 5.54-6.543 11.081-9.809 16.622a88.497 88.497 0 0 1 1.545-.612zm-2.921 1.186c2.57-5.086 5.145-10.172 7.717-15.258l-9.534 16.062a86.406 86.406 0 0 1 1.817-.804zm-3.173 1.435a350.24 350.24 0 0 1 10.97-22.037 272.841 272.841 0 0 0-14.601 23.815 122.343 122.343 0 0 1 3.631-1.778zm-5.183 2.603c3.475-8.029 7.694-15.674 12.238-23.132-5.772 7.946-10.894 16.339-15.413 25.069a41.03 41.03 0 0 1 3.175-1.937zm-4.901 3.201a233.516 233.516 0 0 1 14.644-27.657c-1.274 1.628-2.548 3.254-3.817 4.885-.355.455-.97-.125-.753-.582 1.58-3.314 3.165-6.623 4.749-9.933a47.915 47.915 0 0 0-5.175 6.51c-.33.501-1.032.07-.792-.463 1.138-2.519 2.279-5.036 3.421-7.554a56.461 56.461 0 0 0-4.599 5.312c-.365.478-1.104.08-.82-.48l2.79-5.536-3.655 3.465a.438.438 0 0 1-.558.064c.119.305.232.61.357.912.932 2.277 2.037 4.466 3.25 6.604.679 1.199 1.548 2.112 1.294 3.499a.718.718 0 0 1-.392.529 1.15 1.15 0 0 1-.092.197c-2.106 3.673-4.385 7.194-6.228 11.02-1.483 3.078-2.562 6.373-3.978 9.482.114-.095.237-.182.354-.274z"/></svg>