<svg xmlns="http://www.w3.org/2000/svg" viewBox="0 0 96 96"><path d="M40.01 60.019h15.981l-.006 9.724 10.275-.003L48 88 29.741 69.74l10.273.002zM36.619 72.59L48 83.972 59.381 72.59l-6.246.001.006-9.724H42.86l.006 9.724zm23.398-32.579l9.724.003-.001-10.274L87.999 48 69.74 66.26l.002-10.278-9.725.012zM8.001 48L26.26 29.74l-.002 10.273 9.725-.003v15.984l-9.725-.013.001 10.276zm25.133 5.143V42.859l-9.724.003v-6.243L12.029 48l11.38 11.38-.001-6.25zm22.861-17.161h-15.99l.012-9.725H29.743L48 8l18.258 18.258H55.984zm3.385-12.574L48 12.028l-11.38 11.38h6.249l-.012 9.725h10.286l-.013-9.725z"/></svg>