<svg xmlns="http://www.w3.org/2000/svg" viewBox="0 0 100 100"><path d="M74.8 77.8c-2.3-3-3.6-6.8-3.6-10.6V50.1c4.9-5.6 7.6-13.1 7-21.3-1.1-14-12.5-25.3-26.5-26.4-16.4-1.3-30.1 11-31.2 26.9v.7c0 2.6-1 6.7-2.2 9-1.3 2.4-2.6 4.8-3.7 6.5-1.1 1.7.1 3.9 2.1 3.9h3.8v13.9c0 2.8 2.3 5.1 5.1 5.1h10.5v5.3c0 3.6-1.4 7.1-4 9.6l-8 8.1c-2.3 2.4-.7 6.4 2.6 6.4h55.1c3.3 0 5.2-3.8 3.2-6.5L74.8 77.8zM49.4 48.7c-9.6 0-17.4-7.8-17.4-17.4 0-9.6 7.8-17.4 17.4-17.4 9.6 0 17.4 7.8 17.4 17.4 0 9.6-7.8 17.4-17.4 17.4zm9.9-17.4l-.8.8-2.3 2.3-3.3 3.3-2.8 2.8-3.1-3.1 2.8-2.8 1.1-1.1H39.4v-4.4h11.4L47 25.2l3.1-3.1 6.4 6.5 2.8 2.7z"/></svg>