<svg xmlns="http://www.w3.org/2000/svg" viewBox="0 0 100 100"><path d="M57.422 58.423h-7.75a3.446 3.446 0 0 0-3.442 3.441 3.446 3.446 0 0 0 3.442 3.442h7.75a3.446 3.446 0 0 0 3.442-3.442 3.446 3.446 0 0 0-3.442-3.441zm15.437-17.002l-27.345.001-5.104 8.122a.824.824 0 0 1-1.113.254.81.81 0 0 1-.255-1.114l10.357-16.48c.989-1.84.809-3.709-.482-5a3.422 3.422 0 0 0-2.434-1.006c-.921 0-1.786.358-2.41.983L29.347 40.91a19.141 19.141 0 0 0-5.641 13.622c0 10.628 8.646 19.274 19.274 19.274h1.688l-.622-1.404a5.002 5.002 0 0 1-.434-2.038c0-1.55.704-2.995 1.93-3.966l.786-.621-.622-.784a4.986 4.986 0 0 1-1.094-3.129c0-1.55.704-2.995 1.93-3.966l.786-.621-.622-.784a4.986 4.986 0 0 1-1.094-3.129 5.065 5.065 0 0 1 5.059-5.058H72.85a3.447 3.447 0 0 0 3.444-3.442 3.452 3.452 0 0 0-3.435-3.443zM53.422 66.923h-4.75a3.446 3.446 0 0 0-3.442 3.441 3.446 3.446 0 0 0 3.442 3.442h4.75a3.446 3.446 0 0 0 3.441-3.442 3.445 3.445 0 0 0-3.441-3.441zm6-17.001h-8.75a3.446 3.446 0 0 0-3.442 3.441 3.447 3.447 0 0 0 3.442 3.443h8.75a3.447 3.447 0 0 0 3.442-3.443 3.446 3.446 0 0 0-3.442-3.441z"/></svg>