<svg xmlns="http://www.w3.org/2000/svg" viewBox="0 0 100 100"><path fill="none" d="M.333 0h100v100h-100z"/><path d="M70.563 51.162c-.369 0-.738-.141-1.02-.422L39.989 21.187a1.442 1.442 0 0 1 2.039-2.039l29.554 29.553a1.442 1.442 0 0 1-1.019 2.461z"/><path d="M41.009 81.275a1.441 1.441 0 0 1-1.02-2.461l29.554-29.555a1.442 1.442 0 1 1 2.039 2.04L42.028 80.854c-.281.281-.65.421-1.019.421zm18.647-30.113c-.369 0-.738-.141-1.02-.422L29.083 21.187a1.442 1.442 0 1 1 2.04-2.039l29.553 29.553a1.442 1.442 0 0 1-1.02 2.461z"/><path d="M30.104 81.275a1.442 1.442 0 0 1-1.021-2.461l29.554-29.555a1.442 1.442 0 1 1 2.039 2.04L31.123 80.854c-.282.281-.65.421-1.019.421zm16.463-29.986c-.369 0-.738-.141-1.02-.422L29.413 34.734a1.442 1.442 0 1 1 2.04-2.039l16.133 16.132a1.442 1.442 0 0 1-1.019 2.462z"/><path d="M30.434 67.729a1.444 1.444 0 0 1-1.021-2.463l16.134-16.133a1.442 1.442 0 1 1 2.039 2.04L31.453 67.307a1.44 1.44 0 0 1-1.019.422z"/></svg>