<svg xmlns="http://www.w3.org/2000/svg" viewBox="0 0 612 792"><path d="M550.8 448.044c-4.284 0-7.344-3.672-7.344-7.344V318.3c0-4.284 3.672-7.344 7.344-7.344s7.344 3.06 7.344 7.344v122.4c0 4.284-3.06 7.344-7.344 7.344zm-306 168.912h122.4c4.284 0 7.344 3.672 7.344 7.344s-3.672 7.344-7.344 7.344H244.8c-4.284 0-7.344-3.672-7.344-7.344s3.06-7.344 7.344-7.344zm0-489.6h122.4c4.284 0 7.344 3.672 7.344 7.344s-3.672 7.344-7.344 7.344H244.8c-4.284 0-7.344-3.672-7.344-7.344s3.06-7.344 7.344-7.344zm-122.4 0h61.2c4.284 0 7.344 3.672 7.344 7.344s-3.672 7.344-7.344 7.344h-61.2c-29.376 0-53.856 23.868-53.856 53.856v61.2c0 4.284-3.672 7.344-7.344 7.344s-7.344-3.672-7.344-7.344v-61.2c0-37.944 30.6-68.544 68.544-68.544zm-61.2 367.2c4.284 0 7.344 3.672 7.344 7.344v61.2c0 29.376 23.868 53.856 53.856 53.856h61.2c4.284 0 7.344 3.672 7.344 7.344s-3.672 7.344-7.344 7.344h-61.2c-37.944 0-68.544-30.6-68.544-68.544v-61.2c0-4.284 3.06-7.344 7.344-7.344zm0-183.6c4.284 0 7.344 3.672 7.344 7.344v122.4c0 4.284-3.672 7.344-7.344 7.344s-7.344-3.672-7.344-7.344V318.3c0-4.284 3.06-7.344 7.344-7.344zm367.2 306h61.2c29.376 0 53.856-23.868 53.856-53.856v-61.2c0-4.284 3.672-7.344 7.344-7.344s7.344 3.06 7.344 7.344v61.2c0 37.944-30.6 68.544-68.544 68.544h-61.2c-4.284 0-7.344-3.672-7.344-7.344s3.06-7.344 7.344-7.344zm0-489.6h61.2c37.944 0 68.544 30.6 68.544 68.544v61.2c0 4.284-3.672 7.344-7.344 7.344s-7.344-3.672-7.344-7.344v-61.2c0-29.376-23.868-53.856-53.856-53.856h-61.2c-4.284 0-7.344-3.672-7.344-7.344s3.06-7.344 7.344-7.344zm-47.711 201.727c1.316 1.316.941 2.383-.921 2.383H254.651c-38.426 0-69.572 31.147-69.572 69.579 0 38.445 31.11 69.579 69.572 69.579h62.916c5.514 0 9.983-4.412 9.983-9.94 0-5.49-4.45-9.94-9.983-9.94h-62.916c-27.48 0-49.692-22.23-49.692-49.699 0-27.453 22.245-49.699 49.692-49.699h125.117c1.824 0 2.276 1.028.921 2.383l-23.723 23.723a9.913 9.913 0 0 0 .002 14.055c3.882 3.882 10.181 3.876 14.034.023l43.119-43.119c3.869-3.869 3.852-10.158 0-14.01l-43.119-43.119c-3.869-3.869-10.125-3.885-14.034.023-3.882 3.882-3.852 10.205-.002 14.055z"/></svg>