<svg xmlns="http://www.w3.org/2000/svg" viewBox="0 0 100 100"><path d="M69 33.328c-8.477-6.219-16.518-15.835-27.11-18.318-8.051-1.887-13.658 4.793-15.222 11.953-1.634 3.735-.495 10.819-.4 13.419.444 12.163-2.404 24.248-.368 36.408 1.478 8.83 6.473 14.276 15.809 13.294 9.626-1.013 17.839-11.052 25.04-16.603 6.601-5.089 16.919-9.049 18.393-18.351C86.59 45.979 75.243 37.909 69 33.328zm11.463 24.618c-3.454 6.301-11.428 9.226-16.818 13.528-6.026 4.809-11.605 10.365-18.527 13.901-3.55 1.814-8.049 2.004-11.5-.078-3.817-2.303-4.133-8.295-4.586-12.176-.234-1.988.968-45.038.968-45.038 1.639 0 1.932-2.348.885-3.196 1.119-2.811 3.057-5.314 5.839-6.323 4.352-1.579 9.287 1.488 12.752 3.761 6.657 4.366 12.466 10.148 18.9 14.869 5.83 4.276 16.585 12.546 12.087 20.752z"/><path d="M58.429 59.763c-2.121 2.46-16.341 15.249-19.192 12-1.491-1.7-3.957.786-2.475 2.475 3.193 3.639 9.288-.461 12.25-2.367 4.124-2.653 8.666-5.893 11.891-9.633 1.467-1.7-.997-4.188-2.474-2.475z"/></svg>