<svg xmlns="http://www.w3.org/2000/svg" viewBox="0 0 100 100"><path d="M76.362 53.986c2.205 0 3.673 1.76 3.203 3.919l-.04.144C76.009 70.71 64.399 80 50.619 80c-16.569 0-30-13.431-30-30 0-16.569 13.431-30 30-30 13.804 0 25.431 9.324 28.926 22.018.358 1.299.021.078.021.078.437 2.164-1 3.919-3.203 3.919H51.285c-.553 0-.684-.315-.29-.708 0 0 3.243-3.233 4.422-4.394 3.808-3.795-1.849-9.431-5.62-5.674L37.642 47.45a3.548 3.548 0 0 0-.014 4.974l12.17 12.338c3.77 3.757 9.427-1.88 5.656-5.637a1634.043 1634.043 0 0 1-4.458-4.428c-.393-.392-.263-.71.289-.71z"/></svg>