<svg xmlns="http://www.w3.org/2000/svg" viewBox="0 0 100 100"><path fill="none" d="M75.394 47.674c-.182-1.874-.448-3.742-.934-5.56-.582 1.63-1.04 3.308-1.564 4.953.853.125 1.704.264 2.498.607zm.173 1.397a.36.36 0 0 1-.064-.176c-.01-.128-.022-.256-.033-.383-.866-.481-1.822-.654-2.787-.798-.684 2.05-1.52 4.028-2.881 5.774a45.264 45.264 0 0 0 5.765-4.417zm4.472-13.487c.402 2.185 1.252 4.219 2.024 6.29.241-.327.481-.654.715-.988-.437-1.513-.763-3.065-1.252-4.562a3.492 3.492 0 0 0-.9-1.776c-.208.303-.431.595-.648.891.029.038.05.085.061.145zm-1.373 6.3c-.413 1.722-.79 3.451-1.036 5.206a48.467 48.467 0 0 0 3.847-4.437c-.918-.324-1.864-.547-2.811-.769zM16.701 60.137a.671.671 0 0 1 .308-.08.658.658 0 0 1 .668-.014c1.467-.088 3.184-.642 3.421-2.318.21-1.489-.704-3.185-2.077-3.843-1.789-.858-3.955-.732-5.891-.8-1.678-.059-3.609-.061-5.27-.605 1.052 2.243 1.683 4.685 2.028 7.139.328 2.334 1.265 6.037 4.537 5.645 2.223-.266 2.087-2.915 1.915-4.489-.037-.335.13-.545.361-.635zM72.194 46.96c.484-1.52.903-3.071 1.414-4.577-1.315 1.057-3.171 2.525-3.98 3.767.796.472 1.673.667 2.566.81zm5.781-5.242a20.56 20.56 0 0 1-1.791-.514c.303 1.395.702 2.768 1.007 4.16.226-1.223.496-2.436.784-3.646zm-5.993 5.891c-.927-.143-1.843-.333-2.675-.815-.064.195-.101.382-.078.553.23 1.736.505 3.424.43 5.143 1.05-1.496 1.746-3.16 2.323-4.881zm16.123-1.74c.49.784 1.005 1.555 1.559 2.309l.017-.019c1.448-1.685 2.867-3.4 4.201-5.178-1.823 1.054-3.759 2.104-5.777 2.888zm-6.822-4.039c-.549-1.462-1.127-2.909-1.548-4.408-.284 1.262-.596 2.518-.902 3.776.822.19 1.646.378 2.45.632zm-5.266-1.458a.263.263 0 0 0 .003.013c.689.272 1.4.474 2.119.648.346-1.432.703-2.861 1.016-4.301.042-.192.191-.263.341-.252-.023-.099-.042-.199-.063-.298-1.065 1.415-2.25 2.758-3.487 4.036.033.04.059.089.071.154zm.137 7.743a.35.35 0 0 1 .028.324l.005.063c.246-.23.49-.463.731-.698a.287.287 0 0 1-.075-.249c-.236-2.269-1.01-4.429-1.452-6.659l-.084-.035c-.12.12-.238.243-.359.362.677 2.238.997 4.566 1.206 6.892zm-1.484 6.162c-.432.327-.868.648-1.311.961 1.991 1.185 4.161 2.752 6.525 2.492a.294.294 0 0 1 .225.062c.394-.363.771-.736 1.125-1.066-2.401-.076-4.718-.888-6.564-2.449zm5.747-1.772c-.153-1.053-.269-2.106-.233-3.172a42.19 42.19 0 0 1-4.163 3.884c1.472-.214 2.939-.443 4.396-.712z"/><path fill="none" d="M80.842 55.982c-.052-.932-.182-1.852-.32-2.769-1.673.307-3.358.561-5.048.803 1.552 1.194 3.422 1.83 5.368 1.966zm6.187-10.481a33.847 33.847 0 0 1-1.668-3.211 34.912 34.912 0 0 1-2.705 4.118c1.491-.081 2.952-.417 4.373-.907zM72.706 55.688c-.499.34-1.003.674-1.515.997 1.544.742 3.136 1.445 4.561 2.393 1.235.822 2.451.274 3.562-.601-2.394-.003-4.591-1.627-6.608-2.789zm8.5-2.601c.152.97.301 1.943.355 2.922.153.001.306.004.46-.002a82.875 82.875 0 0 0 4.311-4.177c-1.689.518-3.4.923-5.126 1.257zm.554-5.549c-.245.297-.494.59-.748.879 2.115 1.102 4.401 1.869 6.805 1.841.243-.266.477-.539.717-.808-2.369-.019-4.764-.653-6.774-1.912zm10.305-4.355c-1.798.048-4.277-.349-5.852-.764.461.971.959 1.916 1.506 2.832 1.499-.572 2.951-1.299 4.346-2.068zm-4.647 2.941c-1.593.562-3.233.939-4.908 1.009 2.01 1.147 4.351 1.686 6.665 1.594l.006-.007c-.009-.01-.021-.015-.03-.027a37.274 37.274 0 0 1-1.733-2.569zm-6.525 3.042c-.067 1.077.047 2.146.204 3.213 1.911-.372 3.803-.83 5.666-1.436-2.054-.161-4.027-.842-5.87-1.777z"/><path d="M61.256 58.579c9.151-3.438 16.613-9.398 22.195-17.404a.298.298 0 0 0 .048-.278.353.353 0 0 0-.012-.142c-.724-2.487-1.255-5-2.335-7.365-.119-.262-.485-.203-.62 0-1.771 2.674-3.863 5.065-6.109 7.32a.336.336 0 0 0-.26.262 94.99 94.99 0 0 1-2.773 2.644c-.484.444-3.041 2.135-2.975 2.789.249 2.468.838 4.893.396 7.375a.361.361 0 0 0 .071.293 45.786 45.786 0 0 1-7.817 3.814c-.429.161-.243.856.191.692zm7.973-11.232c-.023-.171.014-.359.078-.553.832.482 1.748.672 2.675.815-.577 1.721-1.273 3.385-2.323 4.881.075-1.718-.199-3.406-.43-5.143zm6.079-6.486l.084.035c.442 2.23 1.216 4.39 1.452 6.659a.287.287 0 0 0 .075.249 43.7 43.7 0 0 1-.731.698l-.005-.063a.35.35 0 0 0-.028-.324c-.209-2.326-.529-4.654-1.205-6.892l.358-.362zm5.975.969c-.804-.255-1.628-.442-2.451-.632.306-1.258.619-2.514.902-3.776.422 1.499.999 2.947 1.549 4.408zm-1.787-5.349c-.15-.011-.299.06-.341.252-.313 1.44-.67 2.869-1.016 4.301a16.292 16.292 0 0 1-2.119-.648l-.003-.013a.32.32 0 0 0-.071-.153c1.237-1.278 2.422-2.62 3.487-4.036.021.098.04.198.063.297zm-1.521 5.237a72.075 72.075 0 0 0-.783 3.646c-.305-1.393-.704-2.765-1.007-4.16.587.202 1.186.366 1.79.514zm-2.581 5.956c-.794-.343-1.645-.482-2.499-.608.524-1.645.982-3.323 1.564-4.953.487 1.819.753 3.687.935 5.561zm.076.838l.033.383a.36.36 0 0 0 .064.176 45.406 45.406 0 0 1-5.765 4.417c1.361-1.746 2.197-3.724 2.881-5.774.965.144 1.921.317 2.787.798zm2.16-1.422c.246-1.755.623-3.484 1.036-5.206.946.222 1.893.445 2.811.769a48.202 48.202 0 0 1-3.847 4.437zm2.996-12.542c.473.506.773 1.098.9 1.776.489 1.496.814 3.049 1.252 4.562-.234.334-.474.661-.715.988-.772-2.071-1.622-4.105-2.024-6.29a.355.355 0 0 0-.061-.145c.217-.296.44-.588.648-.891zm-7.018 7.835c-.511 1.506-.931 3.057-1.414 4.577-.893-.142-1.77-.338-2.566-.81.809-1.243 2.665-2.71 3.98-3.767zM52.637 61.596c1.776-.58 3.593-1.034 5.258-1.903.411-.214.048-.834-.363-.621-1.609.84-3.37 1.271-5.086 1.832-.438.143-.251.837.191.692z"/><path d="M94.634 42.215c-.228.002-.457.008-.685.012a.316.316 0 0 0-.164.003c-2.696.057-5.395.178-7.984-.687-.016-.037-.035-.071-.051-.108-.074-.171-.219-.209-.354-.171-.297-.33-.875-.416-1.151.086a33.844 33.844 0 0 1-3.264 4.874c-.143.026-.251.166-.271.328-6.597 8.038-16.599 13.108-26.457 15.91-11.064 3.145-24.049 3.701-34.636-1.41.285-.115.548-.253.795-.407a.356.356 0 0 0 .112.085c8.504 4.047 20.279 4.615 29.096 1.297.429-.161.243-.856-.191-.692-8.552 3.217-20.094 2.73-28.389-1.158 1.771-1.574 2.018-4.293-.178-6.669-1.451-1.57-3.777-1.679-5.764-1.792-2.54-.146-7 .505-8.721-1.842-.298-.428-.827-.382-1.133-.123-.241.195-.349.518-.107.848 1.956 2.812 2.822 6.056 3.365 9.398.439 2.704.945 4.542 3.417 6.044 3.72 2.261 5.827-1.051 5.898-4.292 11.185 5.924 24.909 5.34 36.819 2.098 5.413-1.474 10.879-3.7 15.83-6.714 2.203 1.084 4.365 2.122 6.365 3.566.096.07.265.066.363 0 4.054-2.744 7.754-6.113 11.113-9.784a.324.324 0 0 0 .108-.119c2.343-2.57 4.52-5.285 6.53-8.041.163-.225-.059-.543-.311-.54zm-80.21 23.044c-3.272.392-4.209-3.311-4.537-5.645-.345-2.453-.976-4.896-2.028-7.139 1.661.544 3.592.546 5.27.605 1.936.068 4.102-.058 5.891.8 1.374.659 2.287 2.355 2.077 3.843-.236 1.676-1.953 2.23-3.421 2.318a.66.66 0 0 0-.668.014.684.684 0 0 0-.308.08c-.231.091-.398.3-.361.634.172 1.575.308 4.225-1.915 4.49zm75.257-17.1l-.017.019a37.065 37.065 0 0 1-1.559-2.309c2.018-.783 3.954-1.834 5.776-2.888-1.333 1.778-2.752 3.493-4.2 5.178zm-.506.569c-2.313.092-4.655-.447-6.665-1.594 1.674-.07 3.315-.447 4.908-1.009a36.819 36.819 0 0 0 1.734 2.569c.009.012.021.017.03.027l-.007.007zm-1.357 1.53c-2.404.029-4.69-.739-6.805-1.841.254-.289.503-.582.748-.879 2.01 1.259 4.405 1.893 6.775 1.912-.241.269-.475.542-.718.808zm-6.925-1.092c1.843.935 3.816 1.616 5.87 1.777-1.863.606-3.755 1.064-5.666 1.436-.157-1.067-.27-2.136-.204-3.213zm11.172-5.983c-1.395.769-2.847 1.496-4.346 2.068a33.722 33.722 0 0 1-1.506-2.832c1.575.415 4.054.812 5.852.764zm-6.703-.893a33.389 33.389 0 0 0 1.668 3.211c-1.422.489-2.882.825-4.373.907a34.912 34.912 0 0 0 2.705-4.118zm-5.178 7.043c-.036 1.066.081 2.12.233 3.172-1.458.269-2.924.498-4.396.712a42.423 42.423 0 0 0 4.163-3.884zm-.074 8.46a.294.294 0 0 0-.225-.062c-2.364.259-4.534-1.307-6.525-2.492.443-.313.879-.634 1.311-.961 1.845 1.561 4.162 2.373 6.565 2.45-.355.329-.732.701-1.126 1.065zm.732-1.811c-1.946-.136-3.816-.773-5.369-1.965 1.69-.242 3.375-.497 5.048-.803.139.916.269 1.836.321 2.768zm-5.089 3.096c-1.426-.948-3.017-1.651-4.561-2.393a49.43 49.43 0 0 0 1.515-.997c2.017 1.163 4.213 2.786 6.609 2.789-1.113.874-2.328 1.423-3.563.601zm6.268-3.071c-.154.005-.307.003-.46.002-.055-.979-.204-1.952-.355-2.922a49.507 49.507 0 0 0 5.127-1.257 83.295 83.295 0 0 1-4.312 4.177z"/></svg>