<svg xmlns="http://www.w3.org/2000/svg" data-name="Your Icon" viewBox="0 0 90 90"><path d="M44.83 58.62V31.54L24.94 45.08zm-1.42-24.4v21.72l-16-10.86z"/><path d="M63.7 58.62V31.54L43.81 45.08zm-1.42-24.4v21.72l-16-10.86zM25.24 58a.71.71 0 0 0 .76-.72v-24.4a.71.71 0 1 0-1.42 0v24.4a.71.71 0 0 0 .66.72z"/><path d="M25.24 32.26a.61.61 0 0 1 .61.61v11.69l18.88-12.84v12.84l18.88-12.84v26.72L44.73 45.59v12.85L25.86 45.59v11.69a.615.615 0 1 1-1.23 0v-24.4a.61.61 0 0 1 .61-.62zm37.14 23.86V34L46.16 45zm-18.87 0V34L27.29 45zM44.6 90a45.54 45.54 0 0 0 6.4-.4l-.37-2.81a42.62 42.62 0 0 1-6 .37zM.4 51l2.81-.38a42.61 42.61 0 0 1-.38-6v-.1H0v.14A45.58 45.58 0 0 0 .4 51zm86.76-5.59l2.84.02v-.05a45.64 45.64 0 0 0-.39-6.38l-2.81.4a42.71 42.71 0 0 1 .37 5.93v.07zM39.44 3.2a42.68 42.68 0 0 1 5.9-.36h.1V.01h-.1a45.55 45.55 0 0 0-6.31.39z"/><path d="M45.22 87.51a42.56 42.56 0 0 0 41.57-33.88.352.352 0 1 0-.69-.14 41.75 41.75 0 0 1-61.25 28 .356.356 0 1 0-.35.62 42.46 42.46 0 0 0 20.72 5.4zM5 33a.35.35 0 0 0 .34-.25 41.52 41.52 0 0 1 39.88-29.4.355.355 0 1 0 0-.71A42.22 42.22 0 0 0 4.65 32.57a.35.35 0 0 0 .23.44z"/><path d="M45 82.19A37.07 37.07 0 1 0 7.93 45.12 37.12 37.12 0 0 0 45 82.19zm0-72a34.95 34.95 0 1 1-34.95 34.93A35 35 0 0 1 45 10.17z"/></svg>