<svg xmlns="http://www.w3.org/2000/svg" viewBox="0 0 100 100"><path d="M7.291 22.762c.24.317.477.636.74.933 2.174 2.459 4.1 5.115 6.114 7.701 1.67 2.143 3.286 4.355 5.183 6.283 1.632 1.658 3.04 3.496 4.58 5.22 1.454 1.627 2.846 3.323 4.301 4.96 1.577 1.776 3.04 3.658 4.665 5.388 1.581 1.682 3.063 3.452 4.775 5.027 1.323 1.217 2.643 2.493 3.788 3.881a49.842 49.842 0 0 0 4.033 4.329c2.282 2.178 4.59 4.339 7.377 6.274 4.565-2.344 8.7-5.648 13.35-8.097 4.688-2.469 9.29-5.104 14.177-7.803-2.778-.774-5.506-.384-7.919-1.416.097-.88.655-1.078 1.152-1.331a.407.407 0 0 1 .166-.037c2.151-.114 4.304-.333 6.453-.308 2.265.026 4.514.039 6.773-.201 1.176-.125 2.123-1.02 3.174-1.027 1.576-.011 3.252-.335 4.805.534.133.994-.427 1.88-1.082 2.346-1.076.764-1.596 1.855-2.315 2.841-.265.363-.605.67-.905 1.008-.49.552-1.097 1.041-1.442 1.673-1.337 2.445-3.09 4.624-4.406 7.086-.632 1.183-1.166 2.473-2.222 3.393-.303.265-.633.53-1.06.245-.412-.276-.43-.685-.187-1.047.464-.693.51-1.498.685-2.265.674-2.941 1.468-5.83 3.28-8.321.287-.395.533-.807.364-1.423-1.343.816-2.76 1.123-4.004 1.799-4.187 2.274-8.538 4.255-12.492 6.952-3.948 2.693-8.343 4.633-12.334 7.252-1.262.828-2.7 1.481-3.418 2.968-.264.548-.812.549-1.334.447-.459-.09-.837-.357-1.18-.656-3.072-2.676-6.318-5.163-9.004-8.261-.407-.47-.81-.957-1.289-1.348-2.647-2.169-4.81-4.786-6.973-7.41-1.37-1.664-2.725-3.347-4.186-4.931-1.728-1.872-3.329-3.844-4.9-5.842-2.627-3.337-5.12-6.776-7.719-10.132a296.647 296.647 0 0 1-7.473-10.119C7.88 27.208 6.723 24.855 5 22.742c1.24-1.101 1.452-1.091 2.291.02z"/></svg>