<svg xmlns="http://www.w3.org/2000/svg" version="1" viewBox="0 0 100 100"><path d="M36.03 49.5a.5.5 0 0 1 .5.5v24.007h48.017V25.992H36.53v9.303a.5.5 0 0 1-1 0v-9.803a.5.5 0 0 1 .5-.5h49.017a.5.5 0 0 1 .5.5v49.016a.5.5 0 0 1-.5.5H36.03a.5.5 0 0 1-.5-.5V50a.5.5 0 0 1 .5-.5z"/><path d="M14.727 41.529l8.538-5.438a.6.6 0 1 1 .644 1.013l-6.958 4.431h32.358c3.104 0 5.63 2.973 5.63 6.627v9.803a.5.5 0 1 1-1 0v-9.803c0-3.103-2.077-5.627-4.63-5.627H16.952l6.958 4.431a.601.601 0 0 1-.644 1.013l-8.538-5.438a.599.599 0 0 1-.001-1.012z"/></svg>