<svg xmlns="http://www.w3.org/2000/svg" data-name="Layer 1" viewBox="0 0 90 90"><path d="M31.588 58.783a.5.5 0 0 0 .48-.361l7.7-26.566a.5.5 0 0 0-.678-.6L6.052 45.476a.5.5 0 0 0-.02.909l25.334 12.348a.5.5 0 0 0 .222.05zm6.925-26.188l-7.242 24.979L7.45 45.965z"/><path d="M43.496 38.433l-3.19 6.263-2.893.304-1.25 5.5 1.281.48-8.53 16.074L6.25 45.936l25.335 12.347 7.661-26.633z"/><path d="M36.163 51h42.5a.5.5 0 0 0 .5-.5V45a.5.5 0 0 0-.5-.5h-41.25a.5.5 0 0 0-.487.389l-1.25 5.5a.5.5 0 0 0 .487.611zm42-1H36.788l1.023-4.5h40.352z"/><path d="M83.038 50.5l-2.875 5-45.062-.591 1.062-4.409h42.5V45z"/></svg>