<svg xmlns="http://www.w3.org/2000/svg" viewBox="0 0 100 100"><path d="M45.4 62.6c.2.2.5.3.7.3s.5-.1.7-.3L58.4 51c.5-.5.5-1.3 0-1.9L46.8 37.4c-.4-.4-1-.4-1.4 0s-.4 1 0 1.4L56.6 50 45.4 61.2c-.4.3-.4 1 0 1.4z"/><path d="M50 14c-19.9 0-36 16.1-36 36s16.1 36 36 36c8.4 0 16.5-2.9 22.9-8.2.4-.4.5-1 .1-1.4-.4-.4-1-.5-1.4-.1-6 4.9-13.7 7.7-21.6 7.7-18.7 0-34-15.3-34-34s15.3-34 34-34 34 15.3 34 34c0 8.8-3.3 17.1-9.4 23.4-.4.4-.4 1 0 1.4.4.4 1 .4 1.4 0 6.5-6.7 10-15.5 10-24.8 0-19.9-16.1-36-36-36z"/></svg>