<svg xmlns="http://www.w3.org/2000/svg" viewBox="0 0 32 32"><path d="M13.369 21.809v-.001l-1.248 1.268 2.336 2.481 8.915-9.057h-4.778zm3.822-6.309l-3.807-3.867-.81.86 2.961 3.007zm0 1h-1.656l-2.961 3.007.81.86z"/><path d="M16 0C7.163 0 0 7.163 0 16s7.163 16 16 16 16-7.163 16-16S24.837 0 16 0zm-1.559 26.998l-3.709-3.938 1.95-1.981-1.497-1.589L14.623 16l-3.438-3.491 1.497-1.589-1.95-1.981 3.709-3.938L25.267 16 14.441 26.998z"/><path d="M13.369 10.192v-.001l5.225 5.309h4.778l-8.915-9.057-2.336 2.481z"/></svg>