<svg xmlns="http://www.w3.org/2000/svg" viewBox="0 0 100 100"><path d="M27.143 50.925h8.893a6.014 6.014 0 0 0-.519 2.441 6.055 6.055 0 0 0 2.979 5.209 6.018 6.018 0 0 0-.979 3.291c0 2.84 1.966 5.223 4.606 5.875a6.005 6.005 0 0 0-.606 2.625 6.065 6.065 0 0 0 6.058 6.059h9.443c12.07 0 21.891-9.82 21.891-21.891a21.745 21.745 0 0 0-6.406-15.472L57.754 25.313c-2.316-2.316-6.16-2.316-8.523.044-2.146 2.147-2.489 5.275-.894 8.164.017.03.034.06.052.088l3.269 5.199H27.167l-.02-.002a6.067 6.067 0 0 0-6.06 6.06 6.066 6.066 0 0 0 6.056 6.059zm17.99 19.441a2.444 2.444 0 0 1 2.441-2.441h3.751a2.443 2.443 0 0 1 0 4.884h-3.751a2.444 2.444 0 0 1-2.441-2.443zm-4.001-8.5a2.445 2.445 0 0 1 2.442-2.441h6.75a2.443 2.443 0 0 1 2.442 2.441 2.444 2.444 0 0 1-2.442 2.443h-6.75a2.444 2.444 0 0 1-2.442-2.443zm.443-10.941h7.75a2.444 2.444 0 0 1 2.443 2.441 2.444 2.444 0 0 1-2.443 2.443h-7.75a2.445 2.445 0 0 1-2.442-2.443 2.444 2.444 0 0 1 2.442-2.441zm-16.872-6.059a2.445 2.445 0 0 1 2.434-2.442l.009.001H53.93l4.811 7.653a1.806 1.806 0 0 0 2.492.57 1.807 1.807 0 0 0 .57-2.493L51.48 31.732c-.387-.719-1.07-2.44.309-3.818a2.448 2.448 0 0 1 3.455.001l14.701 13.704a18.156 18.156 0 0 1 5.348 12.915c0 10.076-8.199 18.275-18.275 18.275h-.152c.332-.748.52-1.574.52-2.443a6.047 6.047 0 0 0-2.311-4.75 6.017 6.017 0 0 0 1.311-3.75 6.047 6.047 0 0 0-2.311-4.75 6.017 6.017 0 0 0 1.311-3.75 6.066 6.066 0 0 0-6.06-6.058H27.147a2.445 2.445 0 0 1-2.444-2.442z"/></svg>