<svg xmlns="http://www.w3.org/2000/svg" viewBox="0 0 96 96"><path d="M48 94C22.636 94 2 73.368 2 48 2 22.636 22.636 2 48 2s46 20.636 46 46-20.636 46-46 46zm0-88C24.84 6 6 24.84 6 48s18.84 42 42 42 42-18.84 42-42S71.16 6 48 6z"/><path d="M57.228 68.832a2 2 0 0 1-1.484-3.336l15.672-17.412-15.672-17.412a2 2 0 0 1 .148-2.824 2 2 0 0 1 2.828.148l16.876 18.752c.68.76.68 1.916 0 2.676L58.72 68.176c-.4.436-.948.656-1.492.656z"/><path d="M74.084 50.148h-52a2 2 0 0 1 0-4h52a2 2 0 0 1 0 4z"/><path d="M20.084 64.148c-1.104 0-2-.9-2-2v-28a2 2 0 0 1 4 0v28a2 2 0 0 1-2 2z"/></svg>