<svg xmlns="http://www.w3.org/2000/svg" viewBox="0 0 90 52.482"><switch transform="matrix(-1 0 0 1 90 0)"><g><path d="M59.131 0c-9.157 4.499-15.63 13.505-16.415 24.071l-4.827-4.826L0 26.241l37.889 6.996 4.827-4.826c.785 10.564 7.259 19.572 16.415 24.071-5.229-7.455-8.293-16.495-8.293-26.241 0-9.747 3.064-18.786 8.293-26.241z"/><path d="M63.255 26.241c0-7.047 3.065-13.582 8.294-18.973-9.777 3.474-16.498 10.662-16.498 18.973 0 8.31 6.721 15.499 16.498 18.972-5.229-5.39-8.294-11.926-8.294-18.972z"/><circle cx="79.097" cy="26.241" r="10.903"/></g></switch></svg>