<svg xmlns="http://www.w3.org/2000/svg" viewBox="0 0 100 100"><path d="M82.42 48.612c.001 20.3-16.455 36.756-36.755 36.756-20.3 0-36.756-16.456-36.756-36.756s16.456-36.756 36.756-36.756S82.42 28.312 82.42 48.612zm-73.011 0c0 19.991 16.265 36.256 36.256 36.256S81.921 68.604 81.92 48.612c0-19.991-16.264-36.256-36.255-36.256-19.991 0-36.256 16.265-36.256 36.256z"/><path d="M81.42 48.612c.001 19.716-16.039 35.756-35.755 35.756S9.909 68.328 9.909 48.612s16.04-35.756 35.756-35.756S81.42 28.896 81.42 48.612zm-61.04.06l25.634 17.97.052-10.177H70.95l-.001-15.704h-24.92l.036-10.18z"/><path d="M70.212 40.761h-.781v15.704h.781zm-1.471 0h-.781v15.704h.781zm-1.519 0h-.781v15.704h.781z"/></svg>