<svg xmlns="http://www.w3.org/2000/svg" viewBox="0 0 595.28 638"><path d="M79.608 291.589c3.12-6.453 9.806-12.038 14.67-16.465 9.706-8.831 20.017-17.013 30.329-25.115 29.225-22.963 59.229-44.942 89.532-66.455 25.68-18.229 51.44-37.493 78.993-52.864 7.17-4.001 16.102-2.635 21.57 3.14 4.656 3.171 7.762 8.513 7.762 14.471v71.238c1.991-.193 3.982-.385 5.974-.58 5.556-.545 11.11-1.102 16.656-1.732 1.026-.116 2.052-.24 3.077-.365 1.295-.189 2.591-.396 3.862-.708 10.087-2.478 21.296-2.529 31.63-3.88l1.158-.157 3.798-.525c3.171-.44 6.34-.893 9.509-1.344 5.717-.813 11.432-1.632 17.151-2.427 21.368-2.974 42.811-5.716 64.383-6.37a16.97 16.97 0 0 1 2.138-.149h6.379c1.572 0 3.095.235 4.553.639 2.957-.737 6.058-.791 8.885-.014 9.768 2.687 13.971 12.159 12.223 21.527a178.473 178.473 0 0 0-.697 3.852c.037-.212-.567 3.744-.613 3.845-.373 2.938-.658 5.886-.911 8.837-.548 6.403-.737 12.834-.79 19.259-.102 12.855.726 25.708 1.71 38.519 1.975 25.651 4.82 51.269 3.927 77.037a18.706 18.706 0 0 1-2.99 9.541c-1.792 5.46-6.036 10.124-11.857 11.334-14.303 2.973-29.207 2.786-43.732 2.361-18.675-.546-37.324-2.041-55.926-3.742-25.273-2.311-50.451-5.425-75.66-8.289-.434 24.153-1.584 48.312-1.167 72.462.108 6.262-3.42 11.826-8.513 14.923a17.897 17.897 0 0 1-2.28 2.784c-6.34 6.341-18.556 7.267-24.748 0-1.423-1.669-3.229-3.05-4.915-4.437a231.91 231.91 0 0 0-4.77-3.803c-.653-.501-1.307-1.003-1.961-1.502-10.277-7.835-20.709-15.469-31.136-23.104-27.916-20.443-55.961-40.709-83.764-61.306-18.857-13.971-37.654-28.052-55.987-42.707-10.055-8.038-22.317-16.499-29.205-27.683-3.92-6.365-2.793-14.526 1.753-20.046zm234.319-36.183l-1.005.108c-.63.21-.264.394 1.005-.108zm141.339 107.541c8.563-5.556 17.237-10.942 25.91-16.325a532.305 532.305 0 0 0-.366-6.913c-12.487 7.365-25.311 14.187-37.044 22.721 3.832.202 7.665.379 11.5.517zm20.916.211a283.214 283.214 0 0 1 5.399-4.192 412.027 412.027 0 0 0-.074-3.522c-3.793 2.453-7.462 5.102-11.112 7.779 1.93-.002 3.858-.025 5.787-.065zm2.464-.048c.416-.013.832-.04 1.247-.055a17.57 17.57 0 0 1 1.725-.728c-.004-.606-.005-1.213-.013-1.82a231.769 231.769 0 0 0-3.416 2.611c.152-.003.305-.003.457-.008zm-10.354.115c4.324-3.182 8.658-6.349 13.172-9.234-.06-1.979-.136-3.958-.223-5.937-7.962 4.939-15.92 9.884-23.793 14.963 3.614.116 7.229.19 10.844.208zm-192.888 57.908c5.127-3.101 10.181-6.324 15.274-9.477.09-3.301.179-6.602.266-9.903-7.179 5.005-14.257 10.166-21.613 14.909 2.026 1.488 4.049 2.979 6.073 4.471zm10.498 7.772c1.438 1.071 2.866 2.159 4.301 3.236.055-3.067.113-6.136.187-9.204a88.82 88.82 0 0 1-6.5 4.478c.669.498 1.342.991 2.012 1.49zm-3.093-2.29a87.27 87.27 0 0 0 7.62-5.277c.067-2.729.134-5.458.208-8.187-4.716 2.927-9.401 5.906-14.146 8.786 2.108 1.557 4.214 3.116 6.318 4.678zM135.543 317.539a1095.87 1095.87 0 0 0 8.197 6.418l1.222.94c1.715 1.32 3.435 2.635 5.155 3.948 27.702 21.142 55.901 41.63 84.062 62.154 11.363 8.282 22.738 16.552 34.074 24.873 7.746-4.969 15.176-10.413 22.729-15.664.056-2.135.112-4.27.161-6.404-9.055 6.086-18.063 12.243-28.18 16.499-.742.313-1.063-.897-.332-1.205 10.257-4.314 19.365-10.61 28.547-16.79.078-3.48.146-6.961.196-10.441-10.669 6.319-20.78 13.791-31.595 19.707-.707.387-1.338-.693-.631-1.08 11.035-6.036 21.336-13.669 32.238-20.068.023-1.816.031-3.633.043-5.449-10.605 6.705-21.188 13.444-32.317 19.265-.714.373-1.346-.706-.631-1.08 11.354-5.938 22.139-12.832 32.96-19.67.004-.897.021-1.794.021-2.691 0-.287.03-.568.045-.853-9.857 6.149-19.749 12.235-30.396 16.96-.729.323-1.366-.753-.631-1.08 10.928-4.849 21.061-11.133 31.177-17.447.128-.887.311-1.757.568-2.599-9.705 4.791-19.903 8.73-29.114 14.46-.687.427-1.313-.655-.631-1.08 9.589-5.964 20.28-9.966 30.347-15.036a17.677 17.677 0 0 1 1.741-3.164c2.509-6.718 8.993-12.459 16.394-11.661 29.93 3.226 59.775 7.093 89.756 9.88 13.676 1.271 27.375 2.393 41.092 3.15 12.258-9.12 25.779-16.255 38.909-24.023a735.312 735.312 0 0 0-.444-6.631c-16.231 8.207-32.258 16.864-46.367 28.469-.617.507-1.508-.372-.885-.885 14.352-11.803 30.648-20.591 47.157-28.932a978.104 978.104 0 0 0-.509-6.622c-17.029 8.924-34.252 17.967-47.764 31.771-.564.577-1.448-.307-.885-.883 13.728-14.026 31.25-23.17 48.541-32.238-.114-1.422-.229-2.844-.348-4.266-17.74 10.223-35.216 20.959-51.436 33.485-.638.492-1.259-.595-.631-1.08 16.377-12.647 34.035-23.472 51.953-33.784l-.524-6.271c-18.694 10.68-36.804 22.33-54.132 35.136-.649.479-1.271-.606-.631-1.08 17.488-12.923 35.77-24.672 54.648-35.434-.294-3.504-.584-7.008-.861-10.512-19.375 10.8-38.154 22.635-55.695 36.261-.629.487-1.521-.391-.885-.885 17.787-13.815 36.821-25.809 56.473-36.743-.035-.448-.072-.897-.106-1.346a569.089 569.089 0 0 1-.567-8.213c-20.69 11.23-40.629 24.255-58.248 39.853-.602.533-1.489-.348-.885-.883 17.857-15.809 38.067-28.992 59.047-40.343a458.03 458.03 0 0 1-.404-8.008c-21.16 10.8-41.248 24.168-58.424 40.567-.583.556-1.469-.327-.885-.885 17.408-16.621 37.787-30.151 59.252-41.052a393.529 393.529 0 0 1-.232-7.975c-21.123 9.273-40.002 23.169-58.135 37.245-.629.487-1.521-.391-.885-.885 18.408-14.288 37.535-28.341 59-37.7-.06-3.879-.06-7.755.015-11.628-1.697 1.153-3.318 2.485-4.674 3.394-4.088 2.74-8.093 5.613-12.25 8.25-13.7 8.688-27.698 17.826-39.874 28.569-.602.53-1.489-.35-.883-.885 12.396-10.937 26.598-19.357 40.126-28.765 4.037-2.807 8.173-5.499 12.25-8.249 1.546-1.044 3.401-2.583 5.334-3.825.074-3.095.195-6.188.367-9.278-6.14 4.011-14.165 10.285-15.457 11.207-14.253 10.172-28.688 20.226-42.403 31.128-.625.495-1.516-.383-.885-.885 14.651-11.646 30.23-22.045 45.235-33.206 1.351-1.005 7.991-6.712 13.631-10.181.109-1.745.237-3.49.381-5.234-20.335 14.922-40.378 30.282-61.822 43.604-.687.427-1.313-.655-.631-1.08 21.602-13.418 41.78-28.906 62.269-43.931-6.89.265-13.77.708-20.644 1.317-.589.052-1.175.119-1.764.175-15.005 12.113-31.217 22.531-47.897 32.186-.699.404-1.328-.676-.631-1.08 16.074-9.303 31.717-19.309 46.25-30.881-4.362.431-8.721.904-13.074 1.422-.144.018-.287.037-.432.054-12.707 8.84-27.34 14.396-40.113 23.151-.667.457-1.291-.627-.631-1.08 12.076-8.277 25.815-13.694 38.018-21.73-1.487.187-2.977.367-4.464.559-4.127.529-2.663.343-6.788.912-10.789 1.49-21.563 3.083-32.355 4.556-6.59.898-13.184 1.771-19.787 2.567a635.527 635.527 0 0 1-11.192 1.236c-4.094 1.218-8.785 1.397-12.928 1.915-5.353.668-10.722 1.203-16.089 1.74-5.269.526-10.54 1.026-15.809 1.557-.325.033-.65.071-.975.104a16.84 16.84 0 0 1-5.891 1.056c-4.416-.021-8.824-1.313-12.273-3.842a17.86 17.86 0 0 1-1.523-.857c-.729.614-1.438 1.221-2.123 1.793-4.253 3.554-8.351 7.422-13.191 10.181-.701.399-1.331-.681-.631-1.08 5.467-3.115 10.078-7.583 14.91-11.599a17.994 17.994 0 0 1-4.035-4.093c-8.334 5.094-16.606 10.293-24.91 15.438-.688.426-1.314-.656-.631-1.08 8.287-5.135 16.543-10.323 24.861-15.408a17.281 17.281 0 0 1-2.365-6.611c-11.406 6.49-23.458 11.922-35.199 17.766-.719.357-1.353-.721-.631-1.08 11.901-5.922 24.147-11.41 35.7-18.026-.02-.333-.052-.664-.052-1.001v-9.282c-10.672 6.539-22.453 11.64-33.018 18.057-.691.419-1.318-.662-.631-1.08 10.771-6.541 22.82-11.701 33.648-18.438v-7.011c-11.912 9.27-24.858 17.271-38.351 23.861-.722.352-1.355-.726-.631-1.08 13.738-6.71 26.904-14.875 38.981-24.364v-7.028c-1.68 1.122-3.301 2.178-4.768 3.169-10.532 7.12-21.665 13.396-32.916 19.304-.713.374-1.345-.705-.631-1.08 10.14-5.323 20.105-10.997 29.732-17.203 2.912-1.878 5.78-3.83 8.582-5.872v-8.346c-11.979 9.201-26.055 16.081-38.351 24.501-.667.456-1.292-.627-.631-1.08 12.479-8.545 26.893-15.491 38.981-24.958v-11.897c-14.826 10.248-29.717 20.405-45.018 29.936-.687.427-1.313-.654-.631-1.08 15.518-9.665 30.613-19.976 45.648-30.371v-2.678c-4.787 4.293-10.172 7.979-15.536 11.39-9.562 6.081-19.798 11.219-30.297 15.469-.747.303-1.069-.907-.332-1.205 9.953-4.029 19.538-8.94 28.7-14.534 6.051-3.694 12.18-7.83 17.465-12.756v-6.029c-14.402 9.396-28.404 19.509-42.394 29.308-29.909 20.95-59.482 42.417-88.438 64.671l-.85.654-1.118.866a1513.486 1513.486 0 0 0-5.311 4.146c-3.33 2.612-6.643 5.246-9.94 7.9-5.437 4.375-10.819 8.819-16.087 13.397a229.547 229.547 0 0 0-6.631 5.968 355.581 355.581 0 0 0 4.592 3.934c4.688 3.944 9.464 7.779 14.263 11.579z"/><path d="M466.485 237.828c.717-.364 1.35.714.631 1.08-20.638 10.492-38.305 25.669-57.333 38.667-.668.456-1.292-.628-.631-1.08 19.028-12.997 36.695-28.174 57.333-38.667z"/></svg>