<svg xmlns="http://www.w3.org/2000/svg" viewBox="0 0 100 100"><path d="M68.806 59.643a2.555 2.555 0 0 0-.19-.174c-.286-.237.08-.592.363-.471 1.146.489 1.774 1.883 1.227 3.049-.551 1.17-2.118 1.742-3.217.965-.95-.671-1.25-2.194-.377-3.051.6-.59 1.49-.661 2.194-.318zm-.867 2.681c.647.12 1.314-.405 1.454-1.019.028-.122.032-.244.027-.367-.217.138-.535.139-.718-.138-.334-.501-1.205-.485-1.497.052-.306.561.122 1.359.734 1.472z"/><path d="M7.547 42.325c.54-1.073 2.13-1.142 3.124-1.339l6.488-1.289 12.978-2.577c3.67-.729 7.989-2.3 11.749-1.782 3.512.483 6.9 2.853 10.012 4.406 3.798 1.896 7.687 3.686 11.35 5.833.074-.664.14-1.328.218-1.991.035-.299.245-.626.596-.596 2.953.25 5.906.344 8.867.324.01-.698.105-1.391.506-1.838.936-1.04 3.176-.42 4.32-.357 4.468.244 9.084.192 13.509.857a.422.422 0 0 1 .268.149c.188-.41.896-.285.885.209-.098 4.672-.83 9.313-.97 13.992a147.969 147.969 0 0 0-.046 7.019c.027 1.673.602 4.092.165 5.696-.23.839-.548.994-1.41 1.142-2.151.368-4.653.08-6.83.019a112.47 112.47 0 0 1-6.817-.398c-1.03-.091-2.96.09-3.817-.697-.612-.561-.617-1.505-.552-2.368-.101.142-.267.235-.504.217a382.893 382.893 0 0 1-4.418-.362c-1.14-.098-2.578.002-3.676-.377-1.756-.607-1.531-2.367-1.488-3.909.007-.257.018-.513.026-.77-4.322.702-8.751-.196-12.585-2.244.462 1.538-1.691 2.885-2.97 3.33-2.591.9-6.394.817-8.743-.686-1.14-.73-1.944-1.856-2.156-3.098-2.023 1.276-4.34-1.627-4.554-3.479a5.609 5.609 0 0 1-.017-1.034c-.043.016-.086.034-.14.038-2.914.256-4.354-2.907-3.573-5.387.404-1.288 1.26-2.558 2.332-3.69-6.164.919-12.55 4.691-18.67 1.787-1.427-.679-4.464-2.747-3.457-4.75zm65.97 22.414c4.107-3.576 8.21-7.153 12.319-10.726a188.39 188.39 0 0 0-11.898 9.001.355.355 0 0 1-.358.06l-.062 1.665zm16.474-2.343a.242.242 0 0 1 .186-.056l-.006-.585c-2.18 1.798-4.358 3.595-6.54 5.393a65.143 65.143 0 0 0 6.36-4.752zm-4.792 4.817c.826-.528 1.684-1.027 2.476-1.598a40.642 40.642 0 0 1 2.52-2.133c-.003-.192-.01-.385-.012-.577v-.054l-4.052 3.491c-.306.264-.616.571-.932.871zM90.15 56.92c.003-.45.008-.9.015-1.352a317.408 317.408 0 0 1-4.99 4.358 53.746 53.746 0 0 1 4.975-3.006zm-.003.948c-2.85 2.408-5.701 4.813-8.552 7.218l8.554-6.004c-.002-.404-.003-.809-.002-1.214zm-7.418 8.344l7.435-5.128-.01-1.242c-2.476 2.123-4.951 4.246-7.425 6.37zm7.454-11.58c.01-.476.024-.951.04-1.426l-6.003 5.287c1.942-1.35 3.929-2.64 5.963-3.861zm.079-2.342c.019-.406.04-.811.064-1.217-2.387 2.08-4.776 4.156-7.166 6.232a245.637 245.637 0 0 1 7.019-4.982c.028-.018.055-.025.083-.033zm-.037 13.115a23 23 0 0 1-.797.741c-.154.396-.714.738-1.054 1.068-.045.045-.622.631-1.121 1.123.159-.08.303-.152.393-.21a33.108 33.108 0 0 0 2.648-1.941 8.111 8.111 0 0 1-.061-.649l-.003-.139c-.002.001-.003.004-.005.007zm-16.62-3.034l12.353-10.788a191.35 191.35 0 0 0-11.947 9.035.368.368 0 0 1-.344.066l-.062 1.687zm.09-2.428a289.892 289.892 0 0 0 11.96-10.293A693.943 693.943 0 0 0 74.2 58.396a.395.395 0 0 1-.446.032c-.02.504-.038 1.01-.056 1.515zm.082-2.189l-.001.018 7.174-6.332a281.426 281.426 0 0 0-6.714 5.684.373.373 0 0 1-.438.049l-.021.581zm.046-1.282l10.759-9.877c-3.51 2.531-6.896 5.229-10.271 7.941a.402.402 0 0 1-.42.057c-.024.627-.046 1.252-.068 1.879zm.094-2.629a392.397 392.397 0 0 0 6.32-5.909c-2.065 1.681-4.13 3.363-6.197 5.044-.031.026-.063.037-.094.052l-.03.813zm.07-1.928l4.9-4.938-3.921 3.196c-.392.319-.924-.183-.564-.565l4.03-4.289c-1.404 1.061-2.813 2.12-4.22 3.183-.033.028-.07.039-.104.052l-.121 3.361zm3.075-9.598a.467.467 0 0 1-.107.292l-.11.139a15.4 15.4 0 0 1 .697-.369 9.793 9.793 0 0 1-.48-.062zm-2.017 2.696c-.41.354-.912-.172-.584-.583l.81-1.018-.063.029c-.478.22-.897-.489-.416-.711l1.174-.542c-.333-.02-.645-.012-.884.066-.482.156-.73.686-.853 1.353a.564.564 0 0 1-.072.53c-.101 1.1.025 2.385 0 3.033l-.006.199 3.584-4.172a13.21 13.21 0 0 0-2.69 1.816zm5.383-2.471l-1-.053c-.881 1.025-1.767 2.049-2.65 3.072 1.325-1 2.652-1.998 3.977-2.999-.11-.007-.22-.015-.327-.02zm1.63.101l-2.976 3.159c1.27-1.034 2.543-2.067 3.813-3.102l-.837-.057zm2.092.148l-4.896 4.933 5.97-4.859-1.074-.074zm2.34.15a388.111 388.111 0 0 1-5.474 5.337c2.408-1.829 4.862-3.598 7.396-5.255a65.215 65.215 0 0 1-1.921-.082zm2.727.092c.063.134.06.295-.071.417l-3.831 3.513a300.502 300.502 0 0 1 5.115-3.937c-.404.008-.808.011-1.213.007zm2.046.305L82.33 51.22a711.649 711.649 0 0 1 8.337-6.206.293.293 0 0 1 .302-.034c.09-.55.188-1.098.295-1.642zm-.427 2.523a282.29 282.29 0 0 1-6.678 6.123 194.114 194.114 0 0 1 6.135-4.177.298.298 0 0 1 .3-.018c.07-.646.152-1.289.243-1.928zm-8.181 9.541c2.529-1.835 5.1-3.613 7.716-5.326.008-.005.014-.005.02-.008.038-.513.082-1.024.13-1.534l-7.866 6.868zm7.713 11.389c-.634.714-1.532 1.729-1.52 1.745.064.078.912-.432 1.56-.839a5.147 5.147 0 0 0-.04-.906zm-.038 1.376c.023-.063.036-.136.049-.208-.591.375-1.198.72-1.824 1.041.805.005 1.492-.032 1.775-.833zM88.023 69l.11-.001a.15.15 0 0 1 .033-.122c.319-.384.633-.838.973-1.249-.64.509-1.401.961-2.137 1.373.34-.001.68.004 1.02-.001zm-2.562.006c.169 0 .338-.003.508-.001.319-.316.64-.631.962-.946a20.68 20.68 0 0 1-1.6.947h.13zm3.913-3.345c.187-.182.372-.366.56-.548.097-.095.219-.066.292.01-.01-.35-.014-.699-.021-1.048a41.235 41.235 0 0 1-2.422 1.993c-.772.776-2.644 2.708-2.748 2.648.518.299 4.225-2.953 4.339-3.055zm-5.002 3.343c.432-.499.873-.986 1.326-1.46a39.996 39.996 0 0 1-2.396 1.465l1.07-.005zm-2.025.008l2.182-1.888a66.404 66.404 0 0 1-2.975 1.889c.267.001.529.001.793-.001zM80.637 69c1.679-1.395 3.358-2.79 5.039-4.184L79.66 68.97c.324.012.649.024.976.03zm-1.877-.075c2.385-2.052 4.767-4.108 7.15-6.163-2.85 2.011-5.696 4.022-8.545 6.034.459.054.924.097 1.395.129zm-3.525-.494c.38.093.772.169 1.168.235 3.843-3.256 7.688-6.507 11.536-9.756-4.553 2.773-8.744 6.26-12.986 9.447.09.025.182.051.282.074zm-1.015-.352a320.252 320.252 0 0 0 12.76-10.614 105.356 105.356 0 0 0-10.848 8.151c-.763.671-1.524 1.343-2.288 2.014a.343.343 0 0 1-.11.063c.113.145.27.273.486.386zm-.74-1.053c.71-.641 1.428-1.271 2.152-1.894l9.727-8.567a238.773 238.773 0 0 0-11.402 8.731.367.367 0 0 1-.46.006l-.014.391c-.021.546-.047.978-.002 1.333zm-8.673-1.945c.895.325 2.26.187 3.213.267 1.207.101 2.412.206 3.616.32a.656.656 0 0 1 .56.416c.01-.137.02-.269.024-.391l.246-7.056c.16-4.557.326-9.114.49-13.672.006-.176.002-.38-.006-.592a66.866 66.866 0 0 1-8.362-.154 200.56 200.56 0 0 0-1.113 13.725c-.1 2.094-1.046 6.276 1.332 7.137zM60.9 60.693c.064-.167.306-.835.446-1.083-.236.214-.917.759-1.321 1.077.289.008.582.008.875.006zm-1.511-.032a.162.162 0 0 1 .032-.05c.242-.254 1.477-1.422.627-.958-.388.211-.8.623-1.165.979.168.012.337.02.506.029zm-1.141-.08c.175-.386.35-.771.522-1.159.12-.268.286-.429.36-.491a2.578 2.578 0 0 1-.204.123c-.632.344-1.268.958-1.865 1.389.393.056.789.1 1.187.138zm-1.586-.204a.21.21 0 0 1 .016-.13c.158-.321.629-1.311.625-1.317-.018-.022-1.121.782-1.748 1.24.367.079.736.147 1.107.207zm-1.71-.339c.337-.341 1.27-1.304 1.133-1.58-.106-.215-1.328.933-1.772 1.31a.246.246 0 0 1-.2.053c.279.078.56.15.84.217zm-.91-.238c-.11-.052-.18-.177-.1-.317a34.44 34.44 0 0 0 1.1-2.08c-.707.66-1.412 1.32-2.11 1.991-.016.017-.035.024-.053.035.384.134.772.259 1.163.371zm-1.538-.505a.223.223 0 0 1 .02-.217c.405-.633.794-1.272 1.17-1.919a37.836 37.836 0 0 1-2.081 1.786c.296.124.592.241.89.35zm-1.396-.568c.009-.021.015-.044.032-.069.426-.606.828-1.224 1.215-1.852-.56.573-1.116 1.15-1.672 1.724.142.066.283.133.425.197zm-.9-.43c.4-.729.803-1.459 1.203-2.189l-1.837 1.856-.002.001c.21.116.424.225.637.332zm-1.056-.572c.004-.023.008-.047.02-.07.305-.658.629-1.299.973-1.929-.528.549-1.058 1.098-1.584 1.649.195.12.393.235.59.35zm-.078-2.488c-.533.479-1.094.927-1.687 1.355.223.159.446.313.67.46.332-.61.67-1.214 1.017-1.815zM9.289 44.355c.588 1.202 2.745 1.935 3.924 2.235 6.009 1.526 11.854-2.157 17.785-2.579h.037c1.26-1.045 2.657-1.884 3.933-2.373.407-.156.748.454.427.733-1.542 1.342-3.288 2.4-4.73 3.875-1.661 1.7-4.404 6.991.252 7.227.1.005.177.04.242.083.57-2.708 3.086-4.708 5.254-6.291.567-.414 1.086.519.545.932-1.858 1.424-3.967 3.035-4.545 5.442-.362 1.513.012 3.163 1.413 4.039.552.345 1.163.41 1.75.625a3.868 3.868 0 0 1 .342-1.712c1.07-2.382 3.757-3.616 5.053-5.908.298-.527 1.053-.158.94.396-.554 2.715-3.746 3.566-4.81 5.933-2.731 6.084 11.784 6.628 11.746 1.94l.002-.014a21.646 21.646 0 0 1-2.61-1.772.442.442 0 0 1-.153-.222A10.614 10.614 0 0 1 42.3 58.65c-.727.169-1.037-.945-.31-1.121 1.262-.301 2.45-.811 3.508-1.568.83-.594 3.113-2.378 2.26-3.569-.248-.348.267-.655.552-.425.519.422.627.957.52 1.507.076-.107.148-.214.224-.32.232-.323.77-.017.54.315-.317.455-.64.904-.96 1.357a18.915 18.915 0 0 0 1.63-1.635c.225-.255.625.071.462.356-.37.643-.735 1.288-1.104 1.932l1.79-1.864c.212-.221.602.068.43.332a35.243 35.243 0 0 0-1.47 2.482l1.962-1.982c.207-.208.54.058.4.311l-1.232 2.227c.639-.65 1.275-1.302 1.906-1.96.2-.21.51.056.388.299a26.643 26.643 0 0 1-1.18 2.082 30.688 30.688 0 0 0 2.022-1.935c.228-.24.585.064.443.342-.313.61-.641 1.206-.988 1.789l1.582-1.49c.222-.208.516.052.4.31a29.017 29.017 0 0 1-1.12 2.238c.54-.43 1.077-.864 1.623-1.286.164-.126.403.083.344.265-.131.402-.271.867-.478 1.276.48-.324 1.023-.634 1.36-.877.197-.143.4.124.307.306.04-.079-.784 1.458-.792 1.444a92.619 92.619 0 0 0 2.103-1.695c.184-.165.425.04.329.253-.101.224-.646 1.427-.842 1.778.315-.343 1.612-1.464 1.746-1.582.155-.136.445-.009.37.216-.082.25-.172.513-.278.768.32-.25.669-.484.96-.711.202-.16.468.032.356.275-.25.539-.51 1.07-.78 1.599.275-.004.549-.012.826-.024.174-4.742.54-9.469 1.04-14.186-6.2-2.558-12.013-6.001-18.095-8.822-3.701-1.716-6.885-.917-10.707-.156l-10.381 2.068c-2.547.506-5.094 1.014-7.641 1.519 1.265 3.016-4.896 3.436-7.062 3.215.01.017.016.035.025.052zm6.48-3.157l-1.75.349c-1.081.215-4.574.3-4.905 1.816 1.422.028 7.172.138 6.655-2.165z"/></svg>