<svg xmlns="http://www.w3.org/2000/svg" viewBox="0 0 90 11.479"><switch><g><path d="M87.848 3.586c-.828 0-1.54.474-1.9 1.159h-7.229c-.418-1.248-1.582-2.152-2.971-2.152s-2.553.904-2.971 2.152h-7.131c-.436-1.525-1.824-2.649-3.49-2.649-1.665 0-3.053 1.124-3.488 2.649H51.62C51.149 2.11 48.851.107 46.082.107s-5.067 2.003-5.538 4.638h-4.716L31.082 0 0 5.739l31.082 5.739 4.746-4.745h4.716c.471 2.635 2.769 4.638 5.538 4.638s5.067-2.003 5.538-4.638h7.048c.436 1.525 1.823 2.649 3.488 2.649a3.634 3.634 0 0 0 3.49-2.649h7.131c.418 1.248 1.582 2.153 2.971 2.153s2.553-.905 2.971-2.153h7.229A2.146 2.146 0 0 0 90 5.739c0-1.19-.963-2.153-2.152-2.153z"/></g></switch></svg>