<svg xmlns="http://www.w3.org/2000/svg" data-name="Your Icon" viewBox="0 0 90 90"><path d="M45.17 58.62V31.54l19.89 13.54zm1.42-24.4v21.72l16-10.86z"/><path d="M26.3 58.62V31.54l19.89 13.54zm1.42-24.4v21.72l16-10.86zM64.76 58a.71.71 0 0 1-.76-.72v-24.4a.71.71 0 1 1 1.42 0v24.4a.71.71 0 0 1-.66.72z"/><path d="M64.76 32.26a.61.61 0 0 0-.61.61v11.69L45.27 31.72v12.84L26.39 31.72v26.72l18.88-12.85v12.85l18.87-12.85v11.69a.615.615 0 1 0 1.23 0v-24.4a.61.61 0 0 0-.61-.62zM27.62 56.12V34l16.22 11zm18.87 0V34l16.22 11zM45.4 90a45.54 45.54 0 0 1-6.4-.4l.37-2.81a42.62 42.62 0 0 0 6 .37zm44.2-39l-2.81-.38a42.61 42.61 0 0 0 .38-6v-.1H90v.14a45.58 45.58 0 0 1-.4 6.34zM2.84 45.41L0 45.43v-.05A45.64 45.64 0 0 1 .39 39l2.81.4a42.71 42.71 0 0 0-.37 5.93v.07zM50.56 3.2a42.68 42.68 0 0 0-5.9-.36h-.1V.01h.1a45.55 45.55 0 0 1 6.31.39z"/><path d="M44.78 87.51A42.56 42.56 0 0 1 3.21 53.63a.352.352 0 1 1 .69-.14 41.75 41.75 0 0 0 61.25 28 .356.356 0 1 1 .35.62 42.46 42.46 0 0 1-20.72 5.4zM85 33a.35.35 0 0 1-.34-.25 41.52 41.52 0 0 0-39.88-29.4.355.355 0 1 1 0-.71 42.22 42.22 0 0 1 40.57 29.93.35.35 0 0 1-.23.44z"/><path d="M45 82.19a37.07 37.07 0 1 1 37.07-37.07A37.12 37.12 0 0 1 45 82.19zm0-72a34.95 34.95 0 1 0 34.95 34.93A35 35 0 0 0 45 10.17z"/></svg>