<svg xmlns="http://www.w3.org/2000/svg" viewBox="0 0 100 100"><path d="M72.768 94.776l-.027-8.8-4.1.012.027 8.8zm16.155-.056l-.027-8.799-4.1.012.027 8.8zm-8.077.028l-.027-8.8-4.1.012.027 8.8zm-40.486.136l-.027-8.8-4.1.012.027 8.8zm-16.254.054l-.027-8.8-4.1.012.027 8.8zm-8.076.027l-.03-8.8-4.1.014.03 8.8zm48.661-.162l-.027-8.8-4.1.012.027 8.8zm-32.409.107l-.027-8.8-4.1.012.027 8.8zm16.156-.054l-.027-8.8-4.1.012.027 8.8zm8.076-.026l-.027-8.8-4.1.012.027 8.8zM12.463 43.8c0-2.3 1.3-4.4 3.3-5.3l2-.9 1.3 3.2.9-2.3 2 .9-1.7 4.4 1.7 4.5-2 .9-.9-2.3-1.3 3.2-2-.9c-1.9-.9-3.3-3-3.3-5.4zM85.863 7l4.2 10.7-3.8 1.7-4.1-10.7zm-56.7 25.5l3.8-1.7 4.1 10.7-3.8 1.7zm15.1-6.8l3.8-1.7 4.2 10.7-3.8 1.7zm-7.5 3.4l3.7-1.7 4.2 10.7-3.8 1.7zm-7.6 15.3v-.1.2z"/><path d="M21.563 35.9l3.8-1.7 3.8 10.2-3.8 9-3.8-1.7 3.1-7.9zm37.9-17l3.7-1.7 4.2 10.7-3.8 1.7zm-7.6 3.4l3.8-1.7 4.1 10.7-3.8 1.7zm15.1-6.8l3.8-1.7 4.2 10.7-3.8 1.7zm7.6-3.4l3.8-1.7 4.1 10.7-3.8 1.7zM55.663 67l-3.8-1.7 4.1-10.6 3.8 1.7zm-11-17.4l-4.2 10.6-3.7-1.7 4.1-10.6zm3.4 14l-3.8-1.7 4.2-10.6 3.8 1.7zm-11-17.4l-4.1 10.6-3.8-1.7 4.1-10.6zm33.7 27.6l-3.8-1.7 4.2-10.6 3.8 1.7zm-7.6-3.4l-3.7-1.7 4.1-10.6 3.8 1.7zm15.2 6.8l-3.8-1.7 4.1-10.6 3.8 1.7zm7.5 3.4l-3.7-1.7 4.1-10.6 3.8 1.7z"/></svg>