<svg xmlns="http://www.w3.org/2000/svg" viewBox="0 0 50800 50800" clip-rule="evenodd" shape-rendering="geometricPrecision" text-rendering="geometricPrecision" image-rendering="optimizeQuality"><path d="M36625.222 32610l-2319-32c659 3903-887 2940-2950 2412 1176 2724 2115 1438 3285 6080 756-936 1788-7231 1984-8460zm115-2566c272-438 52 364 437-822l469-3389c-1878 447-1246-225-1081 1383 93 910 99 1739 175 2828zm-4431 2867c-397-3690-3373-5594-5617-8647-1924-2617-3684-5692-5776-8267-2011 953-4786 2801-5596 4877-21 1626 10167 11062 13181 14494 1073 1223 3253 4496 4634 5272-1834-4338-13108-17512-13443-19766 3470-2211 1023-532 9075 8819 1086 1261 1888 2646 3542 3218zm5610-8396l751-4494c-665-784-1656-1513-2710-2135 332 1411 531 773 709 2521l334 1465c561 1882-193 1236 916 2643zm-21852-8042c-2200 297-1139-235-1337 1013zm19400 6388c-186-2733-2531-6593-3803-8569-2335-3628-4796-1302-8628-48 552 1254 10028 15447 12177 16202 26-8923-14046-17510-7761-16646 1148 158 3890 4329 5262 6111 811 1053 1430 2502 2753 2950zm2145-6596c-191-1806-1659-3701-2360-5227l-2562 360c371 1766 3151 4000 4922 4867zm1461-2612c230-1733 473-3078-243-4442-1790 443-1875-108-948 2160 312 763 817 1550 1191 2282zm-27997 2643c1273-2202 996-7314 1035-10815 25-2285-320-2449 1324-3354 1800 883 1076 2514 879 4599-228 2416-92 4761-236 7190 4169-241 11196-2587 14540-4103 2663-1207 1253-164 3914-573 4835-742 4287-4491 9495-1670 79 831-753 7961-959 9818l-3531 27510c-4727 900-5454-1955-9346-6731-6216-7627-9434-9056-10961-10681-1179-1255-864-1590-2504-2357-513 6172 548 15547-1675 19915l-2098-29c-366-1298 1258-12186 1481-14714 348-3943-466-7446-399-11320 47-2690 4-224-959-2685z"/></svg>