<svg xmlns="http://www.w3.org/2000/svg" viewBox="0 0 50800 50800" clip-rule="evenodd" shape-rendering="geometricPrecision" text-rendering="geometricPrecision" image-rendering="optimizeQuality"><path d="M14156.775 36008c3544-1415 6456-4071 10030-5692 3205-1453 8101-3374 10090-5565-1054-1516-20431-12613-20696-12679 277 4912 824 3353 872 11828 22 3945-572 8897-296 12108zm19383 11337c-2160-3046-605-5728 334-9092 1084-3886 1222-6399 1535-10729-3258 1025-9244 4288-12339 5932-4340 2306-4307 2810-6669 4395-4323 2900-1194 2670-4286 3115-1181-3592 932-17629-151-25658-361-2677-2239-5404-1436-7207 1836-2004 2891 1249 4152 2277 3116 2540 18263 11059 20922 11684 1536-9145-100-17364 4868-16894-152 3380-2492 11855-2626 21280-44 3137-493 8411-1196 11307-1412 5824-1008 8992-3108 9590z"/></svg>