<svg xmlns="http://www.w3.org/2000/svg" viewBox="0 0 100 100"><path d="M68.028 60.347l-3.76 1.324.19-1.029 3.57-.295z" fill="none"/><path d="M9.286 27.492c3.743 9.436 16.133 15.326 24.718 19.737.335.172.675.33 1.011.499 2.706 1.087 5.431 2.14 8.19 3.062 1.267.423 14.13 2.633 17.982 2.361l.034-.098c-.364-.203-.732-.386-1.096-.595-1.433-.823-1.3-2.286-.445-3.182-.37-1.315.72-2.872 2.177-2.787-.35-1.336.716-2.935 2.565-2.672.074.01.146.024.22.035.486-.762 1.344-1.259 2.29-.869 2.07.852 4.146 1.671 6.232 2.457 6.568 1.488 12.93 3.567 19.214 6.241l.037.011c0 .001 0 .003-.002.004.171.073.343.139.514.212 1.056.455 1.243 1.469.936 2.363a2.106 2.106 0 0 1-.236 3.843 1.455 1.455 0 0 1-.584.503 14624.521 14624.521 0 0 1-32.302 15.218c-1.31.616-2.47-1.29-1.15-1.969 1.888-.973 3.78-1.94 5.668-2.913-1.023.319-2.048.634-3.077.943-.489.482-1.185.668-1.858.558l-.195.059c-2.196.648-3.155-2.274-1.57-3.432a50.58 50.58 0 0 1 .097-1.719c-14.21-4.404-28.66-9.353-40.377-18.194-5.954-2.847-10.852-6.747-12.976-13.467-.359-1.136.177-1.955.975-2.347a28.1 28.1 0 0 1-1.138-2.718c-.943-2.64 3.145-3.667 4.146-1.144zm58.742 32.855l-3.57.295-.19 1.029c1.252-.442 2.506-.883 3.76-1.324z"/></svg>