<svg xmlns="http://www.w3.org/2000/svg" viewBox="0 0 96 96.001"><path d="M22.395 47.249a5.92 5.92 0 0 1 .293-1.598l.043-.007-.043.004c.091-.277.203-.547.334-.805l.013.013-.01-.014a5.821 5.821 0 0 1 1.287-1.702c.4-.365.849-.681 1.338-.924l.001-.001c.259-.131.525-.246.803-.335v.031l.004-.031a5.938 5.938 0 0 1 1.598-.294c.087-.002.171-.003.257-.003h.004c.087 0 .173.001.259.003a5.974 5.974 0 0 1 1.599.294l.003.031-.002-.031a5.509 5.509 0 0 1 .806.336c.489.243.939.559 1.337.924a5.928 5.928 0 0 1 1.291 1.702v.001c.131.258.243.527.334.805l-.043-.004.045.007c-.002-.001-.002-.001-.002-.003l26.397 1.235.25.013a32.214 32.214 0 0 0-.25-3.455 32.127 32.127 0 0 0-1.372-6.075 31.702 31.702 0 0 0-2.854-6.272 31.483 31.483 0 0 0-2.291-3.365l1.478 1.474 2.583 2.584 2.456 2.456 2.411 2.411 2.585 2.583 3.725 3.724 4.544 4.543-3.764 3.768-3.524 3.522-3.32 3.319-2.658 2.657-2.244 2.24-2.077 2.085-2.19 2.188a32.18 32.18 0 0 0 6.005-12.774 32.346 32.346 0 0 0 .721-5.419c.02-.324.028-.647.036-.973l-.25.008-26.396 1.24v-.001l-.009.001h.009a6.064 6.064 0 0 1-.336.802l-.039-.043.039.051a5.94 5.94 0 0 1-.925 1.332 5.991 5.991 0 0 1-1.703 1.293 5.63 5.63 0 0 1-.806.33l.002-.029-.003.029-1.857 15.14-1.858-15.14-.004-.029v.029a5.702 5.702 0 0 1-.804-.33h-.002a6.054 6.054 0 0 1-1.336-.925 5.068 5.068 0 0 1-.365-.368 5.908 5.908 0 0 1-.925-1.332l.038-.049-.04.041a6.273 6.273 0 0 1-.334-.802h.007l-.007-.001a6.011 6.011 0 0 1-.295-1.858c0-.085 0-.17.003-.257zm3.609 1.623c.229.395.555.718.941.942a2.635 2.635 0 0 0 1.366.375h.004c.23 0 .453-.027.667-.082.249-.062.484-.16.7-.293.387-.225.713-.548.94-.942.129-.212.227-.446.291-.699.058-.211.085-.437.085-.664a2.649 2.649 0 0 0-.375-1.366 2.61 2.61 0 0 0-.94-.944 2.586 2.586 0 0 0-1.367-.373h-.004c-.229 0-.452.024-.663.081a2.58 2.58 0 0 0-.703.292 2.628 2.628 0 0 0-.941.944 2.56 2.56 0 0 0-.289.697 2.605 2.605 0 0 0-.084.669c0 .228.027.453.084.664.062.253.159.487.288.699z"/></svg>