<svg xmlns="http://www.w3.org/2000/svg" viewBox="0 0 100 100"><path fill="none" d="M7.93 48.663c2.012.078 4.022.167 6.032-.036 2.136-1.691 4.248-3.468 6.216-5.372-4.033 1.907-8.141 3.665-12.248 5.408zm5.567 1.28c-1.855.147-3.712.065-5.57-.006a944.487 944.487 0 0 0 10.629 7.267c-1.629-2.388-3.214-4.805-4.881-7.166a.743.743 0 0 1-.178-.095zm60.264-.633c.035.014.037.01 0 0zm-.371-.032H51.782c.106.008-.101.062-.424.349-.24.217-.485.427-.732.636.107.091.216.179.321.272.265.235.528.471.785.714h21.933a26.2 26.2 0 0 1 1.158-.976c-.391-.312-.77-.637-1.134-.976a1.953 1.953 0 0 0-.299-.019z"/><path d="M35.724 51.126a300.727 300.727 0 0 0-17.331 0c-.41.011-.411.648 0 .637 5.776-.162 11.554-.17 17.331 0 .411.012.41-.626 0-.637zm7.943 0H38.06c-.411 0-.411.637 0 .637h5.607c.411 0 .411-.637 0-.637z"/><path d="M94.958 57.656c-1.331-2.437-2.665-4.877-4.33-7.107.792-.075.79-1.323-.023-1.271-4.218.269-8.446.065-12.664.298.175-.131.353-.26.54-.386.678-.455.042-1.56-.643-1.1-.615.413-1.222.837-1.82 1.273-.959-.757-1.96-1.359-3.243-1.359H51.5c-.324 0-.514.234-.731.438a25.36 25.36 0 0 1-1.146 1.006 33.8 33.8 0 0 0-1.895-1.357c-.686-.457-1.323.647-.643 1.1.197.131.38.277.573.412-10.754-.308-21.512-.369-32.27-.491 2.819-2.255 5.579-4.667 8.002-7.327.541-.593-.309-1.469-.866-.932a.635.635 0 0 0-.415.059c-5.417 2.683-11.003 5.03-16.566 7.391a.525.525 0 0 0-.297.281.739.739 0 0 0-.239.563c-.039.339.152.709.588.723A941.348 941.348 0 0 0 20.59 60.111l.016.023a.641.641 0 0 0 .434.27c.654.328 1.219-.706.564-1.142-.037-.025-.074-.051-.112-.075-2.072-2.891-4.002-5.877-6.026-8.8 10.761.123 21.522.183 32.28.493a33.7 33.7 0 0 1-.661.457c-.68.453-.043 1.557.643 1.1.644-.429 1.26-.884 1.867-1.353.288.238.581.467.862.716.273.242.612.723 1.027.723h21.039c1.436 0 2.459-.595 3.46-1.372a66.94 66.94 0 0 0 1.855 1.285c.685.459 1.322-.645.643-1.1a11.017 11.017 0 0 1-.656-.48c.381-.022.763-.044 1.144-.06 1.53 2.488 2.948 5.041 4.489 7.522.432.696 1.534.057 1.099-.644-1.418-2.283-2.735-4.625-4.128-6.923l.237-.005c.01.024.015.047.033.071 1.682 2.243 3.026 4.702 4.367 7.158.197.361.747.039.551-.322-1.293-2.37-2.593-4.74-4.194-6.919l.785-.012c.011.024.02.048.035.073 1.53 2.488 2.948 5.041 4.489 7.522.432.696 1.535.056 1.1-.644-1.426-2.295-2.749-4.651-4.151-6.961l.243-.002a.31.31 0 0 0 .049.105c1.683 2.243 3.027 4.702 4.367 7.158.197.361.747.039.551-.322-1.299-2.379-2.603-4.76-4.214-6.946l.312-.002c.013.03.025.06.044.09 1.53 2.488 2.947 5.041 4.489 7.522.432.696 1.534.056 1.099-.644-1.43-2.302-2.757-4.666-4.164-6.983l.249-.003a.292.292 0 0 0 .057.129c1.682 2.243 3.027 4.702 4.367 7.158.197.361.747.039.551-.322-1.305-2.391-2.616-4.783-4.237-6.978.266-.006.532-.014.798-.022a.72.72 0 0 0 .066.142c1.53 2.488 2.948 5.041 4.489 7.522.432.696 1.534.057 1.099-.644-1.449-2.333-2.793-4.73-4.221-7.077l.311-.016a.26.26 0 0 0 .052.236c1.683 2.243 3.027 4.702 4.367 7.158.2.367.75.045.553-.315zM73.761 49.31c.037.01.035.014 0 0zm-59.799-.684c-2.009.203-4.019.114-6.032.036 4.107-1.743 8.215-3.5 12.248-5.409-1.969 1.905-4.08 3.683-6.216 5.373zm-6.035 1.311c1.858.072 3.714.153 5.57.006a.73.73 0 0 0 .179.095c1.667 2.361 3.252 4.778 4.881 7.166a935.583 935.583 0 0 1-10.63-7.267zm65.738 1.312H51.732a40.73 40.73 0 0 0-.785-.714c-.105-.093-.214-.181-.321-.272.246-.209.492-.419.732-.636.323-.287.53-.341.424-.349H73.39c.141 0 .236.009.3.018.364.34.743.664 1.134.976-.395.316-.783.639-1.159.977z"/><path d="M79.941 47.997c1.53-2.487 2.948-5.041 4.488-7.521.436-.7-.667-1.339-1.1-.643-1.541 2.48-2.959 5.034-4.488 7.521-.432.702.67 1.342 1.1.643zm1.181-.342c1.683-2.243 3.027-4.702 4.367-7.158.197-.362-.353-.683-.551-.322-1.34 2.456-2.684 4.915-4.367 7.158-.246.329.308.647.551.322zm2.094.342c1.53-2.487 2.948-5.041 4.489-7.521.435-.7-.668-1.339-1.1-.643-1.542 2.48-2.96 5.034-4.489 7.521-.431.702.671 1.342 1.1.643zm1.182-.342c1.683-2.243 3.027-4.702 4.367-7.158.197-.362-.353-.683-.551-.322-1.34 2.456-2.684 4.915-4.367 7.158-.246.329.307.647.551.322z"/><path d="M85.29 48.267c-1.923.064-3.847.131-5.772.14-.411.002-.411.639 0 .637 3.57-.018 7.135-.238 10.704-.255.411-.002.412-.638 0-.637-.365.002-.73.013-1.095.018.057-.045.11-.1.155-.173 1.53-2.487 2.948-5.041 4.489-7.521.435-.7-.668-1.339-1.1-.643-1.541 2.48-2.959 5.034-4.488 7.521-.209.339-.058.663.201.829-.889.019-1.778.042-2.667.071a.624.624 0 0 0 .291-.256c1.53-2.487 2.948-5.041 4.489-7.521.435-.7-.668-1.339-1.1-.643-1.541 2.48-2.959 5.034-4.488 7.521-.256.413.022.802.381.912z"/><path d="M87.188 47.655c1.683-2.243 3.027-4.702 4.368-7.158.196-.362-.353-.683-.551-.322-1.34 2.456-2.685 4.915-4.368 7.158-.246.329.308.647.551.322zm3.275 0c1.683-2.243 3.027-4.702 4.368-7.158.197-.362-.353-.683-.55-.322-1.34 2.456-2.684 4.915-4.368 7.158-.247.329.307.647.55.322z"/></svg>