<svg xmlns="http://www.w3.org/2000/svg" viewBox="0 0 100 100"><path d="M48.6 50L69 38.2v23.6z"/><path d="M50.1 5.8c24.4 0 44.2 19.8 44.2 44.2 0 24.4-19.8 44.3-44.2 44.3C25.7 94.3 5.8 74.4 5.8 50S25.7 5.8 50.1 5.8zM76.8 74c0 1.1.9 2 2 2s2-.9 2-2V26c0-1.1-.9-2-2-2s-2 .9-2 2zM43.6 51.7L70 67c.3.2.7.3 1 .3.3 0 .7-.1 1-.3.6-.4 1-1 1-1.7V34.7c0-.7-.4-1.4-1-1.7-.6-.4-1.4-.4-2 0L43.5 48.3c-.6.4-1 1-1 1.7s.4 1.4 1.1 1.7zm-31.2 0L38.9 67c.3.2.7.3 1 .3.3 0 .7-.1 1-.3.6-.4 1-1 1-1.7V34.7c0-.7-.4-1.4-1-1.7-.6-.4-1.4-.4-2 0L12.4 48.3c-.6.4-1 1-1 1.7s.4 1.4 1 1.7z"/><path d="M17.4 50l20.5-11.8v23.6z"/></svg>