<svg xmlns="http://www.w3.org/2000/svg" viewBox="0 0 100 100"><path d="M67.2 5H17v90h66V20.8L67.2 5zM78 90H22V10h42.2v14.8H78V90zm-3.3-70.2h-5.5v-5.9l5.5 5.9z"/><path d="M32.5 49.8c0-1.2 1-2.2 2.2-2.2h14.6s.6-.3.3-1.9c-.2-.9-2.4-7 1.6-8.1 2-.4.6 2.8 1.6 4.3s5.5 7.6 5.5 7.9v11.6c0 .4-.3.7-.7.7H45.1c-1.1 0-1.9-.9-1.9-1.9 0-.4.1-.7.3-1-.9-.2-1.6-1-1.6-1.9 0-.6.3-1.2.8-1.6-1-.1-1.8-.9-1.8-1.9 0-1.1.9-1.9 1.9-1.9h-8.1c-1.3.1-2.2-.9-2.2-2.1zm27.2.7v11.1c0 .4.3.7.7.7h6.5c.4 0 .7-.3.7-.7V50.5c0-.4-.3-.7-.7-.7h-6.5c-.4 0-.7.3-.7.7zm3.1.8c0-.4.3-.7.7-.7.4 0 .7.3.7.7 0 .4-.3.7-.7.7-.3 0-.7-.3-.7-.7zm-2 0c0-.4.3-.7.7-.7.4 0 .7.3.7.7 0 .4-.3.7-.7.7-.4 0-.7-.3-.7-.7z"/></svg>