<svg xmlns="http://www.w3.org/2000/svg" viewBox="0 0 100 100"><path d="M5.663 47.4l28.3-41.7c1-1.4 1.7-.7 1.7 1.6v24.2h57c1.3 0 2.3 1.9 2.3 4.2v28.6c0 2.3-1 4.2-2.2 4.2h-57v24.2c0 2.3-.8 3-1.7 1.6l-28.3-41.7c-1-1.5-1-3.7-.1-5.2zm39.4 3.3c0 1.2.5 2.1 1.1 2.1h38.5c.6 0 1.1-.9 1.1-2.1v-1.5c0-1.2-.5-2.1-1.1-2.1h-38.5c-.6 0-1.1.9-1.1 2.1zm-31.2.6l5 7.3c1 1.4 1.7 1.3 1.7-.4v-2.3c0-.3-.1-.8-.3-1l-2.5-3.6c-.5-.8-.5-2 0-2.7l11.8-17.3c.1-.1.2-.4.2-.7v-3.2c0-1.2-.4-1.6-.9-.9l-15 22.1c-.6.7-.6 1.9 0 2.7z"/></svg>