<svg xmlns="http://www.w3.org/2000/svg" viewBox="0 0 100 100"><path d="M84.025 35.75c-.039-.16-.082-.16-.914-.16-1.125.082-3.141-.504-4.789-.238-.641.078-1.648-.203-3.211 0-1.953-.344-3.379.176-5.65-.633-.34-.102-.268.223-1.021.152-.402-.043-.352-.363-1.535-.223-1.355.156-3.086.016-4.73.016-1.648 0-2.934-.336-6.949-.676-1.645-.145-2.936-.887-4.137-.285-1.832.914-8.195 3.695-15.023 7.07-.145.07-.746.41-1.125-.484-.766-1.418-1.207-1.004-3.898-.922-1.924-.078-.496-1.555-2.609-1.508-3.254.07-4.531.34-9.281.242-1.93-.039-2.453-.109-2.488 1.254v28.902c-.004.441.199.887.799.887 2.092-.078 5.025-.121 9.443.039 2.047.078 2.527-.766 3.213-4.348.299-1.555 1.486-.727 3.172-1.203 1.529-.602 1.811-4.262 1.811-4.262.018-.824.461-.844.723-.723 5.984 2.531 12.311-1.305 12.453-.645 1.102 3.023 4.117 2.793 4.5 2.012-.082 1.363 2.008 2.488 2.648 2.168 2.309-1.223 2.352-2.109 3.957-2.672 2.934-1.266 2.309-2.641 5.121-2.793 2.051-.109 2.73-.449 3.215-.883 2.129-2.086.281-4.859-1.004-5.785.48-2.168-2.652-4.809-3.375-6.617.965-.02 2.434-.242 4.699-1.012 1.184-.406.902.188 2.973-.023 2.793-.25 3.859-.539 4.742-.941.516-.238 3.215-.18 4.617-.664 4.458-.644 3.755-4.659 3.653-5.042zM32.771 61.219c-.164.672-.285 1.301-1.318 1.352-3.947.301-3.336-.582-3.584-1.031-.723-5.656-.645-16.43-.084-19.203.486-2.367 1.412-2.129 4.42-1.961.924.047.383.891.324 1.562-.242 2.73-.402 4.18-.324 9.238.082 5.062.797 9.078.566 10.043zm34.946-6.907c-.264.34-1.344.359-2.027.52-.723.168-2.973.422-2.633-.762.484-1.047.535-1.188 1.547-1.406.886-.195 3.457.563 3.113 1.648zM82.58 38.484c-.32.246-2.984 1.539-6.105 1.043-1.77-.281-.846.406-3.777.406-1.285-.086-2.086-.086-2.488-.168-1.285.488-3.777.523-4.584.328-.982-.25-1.443-.566-2.328-.086-.881.484-2.814 1.148-5.701.805-3.375-.402-3.195-1.055-3.535-.805-.785.598.82 1.699-.844 2.973-.855.656-1.77-1.965-2.613-1.926-.504.07-.602.531-.359 1.086.113.262 1.117 1.75.281 2.367-1.367 1.008-3.816-2.008-5.707-.762-.441.34.031.824.562.762.912-.109 2.453.77 3.094 1.328.844.762 3.254 1.926 4.141 2.289 3.133 1.285 4.174.324 4.738 1.125.48.602 1.457-.305 2.57-.484 2.102-.344 6.93 1.387 6.469 2.453-.176.352-.504.324-.936.242-.451-.074-.623-.082-1.225.012-1.367.207-1.242.77-1.977.672-.969-.137-.102-.504-3.418-.422-.961 0-1.484-.066-2.129.34-.32-.266-1.084-.625-1.605-.164-1.203-.242-.777-.383-2.814.082-2.744.625-3.291-.496-4.564-1.121-.34-.156-.566-.277-1.23-.176-5.062.613-2.873.598-9.891.172-2.43-.461-3.371-1.77-3.27-5.062.199-3.734 1-3.215 3.051-4.098 8.316-3.695 13.898-6.867 16.066-6.707 6.148.082 5.023 1.207 13.137.965 2.57-.32 2.492 1 3.453.844.727-.402.129-.789 2.613-.562 5.043.461 6.047-.398 6.508.398.617 1.07.602 1.742 3.875 1.465.27-.02.352-.027.512-.055.401-.098.421.145.03.441zm-2.711-1.148c-.562-.109-.984-1-.422-1.203l3.492.32c.051-.004.129.082.121.109.118 1.278-2.249.965-3.191.774z"/><path d="M50 5C25.147 5 5 25.147 5 50s20.147 45 45 45 45-20.147 45-45S74.853 5 50 5zm0 86C27.393 91 9 72.607 9 50S27.393 9 50 9s41 18.393 41 41-18.393 41-41 41z"/></svg>