<svg xmlns="http://www.w3.org/2000/svg" viewBox="0 0 100 100"><path d="M13.525 31.8c-1-6.5-1.9-12-2.8-17.4-.4-2.5-1.3-4.6-4.3-4.1-2.9.5-4.8 2.1-4.5 5.4 1.1 10.4 1.7 20.8 3.4 31.1 1.7 10.1 2.7 20.1 1.5 30.3-.2 1.9-.3 4-.1 5.9.3 2.5.1 5.6 3.8 5.8 3.3.2 5.6-1.5 6.7-4.7.9-2.6.9-5.2.3-7.8-1.5-6.8-.1-13.6-.9-20.5 5.7-.9 9.1 2.9 13.2 4.6 3.6 1.5 6.8 3.9 10.2 6 3.7 2.2 8.1 5.4 11.7 3.5 4.5-2.4 1.3-7.7 1.1-11.7 0-.9.4-1.8.9-3.6 12 6.4 25.2 9.6 36.1 17.6 5.4 3.9 8.1 2.5 8.4-4.3.3-3.9-.1-7.9-.4-11.8-.4-6.8-1.2-13.6.1-20.6 1.3-7.5-2.2-10.2-9.5-8-11.3 3.6-23.6 2.5-34.2 8.4-.6-.7-1.3-1.1-1.3-1.5-1.4-12.2-1.4-12.1-13-9-8.5 2.2-17.1 4.1-26.4 6.4z"/></svg>