<svg xmlns="http://www.w3.org/2000/svg" viewBox="0 0 100 100"><path d="M5.114 52.282l2.563-1.444c.54-.304 1.151-.768 1.762-1.002-.394-.178-.766-.432-1.136-.641l-3.13-1.764c-.09-.051-.255-.24-.07-.302 1.474-.499 3.043-.782 4.567-1.075 3.664-.704 7.378-1.293 11.112-1.42 3.187-.109 12.823-.273 12.252 4.988h44.557v-4.97L95 50.026 77.588 55.4v-5.183H33.024c.757 5.437-9.003 5.193-12.244 5.07a55.36 55.36 0 0 1-5.203-.469l-.02-.002a101.912 101.912 0 0 1-5.724-.951c-1.5-.288-3.044-.562-4.496-1.052-.172-.06-.516-.366-.223-.531z"/></svg>