<svg xmlns="http://www.w3.org/2000/svg" viewBox="0 0 100 100"><path d="M63.111 69.52a.75.75 0 1 0 0 1.5h13.787l-6.517 6.503a.75.75 0 1 0 1.06 1.06l7.8-7.781a.75.75 0 0 0-.53-1.281h-15.6z"/><path d="M70.902 61.732a.75.75 0 0 0-.521 1.287l7.8 7.783a.75.75 0 1 0 1.06-1.063l-7.8-7.78a.75.75 0 0 0-.539-.227z"/><path d="M70.908 49.177c-11.64 0-21.09 9.453-21.09 21.094 0 11.64 9.45 21.093 21.09 21.093S92 81.911 92 70.271s-9.452-21.094-21.092-21.094zm0 1.5c10.829 0 19.592 8.764 19.592 19.594 0 10.83-8.763 19.593-19.592 19.593-10.828 0-19.59-8.764-19.59-19.593 0-10.83 8.762-19.594 19.59-19.594z"/><path d="M40.72 8.644a31.966 31.966 0 0 0-23.882 9.902C6.63 29.251 5.093 45.57 13.125 57.991c8.032 12.422 23.545 17.717 37.494 12.797a.75.75 0 1 0-.5-1.414c-13.302 4.691-28.075-.352-35.734-12.197-7.66-11.845-6.198-27.388 3.537-37.596 9.735-10.208 25.19-12.405 37.383-5.314 12.193 7.09 17.929 21.61 13.873 35.12a.75.75 0 0 0 1.437.432c4.253-14.167-1.77-29.413-14.556-36.85A31.898 31.898 0 0 0 40.72 8.645z"/><path d="M32.667 29.46a5.308 5.309 0 0 1-5.308 5.31 5.308 5.309 0 0 1-5.309-5.31 5.308 5.309 0 0 1 5.309-5.308 5.308 5.309 0 0 1 5.308 5.309zm25.251 0a5.308 5.309 0 0 1-5.308 5.31 5.308 5.309 0 0 1-5.308-5.31 5.308 5.309 0 0 1 5.308-5.308 5.308 5.309 0 0 1 5.308 5.309zM22.5 46.206a.75.75 0 0 0-.684 1.094 20.128 20.128 0 0 0 18.006 11.154c7.63 0 14.61-4.311 18.018-11.138a.75.75 0 1 0-1.342-.67 18.622 18.622 0 0 1-16.674 10.308c-7.064 0-13.515-4-16.664-10.324a.75.75 0 0 0-.66-.424z"/></svg>