<svg xmlns="http://www.w3.org/2000/svg" viewBox="0 0 96 96.001"><path d="M73.603 47.249a5.92 5.92 0 0 0-.293-1.598l-.043-.007.043.004a5.733 5.733 0 0 0-.334-.805l-.013.013.01-.014a5.821 5.821 0 0 0-1.287-1.702 5.866 5.866 0 0 0-1.338-.924l-.001-.001a5.485 5.485 0 0 0-.803-.335v.031l-.004-.031a5.938 5.938 0 0 0-1.598-.294 11.075 11.075 0 0 0-.257-.003h-.004c-.087 0-.173.001-.259.003a5.974 5.974 0 0 0-1.599.294l-.003.031.002-.031a5.509 5.509 0 0 0-.805.335l-.001.001a5.817 5.817 0 0 0-1.337.924 5.928 5.928 0 0 0-1.291 1.702v.001a5.684 5.684 0 0 0-.334.805l.043-.004-.045.007c.002-.001.002-.001.002-.003l-26.397 1.235-.25.013a32.214 32.214 0 0 1 .25-3.455 32.127 32.127 0 0 1 1.372-6.075 31.702 31.702 0 0 1 2.854-6.272 31.483 31.483 0 0 1 2.291-3.365l-1.478 1.474-2.583 2.584-2.456 2.456-2.411 2.411-2.585 2.583-3.725 3.724-4.544 4.543 3.764 3.768 3.524 3.522L33 58.113l2.658 2.657 2.244 2.24 2.077 2.085 2.19 2.188a32.18 32.18 0 0 1-6.005-12.774 32.346 32.346 0 0 1-.721-5.419c-.02-.324-.028-.647-.036-.973l.25.008 26.396 1.24v-.001l.009.001h-.009c.093.274.205.545.336.802l.039-.043-.039.051c.247.486.56.936.925 1.332a5.991 5.991 0 0 0 1.703 1.293c.259.128.526.242.806.33l-.002-.029.003.029 1.857 15.14 1.858-15.14.004-.029v.029c.277-.088.546-.202.804-.33h.002c.489-.249.936-.56 1.336-.925.128-.116.25-.24.365-.368.366-.396.678-.846.925-1.332l-.038-.049.04.041c.129-.257.241-.527.334-.802h-.007l.007-.001a6.011 6.011 0 0 0 .292-2.115zm-3.609 1.623a2.591 2.591 0 0 1-.941.942 2.635 2.635 0 0 1-1.366.375h-.004c-.23 0-.453-.027-.667-.082a2.468 2.468 0 0 1-.7-.293 2.581 2.581 0 0 1-.94-.942 2.536 2.536 0 0 1-.291-.699 2.519 2.519 0 0 1-.085-.664 2.649 2.649 0 0 1 .375-1.366 2.61 2.61 0 0 1 .94-.944 2.586 2.586 0 0 1 1.367-.373h.004c.229 0 .452.024.663.081.252.065.486.16.703.292.387.227.712.551.941.944.129.213.227.451.289.697.057.216.084.438.084.669 0 .228-.027.453-.084.664a2.47 2.47 0 0 1-.288.699z"/></svg>