<svg xmlns="http://www.w3.org/2000/svg" viewBox="0 0 100 100"><path d="M56.614 75.716l-.339-.636c.031.122.044.252.033.4.031.164.164.181.306.236zm-.709-1.338l-.092-.073.151.186-.059-.113zm-.338-.368a1.498 1.498 0 0 0-.336-.543c.088.205.208.381.336.543zm.242.291l.004.004-.245-.295c.044.131.063.26.062.38.022-.102.068-.172.179-.089zm-.18.089c-.022.099-.019.234-.034.288a1.27 1.27 0 0 0 .034-.288zm-2.818-2.06c-.411-.442-1.72-1.419-1.253-.668.727 1.116 1.273 1.803 1.946 2.792.652.744 1.317 1.437 1.964 2.21.159.23.256.473.359.716l-.349-1.044c-.141-.508-.982-.734-1.476-1.371-.11-.083.321-.297.103-.46-.41-.44-.848-.767-1.123-1.242-.218-.163.046-.771-.171-.933zm6.203 8.122l-.328-.244c.02-.656-.391-1.097-.801-1.538l-.077.345c.192.277.327.243.269-.067.089.737.373 1.319.746 1.867.092-.101.226-.168.191-.363z"/><path d="M58.794 80.848l.254.301.003-.018-.228-.316-.029.033zm-.029-61.624c-2.335.533-2.128 2.124-4.681 4.482 1.638-1.665.145 2.009-1.964 3.257-3.131 1.759-4.065 6.307-6.376 9.373-.578.766-1.013 1.684-1.614 2.653-1.115 1.534-2.086 3.101-2.995 4.698-.455.798-.894 1.604-1.329 2.416l-2.132 3.896 2.515 4.162a79.92 79.92 0 0 1 1.65 2.859c.827 1.422 1.935 2.452 2.839 3.53.577.835.914 1.889 1.326 2.602.65 1.118 1.353 1.999 2.069 2.816-.672-.988-1.219-1.678-1.946-2.792-.469-.753.841.226 1.252.666.219.164-.046.772.174.935.274.473.711.799 1.121 1.239.219.164-.212.379-.103.461.494.638 1.335.863 1.477 1.372l.349 1.044c.085.2.174.396.304.584l.322.316c.77.77 1.596 1.694 2.34 2.568l.029-.034c-.372-.547-.656-1.126-.745-1.865.056.31-.077.345-.271.066l.078-.344c.411.442.822.882.801 1.537l.328.245c.036.195-.099.262-.191.361l.228.318c.069-.357-.097-1.261-.097-1.261a113.374 113.374 0 0 1-2.34-4.154c-.14-.055-.275-.072-.306-.238a1.187 1.187 0 0 0-.032-.397l-.313-.592-.151-.185-.005-.004c-.11-.081-.155-.012-.178.09a1.43 1.43 0 0 1-.033.29c.013-.058.011-.19.033-.29 0-.122-.017-.247-.062-.38-.026-.032-.042-.075-.067-.108l.038.047c.008.02.022.041.029.061l.194.233.002.003v-.001l.049.059.092.073-.704-1.357-.194-.257c-.24-.287-.479-.573-.391-.886l-.124-.244-.011.067a.716.716 0 0 1-.012-.111l-.524-1.031-1.041-2.049a160.713 160.713 0 0 0-2.763-5.258l-1.423-2.595-.685-1.252-.486-.918 1.267-1.985a145.115 145.115 0 0 1 4.628-6.766c3.13-4.302 4.986-8.803 8.708-12.827 1.394-1.564 3.098-4.977 4.044-6.715.637-2.692-1.834-2.533-1.997-2.483zM47.551 60.949c-.257-.273-.418-.725-.406-1.171.412.307.44.749.406 1.171z"/></svg>