<svg xmlns="http://www.w3.org/2000/svg" viewBox="0 0 97.8 97.8"><path d="M18.339 35.642c4.604 0 8.356-3.724 8.356-8.328 0-4.603-3.752-8.356-8.356-8.356-4.605 0-8.3 3.753-8.3 8.356 0 4.604 3.696 8.328 8.3 8.328zm71.488 16.364v36.338H77.392V52.006c0-5.68-1.482-9.893-4.529-12.88-4.337-4.256-10.723-4.917-12.666-5.014h-8.935l5.122 12.968a1.039 1.039 0 0 1-1.598 1.206L29.313 28.701a1.04 1.04 0 0 1 0-1.647L54.786 7.47c.187-.144.409-.214.634-.214a1.038 1.038 0 0 1 .964 1.422l-5.122 12.966 6.593.02s.632.035 1.508.11l-.003-.112c.558-.011 13.306-.151 22.212 8.586 5.48 5.372 8.255 12.692 8.255 21.758z"/></svg>