<svg xmlns="http://www.w3.org/2000/svg" version="1" viewBox="0 0 100 100"><path d="M63.968 49.5a.5.5 0 0 0-.5.5v24.007H15.451V25.992h48.017v9.303a.5.5 0 0 0 1 0v-9.803a.5.5 0 0 0-.5-.5H14.951a.5.5 0 0 0-.5.5v49.016a.5.5 0 0 0 .5.5h49.017a.5.5 0 0 0 .5-.5V50a.5.5 0 0 0-.5-.5z"/><path d="M85.271 41.529l-8.538-5.438a.6.6 0 1 0-.644 1.013l6.958 4.431H50.689c-3.104 0-5.63 2.973-5.63 6.627v9.803a.5.5 0 1 0 1 0v-9.803c0-3.103 2.077-5.627 4.63-5.627h32.357l-6.958 4.431a.601.601 0 0 0 .644 1.013l8.538-5.438a.599.599 0 0 0 .001-1.012z"/></svg>