<svg xmlns="http://www.w3.org/2000/svg" viewBox="0 0 96 96"><path d="M48 94c25.364 0 46-20.632 46-46C94 22.636 73.364 2 48 2S2 22.636 2 48s20.636 46 46 46zm0-88c23.16 0 42 18.84 42 42S71.16 90 48 90 6 71.16 6 48 24.84 6 48 6z"/><path d="M38.772 68.832a2 2 0 0 0 1.484-3.336L24.584 48.084l15.672-17.412a2 2 0 0 0-.148-2.824 2 2 0 0 0-2.828.148L20.404 46.748a2.01 2.01 0 0 0 0 2.676L37.28 68.176c.4.436.948.656 1.492.656z"/><path d="M21.916 50.148h52a2 2 0 0 0 0-4h-52a2 2 0 0 0 0 4z"/><path d="M75.916 64.148c1.104 0 2-.9 2-2v-28a2 2 0 0 0-4 0v28a2 2 0 0 0 2 2z"/></svg>