<svg xmlns="http://www.w3.org/2000/svg" viewBox="0 0 100 100"><path d="M89.772 30.358c-15.815 8.67-32.88 10.601-50.487 8.35.534-3.384.668-6.723.336-10.145-.104-1.083-1.787-1.905-2.341-.634-2.112 4.849-7.512 6.69-11.986 8.75-5.421 2.499-10.844 4.996-16.265 7.493-.921.424-.688 1.665 0 2.146 5.188 3.619 9.862 7.834 13.934 12.678 3.786 4.505 7.097 9.36 11.327 13.481.758.742 2.103.207 2.103-.872-.002-2.74.233-5.459.334-8.192.833.25 1.74.254 2.654.349 2.418.247 4.842.469 7.262.704 5.164.501 10.331 1.043 15.436 1.997 9.097 1.698 17.741 4.811 25.157 10.441 1.1.835 2.578-1.061 1.486-1.926-6.681-5.298-14.635-8.451-22.905-10.302-4.361-.976-8.795-1.604-13.237-2.104a375.112 375.112 0 0 0-7.257-.723c-1.448-.134-7.201-1.462-8.228-.49.236-.221.184-.651-.104-.805-.944-.507-1.58.06-1.931.954a.88.88 0 0 0-.017.602c-.038.066-.08.127-.102.21-.556 2.082-.803 4.194-.918 6.324-3.586-3.927-6.617-8.307-10.107-12.329-3.525-4.061-7.502-7.647-11.814-10.832 5.624-2.583 11.247-5.16 16.865-7.751 3.026-1.396 6.108-2.892 8.329-5.281a36.328 36.328 0 0 1-.499 6.007c-.038.226-.017.431.04.614-.278.496-.167 1.17.575 1.368 17.771 4.712 37.731.792 53.617-7.929 1.409-.771.152-2.925-1.257-2.153z"/></svg>