<svg xmlns="http://www.w3.org/2000/svg" viewBox="0 0 90 90"><switch transform="matrix(-1 0 0 1 91.3 0)"><g><path d="M40.5 73.7h25c4.9 0 8.9-4 9-8.9h8.1c3.3 0 5.9-2.7 5.9-5.9V46.3c0-3.3-2.7-5.9-5.9-5.9h-8.1C74.6 31 47.3 27 45.1 27h-.8c-2.4 0-4.4 2-4.4 4.4v.8H7.2c-2.4 0-4.4 2-4.4 4.4v2.2c0 2.4 2 4.4 4.4 4.4h21.7c-1.7.6-2.9 2.2-2.9 4.1v2.3c0 2.4 2 4.4 4.4 4.4h.4c-1.9.5-3.3 2.2-3.3 4.2v1.6c0 2.3 1.7 4.1 3.9 4.4h.4c-.2.1-.3.2-.4.3-.9.8-1.4 1.9-1.4 3.2v1.5c0 2.4 2 4.4 4.4 4.4h4.9c.5.1.8.1 1.2.1z"/><path d="M31.5 64.6c.1-.1.3-.2.4-.3h-.4z"/></g></switch></svg>