<svg xmlns="http://www.w3.org/2000/svg" viewBox="0 0 74.922 90"><switch transform="matrix(-1 0 0 1 74.922 0)"><g><circle cx="26.287" cy="40.412" r="2.209"/><circle cx="35.631" cy="35.825" r="4.078"/><circle cx="49.223" cy="26.99" r="6.457"/><circle cx="26.287" cy="49.587" r="2.209"/><circle cx="35.631" cy="54.174" r="4.078"/><circle cx="49.223" cy="63.009" r="6.457"/><path d="M66.493 36.57L20.844 45l45.649 8.429L74.922 45zm-1.61 14.052L34.436 45l30.447-5.623L70.504 45zM43.426 0c-.454 11.397-5.028 22.662-13.73 31.364A46.834 46.834 0 0 1 0 45a83.56 83.56 0 0 0 25.011-17.24C33.201 19.568 39.339 10.102 43.426 0zM25.011 62.239A83.539 83.539 0 0 0 0 45c10.822.814 21.418 5.358 29.695 13.636C38.397 67.338 42.972 78.602 43.426 90c-4.087-10.103-10.225-19.569-18.415-27.761z"/><circle cx="62.311" cy="45" r="3.568"/></g></switch></svg>