<svg xmlns="http://www.w3.org/2000/svg" viewBox="0 0 100 100"><path d="M29.6 33.6c.8-1.1 2.3-1.5 3.5-.7 1.1.8 1.5 2.3.7 3.5l-7.4 11.1h21.8c.5-3.3 2-6.5 4.5-9 3.1-3.1 7.1-4.8 11.5-4.8 3.5 0 6.8 1.1 9.6 3.1l16.9-16.9c1-1 2.6-1 3.5 0 1 1 1 2.6 0 3.5L77.3 40.3c4.2 5.7 4.2 13.5 0 19.1l17 17.1c1 1 1 2.6 0 3.5-.5.5-1.1.7-1.8.7s-1.3-.2-1.8-.7L73.8 63.1c-2.8 2-6.1 3.1-9.6 3.1-4.3 0-8.4-1.7-11.5-4.8-2.5-2.5-4-5.7-4.5-9H26.4l7.4 11.1c.8 1.1.5 2.7-.7 3.5-.4.3-.9.4-1.4.4-.8 0-1.6-.4-2.1-1.1l-10-15c-.6-.8-.6-1.9 0-2.8zm24.9 26.1c2.6 2.6 6 4 9.7 4 3.7 0 7.1-1.4 9.7-4 5.4-5.4 5.4-14.1 0-19.4-2.6-2.6-6-4-9.7-4-3.7 0-7.1 1.4-9.7 4-5.4 5.3-5.4 14.1 0 19.4z"/></svg>