<svg xmlns="http://www.w3.org/2000/svg" viewBox="0 0 97.8 97.8"><path d="M89.878 44.065c0 .334-.155.65-.42.853l-26.403 20.3a1.078 1.078 0 0 1-1.659-1.25l2.933-6.559 16.548-13.342c.34-.288.404-.576-.005-.864L62.826 29.416l-1.43-5.254a1.077 1.077 0 0 1 1.659-1.25l26.403 20.3c.265.203.42.518.42.853zm-14.281-.04c0 .334-.155.649-.42.853l-26.403 20.3a1.078 1.078 0 0 1-1.659-1.25l5.31-13.44c-20.751-.535-30.21 2.36-42.627 22.297 3.388-17.211 10.133-32.946 42.627-35.223l-5.31-13.44a1.077 1.077 0 0 1 1.66-1.25l26.402 20.3c.265.202.42.518.42.852z"/></svg>