<svg xmlns="http://www.w3.org/2000/svg" data-name="Layer 1" viewBox="0 0 90 90"><path d="M57.2 58.783a.5.5 0 0 1-.48-.361l-7.7-26.566a.5.5 0 0 1 .678-.6l33.038 14.22a.5.5 0 0 1 .021.909L57.422 58.733a.5.5 0 0 1-.222.05zm-6.925-26.188l7.242 24.979 23.822-11.609z"/><path d="M49.542 31.65l-4.25 6.783 3.191 6.263 2.892.304 1.25 5.5-1.281.48 8.531 16.074 22.663-21.118-25.335 12.347-7.661-26.633z"/><path d="M52.625 51h-42.5a.5.5 0 0 1-.5-.5V45a.5.5 0 0 1 .5-.5h41.25a.5.5 0 0 1 .487.389l1.25 5.5a.5.5 0 0 1-.487.611zm-42-1H52l-1.023-4.5H10.625z"/><path d="M10.125 45L5.75 50.5l2.875 5 45.062-.591-1.062-4.409h-42.5V45z"/></svg>