<svg xmlns="http://www.w3.org/2000/svg" viewBox="0 0 512 512"><path d="M0 496h512M0 480h512M0 464h512M0 448h512M0 432h512M0 416h512M0 400h512M0 384h512M0 368h512M0 352h512M0 336h512M0 320h512M0 304h512M0 288h512M0 272h512M0 256h512M0 240h512M0 224h512M0 208h512M0 192h512M0 176h512M0 160h512M0 144h512M0 128h512M0 112h512M0 96h512M0 80h512M0 64h512M0 48h512M0 32h512M0 16h512M496 0v512M480 0v512M464 0v512M448 0v512M432 0v512M416 0v512M400 0v512M384 0v512M368 0v512M352 0v512M336 0v512M320 0v512M304 0v512M288 0v512M272 0v512M256 0v512M240 0v512M224 0v512M208 0v512M192 0v512M176 0v512M160 0v512M144 0v512M128 0v512M112 0v512M96 0v512M80 0v512M64 0v512M48 0v512M32 0v512M16 0v512m330.6-256.1L273 213.4l15.8 41.9-15.9 43.1z"/><path d="M248.2 6.1C116.3 10.1 10.1 116.3 6.1 248.2c-4.5 143.5 114 262 257.6 257.6 131.9-4 238.1-110.2 242.1-242.1 4.4-143.6-114.1-262-257.6-257.6zm110.9 249.8L261 312.5l21-57.1-21.1-56.1 98.2 56.6zm-101.9 0l-98.1 56.6 21-57.1-21.1-56.1 98.2 56.6z"/><path d="M244.7 255.9l-73.6-42.5 15.8 41.9-15.8 43.1z"/></svg>