<svg xmlns="http://www.w3.org/2000/svg" viewBox="0 0 100 100"><path fill="none" d="M31.971 60.347l3.761 1.324c-.065-.343-.128-.686-.19-1.029l-3.571-.295z"/><path d="M90.713 27.492C86.97 36.928 74.58 42.818 65.995 47.229c-.335.172-.675.33-1.011.499-2.706 1.087-5.431 2.14-8.19 3.062-1.267.423-14.13 2.633-17.982 2.361l-.034-.098c.364-.203.732-.386 1.096-.595 1.433-.823 1.301-2.286.445-3.182.371-1.315-.719-2.872-2.177-2.787.35-1.336-.716-2.935-2.565-2.672-.074.01-.146.024-.22.035-.486-.762-1.344-1.259-2.289-.869-2.07.852-4.147 1.671-6.233 2.457-6.568 1.488-12.93 3.567-19.214 6.241l-.037.011.002.004c-.171.073-.343.139-.514.212-1.056.455-1.243 1.469-.936 2.363a2.106 2.106 0 0 0 .236 3.843c.139.199.319.378.584.503 10.76 5.087 21.529 10.157 32.302 15.218 1.311.616 2.47-1.29 1.151-1.969-1.889-.973-3.78-1.94-5.669-2.913 1.023.319 2.048.634 3.077.943.489.482 1.185.668 1.858.558l.195.059c2.196.648 3.155-2.274 1.571-3.432a50.58 50.58 0 0 0-.098-1.719c14.211-4.404 28.66-9.353 40.377-18.194 5.954-2.847 10.852-6.747 12.976-13.467.359-1.136-.177-1.955-.975-2.347a28.1 28.1 0 0 0 1.138-2.718c.943-2.64-3.145-3.667-4.146-1.144zM31.971 60.347l3.571.295c.062.343.126.686.19 1.029a4155.33 4155.33 0 0 0-3.761-1.324z"/></svg>