<svg xmlns="http://www.w3.org/2000/svg" preserveAspectRatio="none" viewBox="0 0 100 100"><path d="M10.044 67q.5.2 1.85.35 3.9.4 11.3 1.4 7.25.85 6.6 1l2.05 3.05q.35.35.75.55l45.4 1.2q-1.4-1.4-2.65-3.25-1.15-1.85.25-1.55 1.3.2 1.6.4.4.1 6.95 2.35 6.45 2.35 6.25 3.25l.55-.05q-.55.35-.9.6-.35.15-.5.3-1.4.7-2.85 1.35-3.15 1.25-4.35 1.55-.85.35-4 2-2.75 1.75-3.45 1.75-.7 0-.25-.95.5-.9 1.1-1.8.35-.85 1.15-2.15.85-1.25 1.55-1.95-2.55.55-11.4-.2l-33.3-.5q-1.15 1.05-3.4 2.9-.25.45-5.45.35-1.8-.1-3-.2-4.35-.45-2.65-.15-2.45-.25-2.95-.25l-4.45-.55q-1.5-.2-2.05-.35-.85-.35.4-1.7 1.3-1.4 3.2-2.1l.05-.15h.2l.3.2q-.15.15-.2.3h-.1q-.6.4-1.7 1.9-.15.15-.1.2.25.15 1.45.15.5 0 1.3.2 1.05-.75 2.2-1.4.6 0 1.45-.55-1.1-.1-2.25-.15-1.3 0-2.1-.8l.05.15-.7-.9q-.6-.4-.8-1-1.05-1.35-1.95-3.35-.25-.75-.6-1.4.15.15.15-.05m7.2 2.6q.35.65 1.2 1.6.8.9 1.65 1.95l3.75.35q-1.5-.7-2.6-2.5-.25-.55-.45-.95-1.95-.05-3.55-.45m-1.35.75l-.7-1.1q-1.9-.2-3.35-.45 1.7 1.5 3.35 3.85l2.2.2q-.35-.55-1.5-2.5m1.1 6.1l-.1.1q.75.25 1.7.2.6.2 2.05.15 1.25-.75 1.6-.8.3-.3 2.25-.85-2.5-.2-4.25-.35h-.2q-.05.05-.15-.05-.65.55-2.9 1.6m66.9-1q-.7.3-.7.5-3.2.8-5.1 3.7 5.1-2.5 6.9-2.9 1.45-.65 1.95-.65.5-.3.9-.4.35.05-1.05-.45-1.45-.55-3.35-1.05-2.1-.5-5.45-2.05 1.65 1.85 4.1 2.9l1.55.35q.1 0 .25.05m-55.8-4q-2.5-.5-5.05-.85.6.5 1.6 1.6l1.3 1.3 4.35.35-2.2-2.4m.85 4.25q-.7 0-1.4-.1-.15-.05-.25-.05h-.1l-.1.05-.05.1q-.6.2-.95.35-.45.25-2.1 1.2.65.05 1.35.05 2.75-.05 3.4 0 1.6-.9 2.05-1.55l-1.85-.05M9.894 42.3q.15.15.15-.05.5.2 1.85.35 3.9.4 11.3 1.4 7.25.85 6.6 1l2.05 3.05q.35.35.75.55l45.4 1.2q-1.4-1.4-2.65-3.25-1.15-1.85.25-1.55 1.3.2 1.6.4.4.1 6.95 2.35 6.45 2.35 6.25 3.25l.55-.05q-.55.35-.9.6-.35.15-.5.3-1.4.7-2.85 1.35-3.15 1.25-4.35 1.55-.85.35-4 2-2.75 1.75-3.45 1.75-.7 0-.25-.95.5-.9 1.1-1.8.35-.85 1.15-2.15.85-1.25 1.55-1.95-2.55.55-11.4-.2l-33.3-.5q-1.15 1.05-3.4 2.9-.25.45-5.45.35-2.3-.1-3.65-.25h.25q-4.1-.45-2.25-.1-2.45-.25-2.95-.25l-4.45-.55q-1.5-.2-2.05-.35-.85-.35.4-1.7 1.3-1.4 3.2-2.1l.05-.15h.2l.3.2q-.15.15-.2.3h-.1q-.6.4-1.7 1.9-.15.15-.1.2.25.15 1.45.15.5 0 1.3.2 1.05-.75 2.2-1.4.6 0 1.45-.55-1.1-.1-2.25-.15-1.3 0-2.1-.8l.05.15-.7-.9q-.6-.4-.8-1-1.05-1.35-1.95-3.35-.25-.75-.6-1.4m6 3.3l-.7-1.1q-1.9-.2-3.35-.45 1.7 1.5 3.35 3.85l2.2.2q-.35-.55-1.5-2.5m1.35-.75q.35.65 1.2 1.6.8.9 1.65 1.95l3.75.35q-1.5-.7-2.6-2.5-.25-.55-.45-.95-1.95-.05-3.55-.45m-.25 6.85l-.1.1q.75.25 1.7.2.6.2 2.05.15 1.25-.75 1.6-.8.3-.3 2.25-.85-2.5-.2-4.25-.35h-.2q-.05.05-.15-.05-.65.55-2.9 1.6m7.65-4.25l1.3 1.3 4.35.35-2.2-2.4q-2.5-.5-5.05-.85.6.5 1.6 1.6m58.8 2q-2.1-.5-5.45-2.05 1.65 1.85 4.1 2.9l1.55.35q.1 0 .25.05-.7.3-.7.5-3.2.8-5.1 3.7 5.1-2.5 6.9-2.9 1.45-.65 1.95-.65.5-.3.9-.4.35.05-1.05-.45-1.45-.55-3.35-1.05m-56.15 1.35h-.1l-.1.05-.05.1q-.6.2-.95.35-.45.25-2.1 1.2.65.05 1.35.05 2.75-.05 3.4 0 1.6-.9 2.05-1.55l-1.85-.05q-.7 0-1.4-.1-.15-.05-.25-.05m-16.8-33.2q-.25-.75-.6-1.4.15.15.15-.05.5.2 1.85.35 3.9.4 11.3 1.4 7.25.85 6.6 1l2.05 3.05q.35.35.75.55l45.4 1.2q-1.4-1.4-2.65-3.25-1.15-1.85.25-1.55 1.3.2 1.6.4.4.1 6.95 2.35 6.45 2.35 6.25 3.25l.55-.05q-.55.35-.9.6-.35.15-.5.3-1.4.7-2.85 1.35-3.15 1.25-4.35 1.55-.85.35-4 2-2.75 1.75-3.45 1.75-.7 0-.25-.95.5-.9 1.1-1.8.35-.85 1.15-2.15.85-1.25 1.55-1.95-2.55.55-11.4-.2l-33.3-.5q-1.15 1.05-3.4 2.9-.25.45-5.45.35-2.3-.1-3.65-.25-1.25-.05-.7.05-3.1-.5-1.3-.15-2.45-.25-2.95-.25l-4.45-.55q-1.5-.2-2.05-.35-.85-.35.4-1.7 1.3-1.4 3.2-2.1l.05-.15h.2l.3.2q-.15.15-.2.3h-.1q-.6.4-1.7 1.9-.15.15-.1.2.25.15 1.45.15.5 0 1.3.2 1.05-.75 2.2-1.4.6 0 1.45-.55-1.1-.1-2.25-.15-1.3 0-2.1-.8l.05.15-.7-.9q-.6-.4-.8-1-1.05-1.35-1.95-3.35m4.7 4.2l2.2.2q-.35-.55-1.5-2.5l-.7-1.1q-1.9-.2-3.35-.45 1.7 1.5 3.35 3.85m2.05-3.05q.35.65 1.2 1.6.8.9 1.65 1.95l3.75.35q-1.5-.7-2.6-2.5-.25-.55-.45-.95-1.95-.05-3.55-.45m-.25 6.85l-.1.1q.75.25 1.7.2.6.2 2.05.15 1.25-.75 1.6-.8.3-.3 2.25-.85-2.5-.2-4.25-.35h-.2q-.05.05-.15-.05-.65.55-2.9 1.6m10.3-.9h-.1l-.1.05-.05.1q-.6.2-.95.35-.45.25-2.1 1.2.65.05 1.35.05 2.75-.05 3.4 0 1.6-.9 2.05-1.55l-1.85-.05q-.7 0-1.4-.1-.15-.05-.25-.05m-2.65-3.35l1.3 1.3 4.35.35-2.2-2.4q-2.5-.5-5.05-.85.6.5 1.6 1.6m62.15 3.05q-1.45-.55-3.35-1.05-2.1-.5-5.45-2.05 1.65 1.85 4.1 2.9l1.55.35q.1 0 .25.05-.7.3-.7.5-3.2.8-5.1 3.7 5.1-2.5 6.9-2.9 1.45-.65 1.95-.65.5-.3.9-.4.35.05-1.05-.45z"/></svg>