<svg xmlns="http://www.w3.org/2000/svg" viewBox="0 0 90 61.442"><switch transform="matrix(-1 0 0 1 90 0)"><g><path d="M78.092 52.933c-6.121-6.31-9.711-13.962-9.711-22.211 0-8.25 3.59-15.901 9.711-22.212-8.959 3.183-15.704 9.034-18.223 16.089C60.906 15.532 64.217 7.145 69.227 0 58.506 5.268 50.928 15.812 50.008 28.181l-5.65-5.65L0 30.722l44.357 8.19 5.65-5.649c.92 12.369 8.498 22.913 19.219 28.18-5.01-7.145-8.32-15.532-9.357-24.599 2.519 7.054 9.264 12.906 18.223 16.089z"/><circle cx="80.78" cy="30.722" r="9.22"/></g></switch></svg>