<svg xmlns="http://www.w3.org/2000/svg" viewBox="0 0 100 100"><path d="M6.823 73.435V44.783h13.324c1.163 0 2.107.943 2.107 2.107v24.439a2.107 2.107 0 0 1-2.107 2.107H6.823zm55.419 6.948L50.916 78.23c-1.569-.252-2.655-1.799-2.501-3.526.14-1.577 1.442-3.07 3.134-2.903l11.198 1.331c1.825.179 3.156 1.954 2.99 3.959-.085 1.021-.557 1.96-1.296 2.577a3.034 3.034 0 0 1-2.199.715z"/><path d="M24.381 48.346c1.004-.662 2.398-1.944 4.164-4.424 1.516-2.13 3.218-6.118 8.734-6.919 6.037-.877 17.811-17.294 17.811-17.294s6.809-1.667 3.617 8.494c-2.015 6.415-5.948 11.561-7.145 13.033h37.015a4.601 4.601 0 0 1 0 9.202l-37.39.38c-3.06.067-5.509 2.644-5.577 5.867a6.127 6.127 0 0 0 2.179 4.835 5.046 5.046 0 0 0-.95.704c-1.042.988-1.654 2.408-1.679 3.896-.035 2.119 1.117 3.999 2.814 4.888a5.514 5.514 0 0 0-1.679 3.507 5.66 5.66 0 0 0 .255 2.248c-4.615-.49-10.611-1.414-13.607-3.07-3.649-2.017-4.446-3.181-8.561-3.438V48.346z"/><path d="M48.322 63.788c.511-.496 1.179-.81 1.932-.78l16.636.777c1.891.07 3.368 1.827 3.303 3.918-.035 1.112-.506 2.148-1.293 2.84-.683.601-1.539.887-2.405.803l-16.581-1.934c-1.501-.144-2.655-1.575-2.627-3.257a3.469 3.469 0 0 1 1.035-2.367zm2.912-10.842l17.489-.38.117-.002c2.187 0 3.991 1.89 4.053 4.278.065 2.489-1.779 4.529-4.052 4.529a4.15 4.15 0 0 1-.157-.003l-17.506-.678c-1.952-.076-3.485-1.84-3.44-3.96.043-2.074 1.585-3.743 3.496-3.784z"/></svg>